<svg version="1.1" id="Livello_1" xmlns="http://www.w3.org/2000/svg" xmlns:xlink="http://www.w3.org/1999/xlink" x="0px" y="0px"
	 viewBox="0 0 63.4 51.1" style="enable-background:new 0 0 63.4 51.1;" xml:space="preserve">
<style type="text/css">
	.st0{clip-path:url(#SVGID_00000127745321318781011010000017152831056678071721_);fill:#575756;}
</style>
<g>
	<g>
		<defs>
			<rect id="SVGID_1_" x="13.3" y="15.7" width="36.9" height="19.6"/>
		</defs>
		<clipPath id="SVGID_00000145752723042403927830000011003671730450229124_">
			<use xlink:href="#SVGID_1_"  style="overflow:visible;"/>
		</clipPath>
		<path style="clip-path:url(#SVGID_00000145752723042403927830000011003671730450229124_);fill:#575756;" d="M45.3,35.2H46v-3.9
			c0-0.2,0-0.4,0-0.7h0c0.1,0.1,0.2,0.3,0.3,0.6l3,4h0.8v-5.3h-0.7v3.9c0,0.3,0,0.5,0,0.7h0c-0.1-0.2-0.2-0.4-0.3-0.6l-2.9-3.9h-0.9
			V35.2z M37.6,35.2h0.7V31c0-0.2,0-0.4,0-0.5h0c0.1,0.2,0.1,0.4,0.2,0.5l1.8,4.2H41l1.8-4.2c0-0.1,0.1-0.2,0.1-0.3
			c0-0.1,0.1-0.2,0.1-0.2h0c0,0.1,0,0.3,0,0.5v4.2h0.7v-5.3h-1.1L40.8,34c0,0,0,0.1-0.1,0.2c0,0.1-0.1,0.2-0.1,0.3h0
			c0-0.1,0-0.1-0.1-0.2c0-0.1-0.1-0.2-0.1-0.2l-1.7-4.1h-1.1V35.2z M31.2,29.9v3.2c0,0.4,0.1,0.8,0.3,1.2c0.2,0.3,0.5,0.6,0.8,0.8
			c0.4,0.2,0.8,0.3,1.3,0.3c0.5,0,0.9-0.1,1.3-0.3c0.4-0.2,0.6-0.5,0.8-0.8c0.2-0.3,0.3-0.7,0.3-1.2v-3.2h-0.7v3.2
			c0,0.3-0.1,0.6-0.2,0.9c-0.1,0.2-0.3,0.4-0.6,0.6c-0.3,0.1-0.6,0.2-0.9,0.2c-0.4,0-0.7-0.1-0.9-0.2c-0.3-0.1-0.5-0.3-0.6-0.6
			c-0.1-0.2-0.2-0.5-0.2-0.9v-3.2H31.2z M26.6,35.2h3.9v-0.6h-3.1v-4.7h-0.7V35.2z M22.5,34.7c-0.4,0-0.8-0.1-1.1-0.3
			c-0.3-0.2-0.6-0.4-0.7-0.8c-0.2-0.3-0.3-0.7-0.3-1.2c0-0.4,0.1-0.8,0.3-1.2c0.2-0.3,0.4-0.6,0.7-0.8c0.3-0.2,0.7-0.3,1.1-0.3
			c0.4,0,0.8,0.1,1.1,0.3c0.3,0.2,0.6,0.4,0.7,0.8c0.2,0.3,0.3,0.7,0.3,1.2c0,0.4-0.1,0.8-0.3,1.2c-0.2,0.3-0.4,0.6-0.7,0.8
			C23.3,34.7,23,34.7,22.5,34.7 M22.5,35.4c0.6,0,1.1-0.1,1.5-0.3c0.4-0.2,0.8-0.6,1-1c0.2-0.4,0.4-0.9,0.4-1.5
			c0-0.6-0.1-1.1-0.4-1.5c-0.2-0.4-0.6-0.8-1-1c-0.4-0.2-0.9-0.3-1.5-0.3c-0.6,0-1.1,0.1-1.5,0.3c-0.4,0.2-0.8,0.6-1,1
			c-0.2,0.4-0.4,0.9-0.4,1.5c0,0.6,0.1,1.1,0.4,1.5c0.2,0.4,0.6,0.8,1,1C21.5,35.2,22,35.4,22.5,35.4 M16.3,35.4
			c0.7,0,1.3-0.2,1.7-0.5c0.4-0.3,0.7-0.8,0.9-1.3l-0.7-0.1c-0.1,0.4-0.3,0.7-0.6,1c-0.3,0.2-0.7,0.3-1.2,0.3
			c-0.4,0-0.8-0.1-1.1-0.3c-0.3-0.2-0.6-0.4-0.7-0.8c-0.2-0.3-0.3-0.7-0.3-1.1c0-0.4,0.1-0.8,0.2-1.1c0.2-0.3,0.4-0.6,0.7-0.8
			c0.3-0.2,0.7-0.3,1.1-0.3c0.5,0,0.9,0.1,1.2,0.4c0.3,0.2,0.5,0.6,0.6,1l0.8-0.1c-0.1-0.6-0.4-1.1-0.8-1.4c-0.4-0.3-1-0.5-1.7-0.5
			c-0.6,0-1.1,0.1-1.5,0.4c-0.4,0.2-0.8,0.6-1,1c-0.2,0.4-0.3,0.9-0.3,1.5c0,0.5,0.1,1,0.3,1.5c0.2,0.4,0.5,0.8,1,1
			C15.2,35.2,15.7,35.4,16.3,35.4"/>
		<path style="clip-path:url(#SVGID_00000145752723042403927830000011003671730450229124_);fill:#575756;" d="M45,24.1h1.4
			c0.6,0,0.8,0.3,0.8,0.6c0,0.3-0.2,0.6-0.8,0.6H45V24.1z M47.2,28.2h2.1l-1.3-2c0.8-0.3,1.1-1,1.1-1.6c0-0.9-0.5-1.7-2.4-1.7H43
			v5.3H45v-1.7h1.1L47.2,28.2z M38.2,26.9v-0.8h3.5v-1.2h-3.5v-0.8h3.6v-1.3h-5.6v5.3h5.6v-1.3H38.2z M35.6,22.9h-6v1.5h2v3.9h1.9
			v-3.9h2.1V22.9z M25.8,26l0.4-0.9c0.1-0.2,0.3-0.8,0.4-1.1h0c0.1,0.3,0.3,0.9,0.4,1.1l0.4,0.9H25.8z M28.3,28.2h2.1l-2.5-5.3h-2.5
			l-2.5,5.3H25l0.4-1h2.5L28.3,28.2z M15.1,28.2h2.2l1-3c0-0.1,0.1-0.3,0.1-0.5h0c0,0.2,0.1,0.4,0.1,0.5l1,3h2.2l1.8-5.3h-1.9
			l-0.9,3c-0.1,0.2-0.1,0.4-0.1,0.6h0c0-0.2-0.1-0.4-0.2-0.6l-1-3h-2l-1,3c-0.1,0.2-0.1,0.4-0.2,0.6h0c0-0.2-0.1-0.4-0.1-0.6l-0.9-3
			h-1.9L15.1,28.2z"/>
		<path style="clip-path:url(#SVGID_00000145752723042403927830000011003671730450229124_);fill:#575756;" d="M36.2,20.8
			c-0.5,0-0.9-0.2-1.2-0.6c-0.3-0.4-0.4-0.9-0.4-1.6c0-0.7,0.1-1.2,0.4-1.6c0.3-0.4,0.7-0.6,1.2-0.6c0.5,0,0.9,0.2,1.2,0.6
			c0.3,0.4,0.4,0.9,0.4,1.6c0,0.7-0.1,1.2-0.4,1.6C37.1,20.6,36.7,20.8,36.2,20.8 M36.2,21.4c0.5,0,0.9-0.1,1.3-0.3
			c0.4-0.2,0.6-0.6,0.8-1c0.2-0.4,0.3-0.9,0.3-1.5c0-0.6-0.1-1.1-0.3-1.5c-0.2-0.4-0.5-0.7-0.8-1c-0.4-0.2-0.8-0.3-1.3-0.3
			c-0.5,0-0.9,0.1-1.3,0.3c-0.4,0.2-0.6,0.6-0.8,1c-0.2,0.4-0.3,0.9-0.3,1.5c0,0.6,0.1,1.1,0.3,1.5c0.2,0.4,0.5,0.8,0.8,1
			C35.3,21.2,35.7,21.4,36.2,21.4 M30.5,20.8c-0.5,0-0.9-0.2-1.2-0.6c-0.3-0.4-0.4-0.9-0.4-1.6c0-0.7,0.1-1.2,0.4-1.6
			c0.3-0.4,0.7-0.6,1.2-0.6c0.5,0,0.9,0.2,1.2,0.6c0.3,0.4,0.4,0.9,0.4,1.6c0,0.7-0.1,1.2-0.4,1.6C31.5,20.6,31.1,20.8,30.5,20.8
			 M30.5,21.4c0.5,0,0.9-0.1,1.3-0.3c0.4-0.2,0.6-0.6,0.8-1c0.2-0.4,0.3-0.9,0.3-1.5c0-0.6-0.1-1.1-0.3-1.5c-0.2-0.4-0.5-0.7-0.8-1
			c-0.4-0.2-0.8-0.3-1.3-0.3c-0.5,0-0.9,0.1-1.3,0.3c-0.4,0.2-0.6,0.6-0.8,1c-0.2,0.4-0.3,0.9-0.3,1.5c0,0.6,0.1,1.1,0.3,1.5
			c0.2,0.4,0.5,0.8,0.8,1C29.6,21.2,30,21.4,30.5,21.4 M24.9,20.8c-0.5,0-0.9-0.2-1.2-0.6c-0.3-0.4-0.4-0.9-0.4-1.6
			c0-0.7,0.1-1.2,0.4-1.6c0.3-0.4,0.7-0.6,1.2-0.6s0.9,0.2,1.2,0.6c0.3,0.4,0.4,0.9,0.4,1.6c0,0.7-0.1,1.2-0.4,1.6
			C25.8,20.6,25.4,20.8,24.9,20.8 M24.9,21.4c0.5,0,0.9-0.1,1.3-0.3c0.4-0.2,0.6-0.6,0.8-1c0.2-0.4,0.3-0.9,0.3-1.5
			c0-0.6-0.1-1.1-0.3-1.5c-0.2-0.4-0.5-0.7-0.8-1c-0.4-0.2-0.8-0.3-1.3-0.3c-0.5,0-0.9,0.1-1.3,0.3c-0.4,0.2-0.6,0.6-0.8,1
			c-0.2,0.4-0.3,0.9-0.3,1.5c0,0.6,0.1,1.1,0.3,1.5c0.2,0.4,0.5,0.8,0.8,1C24,21.2,24.4,21.4,24.9,21.4 M19.2,20.8
			c-0.5,0-0.9-0.2-1.2-0.6c-0.3-0.4-0.4-0.9-0.4-1.6c0-0.7,0.1-1.2,0.4-1.6c0.3-0.4,0.7-0.6,1.2-0.6s0.9,0.2,1.2,0.6
			c0.3,0.4,0.4,0.9,0.4,1.6c0,0.7-0.1,1.2-0.4,1.6C20.2,20.6,19.8,20.8,19.2,20.8 M19.2,21.4c0.5,0,0.9-0.1,1.3-0.3
			c0.4-0.2,0.6-0.6,0.8-1c0.2-0.4,0.3-0.9,0.3-1.5c0-0.6-0.1-1.1-0.3-1.5c-0.2-0.4-0.5-0.7-0.8-1c-0.4-0.2-0.8-0.3-1.3-0.3
			c-0.5,0-0.9,0.1-1.3,0.3c-0.4,0.2-0.6,0.6-0.8,1c-0.2,0.4-0.3,0.9-0.3,1.5c0,0.6,0.1,1.1,0.3,1.5c0.2,0.4,0.5,0.8,0.8,1
			C18.3,21.2,18.8,21.4,19.2,21.4 M14.7,21.2h0.7v-5.3h-0.6c-0.1,0.3-0.2,0.5-0.5,0.7c-0.2,0.2-0.5,0.2-0.8,0.2h-0.2v0.6h0.3
			c0.2,0,0.5,0,0.7-0.1s0.4-0.2,0.4-0.3V21.2z"/>
		<path style="clip-path:url(#SVGID_00000145752723042403927830000011003671730450229124_);fill:#575756;" d="M45,18.3v2.5h0.4v-1.3
			c0-0.3,0.1-0.5,0.2-0.6c0.1-0.2,0.3-0.2,0.6-0.2c0.2,0,0.4,0.1,0.5,0.2s0.2,0.3,0.2,0.6v1.5h0.4v-1.4c0-0.3,0.1-0.5,0.2-0.6
			c0.1-0.1,0.3-0.2,0.6-0.2c0.2,0,0.4,0.1,0.5,0.2s0.2,0.3,0.2,0.6v1.4h0.4v-1.5c0-0.3-0.1-0.6-0.2-0.8c-0.2-0.2-0.4-0.3-0.7-0.3
			c-0.2,0-0.4,0-0.6,0.1s-0.3,0.2-0.4,0.4c-0.1-0.2-0.2-0.3-0.3-0.4s-0.3-0.1-0.6-0.1c-0.4,0-0.8,0.2-0.9,0.6v-0.5H45z M39.8,18.3
			v2.5h0.4v-1.3c0-0.3,0.1-0.5,0.2-0.6c0.1-0.2,0.3-0.2,0.6-0.2c0.2,0,0.4,0.1,0.5,0.2s0.2,0.3,0.2,0.6v1.5h0.4v-1.4
			c0-0.3,0.1-0.5,0.2-0.6c0.1-0.1,0.3-0.2,0.6-0.2c0.2,0,0.4,0.1,0.5,0.2s0.2,0.3,0.2,0.6v1.4H44v-1.5c0-0.3-0.1-0.6-0.2-0.8
			c-0.2-0.2-0.4-0.3-0.7-0.3c-0.2,0-0.4,0-0.6,0.1c-0.2,0.1-0.3,0.2-0.4,0.4c-0.1-0.2-0.2-0.3-0.3-0.4c-0.2-0.1-0.3-0.1-0.6-0.1
			c-0.4,0-0.8,0.2-0.9,0.6v-0.5H39.8z"/>
	</g>
</g>
</svg>
