<svg version="1.1" id="Livello_1" xmlns="http://www.w3.org/2000/svg" xmlns:xlink="http://www.w3.org/1999/xlink" x="0px" y="0px"
	 viewBox="0 0 63.37 51.13" style="enable-background:new 0 0 63.37 51.13;" xml:space="preserve">
<style type="text/css">
	.st0{clip-path:url(#SVGID_2_);fill:#575756;}
</style>
<g>
	<defs>
		<rect id="SVGID_1_" x="12.75" y="15.25" width="37.87" height="20.63"/>
	</defs>
	<clipPath id="SVGID_2_">
		<use xlink:href="#SVGID_1_"  style="overflow:visible;"/>
	</clipPath>
	<path class="st0" d="M31.47,20.69c-0.53,0-0.94-0.2-1.23-0.6c-0.29-0.4-0.43-0.94-0.43-1.63c0-0.69,0.14-1.23,0.43-1.63
		c0.29-0.4,0.7-0.6,1.23-0.6c0.53,0,0.94,0.2,1.23,0.6c0.29,0.4,0.44,0.94,0.44,1.63c0,0.69-0.15,1.23-0.44,1.63
		C32.41,20.49,32,20.69,31.47,20.69 M31.47,21.28c0.49,0,0.91-0.12,1.27-0.35c0.36-0.23,0.63-0.56,0.82-0.98
		c0.19-0.42,0.28-0.92,0.28-1.48c0-0.56-0.09-1.06-0.28-1.48c-0.19-0.42-0.46-0.75-0.81-0.98c-0.35-0.23-0.78-0.35-1.27-0.35
		c-0.49,0-0.91,0.12-1.27,0.35c-0.35,0.23-0.63,0.56-0.81,0.98c-0.19,0.42-0.28,0.91-0.28,1.48c0,0.57,0.09,1.06,0.28,1.48
		c0.19,0.42,0.46,0.75,0.81,0.98C30.56,21.16,30.98,21.28,31.47,21.28 M25.83,20.69c-0.53,0-0.94-0.2-1.23-0.6
		c-0.29-0.4-0.43-0.94-0.43-1.63c0-0.69,0.14-1.23,0.43-1.63c0.29-0.4,0.7-0.6,1.23-0.6c0.53,0,0.94,0.2,1.23,0.6
		c0.29,0.4,0.43,0.94,0.43,1.63c0,0.69-0.15,1.23-0.43,1.63C26.77,20.49,26.36,20.69,25.83,20.69 M25.83,21.28
		c0.49,0,0.91-0.12,1.27-0.35c0.36-0.23,0.63-0.56,0.82-0.98c0.19-0.42,0.28-0.92,0.28-1.48c0-0.56-0.09-1.06-0.28-1.48
		c-0.19-0.42-0.46-0.75-0.81-0.98c-0.35-0.23-0.78-0.35-1.27-0.35c-0.49,0-0.91,0.12-1.27,0.35c-0.35,0.23-0.63,0.56-0.81,0.98
		c-0.19,0.42-0.28,0.91-0.28,1.48c0,0.57,0.09,1.06,0.28,1.48c0.19,0.42,0.46,0.75,0.81,0.98C24.92,21.16,25.34,21.28,25.83,21.28
		 M20.19,20.69c-0.53,0-0.94-0.2-1.23-0.6c-0.29-0.4-0.43-0.94-0.43-1.63c0-0.69,0.14-1.23,0.43-1.63c0.29-0.4,0.7-0.6,1.23-0.6
		c0.53,0,0.94,0.2,1.23,0.6c0.29,0.4,0.44,0.94,0.44,1.63c0,0.69-0.15,1.23-0.44,1.63C21.13,20.49,20.72,20.69,20.19,20.69
		 M20.19,21.28c0.49,0,0.91-0.12,1.27-0.35c0.36-0.23,0.63-0.56,0.82-0.98c0.19-0.42,0.28-0.92,0.28-1.48
		c0-0.56-0.09-1.06-0.28-1.48c-0.19-0.42-0.46-0.75-0.81-0.98c-0.35-0.23-0.78-0.35-1.27-0.35c-0.49,0-0.91,0.12-1.27,0.35
		c-0.35,0.23-0.63,0.56-0.81,0.98c-0.19,0.42-0.28,0.91-0.28,1.48c0,0.57,0.09,1.06,0.28,1.48c0.19,0.42,0.46,0.75,0.81,0.98
		C19.28,21.16,19.7,21.28,20.19,21.28 M14.87,21.28c0.43,0,0.81-0.08,1.13-0.24c0.32-0.16,0.57-0.38,0.75-0.68
		c0.17-0.29,0.26-0.63,0.26-1.02c0-0.59-0.16-1.06-0.49-1.39c-0.33-0.33-0.78-0.5-1.37-0.5c-0.38,0-0.7,0.07-0.98,0.2
		c-0.28,0.14-0.49,0.32-0.63,0.57l0.22-1.83h2.98v-0.6h-3.51l-0.34,3.09l0.68,0.07c0.12-0.31,0.29-0.54,0.52-0.69
		c0.23-0.15,0.52-0.23,0.88-0.23c0.43,0,0.76,0.12,1,0.35s0.35,0.56,0.35,0.98c0,0.41-0.12,0.74-0.37,0.97
		c-0.25,0.23-0.59,0.34-1.04,0.34c-0.39,0-0.7-0.09-0.94-0.27c-0.24-0.18-0.4-0.43-0.48-0.75l-0.72,0.1
		c0.1,0.47,0.34,0.84,0.71,1.11C13.83,21.14,14.3,21.28,14.87,21.28"/>
	<path class="st0" d="M44.46,24.03h1.36c0.6,0,0.79,0.27,0.79,0.59c0,0.34-0.19,0.62-0.8,0.62h-1.35V24.03z M46.7,28.13h2.11
		l-1.29-1.96c0.83-0.33,1.11-1.01,1.11-1.61c0-0.86-0.53-1.75-2.37-1.75h-3.73v5.32h1.92v-1.74h1.12L46.7,28.13z M37.74,26.85v-0.8
		h3.52v-1.18h-3.52V24.1h3.65v-1.29h-5.56v5.32h5.62v-1.29H37.74z M35.06,22.81h-6.01v1.46h2.05v3.86H33v-3.86h2.06V22.81z
		 M25.34,25.97l0.38-0.92c0.09-0.23,0.3-0.8,0.4-1.15h0.02c0.09,0.35,0.31,0.92,0.4,1.15l0.38,0.92H25.34z M27.79,28.13h2.06
		l-2.48-5.32h-2.49l-2.47,5.32h2.06l0.41-1.01h2.5L27.79,28.13z M14.57,28.13h2.15l1.03-3c0.05-0.15,0.1-0.32,0.11-0.5h0.04
		c0.01,0.18,0.06,0.35,0.11,0.5l1.03,3h2.15l1.81-5.32h-1.93l-0.85,2.99c-0.05,0.19-0.1,0.38-0.1,0.57h-0.04
		c-0.01-0.19-0.09-0.39-0.16-0.57l-1.03-2.99h-2.03l-1.03,2.99c-0.07,0.18-0.14,0.38-0.16,0.57h-0.04c0-0.19-0.05-0.38-0.1-0.57
		l-0.86-2.99h-1.93L14.57,28.13z"/>
	<path class="st0" d="M44.63,35.13h0.67v-3.92c0-0.19-0.01-0.4-0.02-0.65h0.02c0.05,0.15,0.17,0.34,0.34,0.58l2.99,3.98h0.85v-5.33
		h-0.66v3.86c0,0.31,0,0.54,0.01,0.68H48.8c-0.06-0.17-0.18-0.38-0.34-0.61l-2.95-3.93h-0.89V35.13z M36.96,35.13h0.67v-4.17
		c0-0.22-0.01-0.4-0.02-0.53h0.03c0.06,0.25,0.12,0.42,0.17,0.53l1.77,4.17h0.7l1.78-4.17c0.03-0.08,0.07-0.19,0.11-0.31
		c0.04-0.12,0.06-0.2,0.07-0.23h0.03c-0.01,0.09-0.02,0.27-0.02,0.53v4.17h0.67v-5.33h-1.09l-1.75,4.12
		c-0.01,0.03-0.04,0.1-0.07,0.19c-0.03,0.09-0.06,0.18-0.08,0.27h-0.01c-0.01-0.08-0.03-0.15-0.06-0.22
		c-0.03-0.07-0.06-0.15-0.09-0.24l-1.73-4.12h-1.08V35.13z M30.51,29.81v3.22c0,0.45,0.09,0.84,0.28,1.18
		c0.19,0.34,0.47,0.6,0.84,0.79c0.37,0.19,0.81,0.28,1.32,0.28c0.51,0,0.95-0.09,1.32-0.28c0.37-0.19,0.65-0.45,0.84-0.79
		c0.19-0.34,0.29-0.73,0.29-1.18v-3.22h-0.74v3.18c0,0.32-0.07,0.6-0.2,0.85s-0.33,0.45-0.58,0.59c-0.26,0.14-0.56,0.21-0.92,0.21
		s-0.66-0.07-0.92-0.21c-0.26-0.14-0.45-0.34-0.59-0.59c-0.14-0.25-0.2-0.53-0.2-0.85v-3.18H30.51z M25.95,35.13h3.87V34.5h-3.14
		v-4.69h-0.74V35.13z M21.86,34.67c-0.42,0-0.8-0.09-1.11-0.27c-0.32-0.18-0.56-0.44-0.73-0.77c-0.17-0.33-0.26-0.72-0.26-1.15
		c0-0.44,0.09-0.83,0.26-1.16c0.17-0.33,0.42-0.59,0.73-0.77c0.32-0.18,0.69-0.27,1.11-0.27c0.43,0,0.8,0.09,1.12,0.27
		c0.32,0.18,0.56,0.44,0.74,0.77c0.17,0.33,0.26,0.72,0.26,1.16c0,0.44-0.09,0.83-0.26,1.16c-0.17,0.33-0.42,0.59-0.74,0.77
		C22.67,34.58,22.29,34.67,21.86,34.67 M21.86,35.28c0.58,0,1.08-0.11,1.51-0.34c0.44-0.23,0.77-0.56,1.01-0.98s0.36-0.92,0.36-1.49
		c0-0.56-0.12-1.06-0.36-1.48c-0.24-0.42-0.58-0.75-1.01-0.98c-0.43-0.23-0.94-0.35-1.51-0.35c-0.57,0-1.07,0.11-1.51,0.35
		c-0.43,0.23-0.77,0.56-1.01,0.98c-0.24,0.43-0.36,0.92-0.36,1.48c0,0.56,0.12,1.05,0.36,1.48s0.58,0.75,1.01,0.99
		C20.79,35.17,21.29,35.28,21.86,35.28 M15.59,35.28c0.69,0,1.26-0.16,1.69-0.48c0.43-0.32,0.73-0.77,0.89-1.33l-0.73-0.13
		c-0.11,0.42-0.33,0.74-0.65,0.97c-0.32,0.23-0.71,0.34-1.19,0.34c-0.43,0-0.8-0.09-1.11-0.28c-0.31-0.19-0.56-0.45-0.72-0.78
		c-0.17-0.33-0.25-0.71-0.25-1.14c0-0.44,0.08-0.82,0.25-1.14c0.16-0.33,0.4-0.58,0.71-0.76c0.31-0.18,0.68-0.27,1.1-0.27
		c0.5,0,0.91,0.12,1.22,0.36c0.32,0.24,0.52,0.58,0.61,1.02l0.76-0.08c-0.11-0.6-0.39-1.08-0.83-1.42
		c-0.44-0.34-1.01-0.51-1.73-0.51c-0.59,0-1.1,0.12-1.53,0.35c-0.43,0.24-0.76,0.56-0.99,0.99c-0.23,0.42-0.35,0.91-0.35,1.47
		c0,0.55,0.11,1.03,0.33,1.46c0.22,0.42,0.54,0.76,0.97,1C14.47,35.16,14.99,35.28,15.59,35.28"/>
	<path class="st0" d="M39.91,18.21v2.5h0.44v-1.34c0-0.26,0.07-0.47,0.21-0.62c0.14-0.15,0.33-0.23,0.56-0.23
		c0.21,0,0.38,0.06,0.49,0.19s0.17,0.31,0.17,0.55v1.45h0.44v-1.38c0-0.25,0.07-0.45,0.21-0.6c0.14-0.15,0.33-0.22,0.56-0.22
		c0.22,0,0.38,0.06,0.49,0.19s0.17,0.31,0.17,0.56v1.45h0.44v-1.49c0-0.35-0.08-0.62-0.25-0.8c-0.17-0.19-0.41-0.28-0.72-0.28
		c-0.22,0-0.41,0.05-0.58,0.15c-0.16,0.1-0.29,0.25-0.39,0.43c-0.07-0.19-0.18-0.33-0.33-0.43c-0.16-0.1-0.35-0.15-0.57-0.15
		c-0.45,0-0.75,0.19-0.91,0.57v-0.5H39.91z M34.79,18.21v2.5h0.44v-1.34c0-0.26,0.07-0.47,0.21-0.62c0.14-0.15,0.33-0.23,0.56-0.23
		c0.21,0,0.38,0.06,0.49,0.19s0.17,0.31,0.17,0.55v1.45h0.44v-1.38c0-0.25,0.07-0.45,0.21-0.6c0.14-0.15,0.32-0.22,0.56-0.22
		c0.22,0,0.38,0.06,0.49,0.19s0.17,0.31,0.17,0.56v1.45h0.44v-1.49c0-0.35-0.08-0.62-0.25-0.8c-0.17-0.19-0.41-0.28-0.72-0.28
		c-0.22,0-0.41,0.05-0.58,0.15c-0.16,0.1-0.29,0.25-0.39,0.43c-0.07-0.19-0.18-0.33-0.33-0.43c-0.16-0.1-0.35-0.15-0.57-0.15
		c-0.45,0-0.75,0.19-0.91,0.57v-0.5H34.79z"/>
</g>
</svg>
