
<svg version="1.1" id="Livello_1" xmlns="http://www.w3.org/2000/svg" xmlns:xlink="http://www.w3.org/1999/xlink" x="0px" y="0px"
	 viewBox="0 0 63.37 51.13" style="enable-background:new 0 0 63.37 51.13;" xml:space="preserve">
<style type="text/css">
	.st0{clip-path:url(#SVGID_2_);fill:#575756;}
	.st1{clip-path:url(#SVGID_2_);fill:none;stroke:#575756;stroke-width:0.1;stroke-miterlimit:10;}
	.st2{clip-path:url(#SVGID_4_);fill:url(#SVGID_5_);}
	.st3{clip-path:url(#SVGID_7_);fill:#FFFFFF;}
	.st4{clip-path:url(#SVGID_9_);fill:url(#SVGID_10_);}
	.st5{clip-path:url(#SVGID_12_);fill:#FFFFFF;}
	.st6{clip-path:url(#SVGID_14_);fill:url(#SVGID_15_);}
	.st7{clip-path:url(#SVGID_17_);fill:#FFFFFF;}
	.st8{clip-path:url(#SVGID_19_);fill:url(#SVGID_20_);}
	.st9{clip-path:url(#SVGID_22_);fill:#FFFFFF;}
	.st10{fill:#575756;}
	.st11{fill:none;stroke:#575756;stroke-width:0.1;stroke-miterlimit:10;}
	.st12{clip-path:url(#SVGID_24_);fill:#575756;}
	.st13{clip-path:url(#SVGID_24_);fill:none;stroke:#575756;stroke-width:0.1;stroke-miterlimit:10;}
	.st14{clip-path:url(#SVGID_26_);fill:#575756;}
	.st15{clip-path:url(#SVGID_26_);fill:none;stroke:#575756;stroke-width:0.1;stroke-miterlimit:10;}
	.st16{clip-path:url(#SVGID_28_);fill:#575756;}
	.st17{clip-path:url(#SVGID_28_);fill:none;stroke:#575756;stroke-width:0.1;stroke-miterlimit:10;}
</style>
<g>
	<g>
		<defs>
			<rect id="SVGID_1_" x="11.69" y="13.32" width="39.99" height="24.49"/>
		</defs>
		<clipPath id="SVGID_2_">
			<use xlink:href="#SVGID_1_"  style="overflow:visible;"/>
		</clipPath>
		<path class="st0" d="M47.31,17.24h0.69v-1.31l1.47-2.25H48.7l-0.94,1.49c-0.05,0.08-0.08,0.15-0.1,0.21h-0.01
			c-0.01-0.06-0.04-0.13-0.09-0.21l-0.94-1.49h-0.77l1.46,2.25V17.24z M44.36,16.74h-1.13v-1.06h1.16c0.22,0,0.38,0.05,0.48,0.14
			c0.1,0.09,0.16,0.22,0.16,0.38c0,0.16-0.05,0.29-0.16,0.39C44.76,16.69,44.59,16.74,44.36,16.74 M44.31,14.2
			c0.22,0,0.38,0.05,0.48,0.14c0.1,0.09,0.15,0.21,0.15,0.35c0,0.34-0.21,0.5-0.62,0.5h-1.08V14.2H44.31z M45,15.4
			c0.21-0.05,0.36-0.15,0.47-0.29c0.11-0.14,0.16-0.31,0.16-0.5c0-0.26-0.1-0.48-0.29-0.66c-0.19-0.17-0.5-0.26-0.9-0.26h-1.9v3.55
			h1.95c0.42,0,0.73-0.09,0.93-0.28c0.2-0.19,0.3-0.42,0.3-0.71c0-0.23-0.06-0.42-0.19-0.57C45.42,15.53,45.23,15.44,45,15.4
			 M37.29,16.72v-2.51h0.9c0.38,0,0.69,0.11,0.91,0.33c0.22,0.22,0.33,0.52,0.33,0.9c0,0.25-0.05,0.48-0.15,0.67
			s-0.24,0.34-0.42,0.45c-0.19,0.11-0.4,0.16-0.66,0.16H37.29z M36.61,17.24h1.63c0.37,0,0.7-0.08,0.99-0.23
			c0.29-0.15,0.51-0.36,0.67-0.64c0.16-0.28,0.24-0.59,0.24-0.95c0-0.36-0.08-0.67-0.24-0.93c-0.16-0.26-0.38-0.46-0.67-0.6
			c-0.29-0.14-0.62-0.21-1-0.21h-1.63V17.24z M33.6,16.72v-1.03h2.02v-0.51H33.6v-0.95h2.1v-0.53h-2.79v3.55h2.83v-0.52H33.6z
			 M29.63,14.2h1.01c0.24,0,0.42,0.05,0.53,0.16s0.16,0.24,0.16,0.41c0,0.17-0.06,0.31-0.17,0.42c-0.11,0.11-0.29,0.16-0.53,0.16
			h-1.01V14.2z M31.4,17.24h0.77l-0.91-1.49c0.27-0.07,0.47-0.2,0.6-0.38c0.13-0.18,0.19-0.39,0.19-0.61c0-0.31-0.1-0.57-0.3-0.77
			c-0.2-0.2-0.53-0.3-0.98-0.3h-1.82v3.55h0.68v-1.4h0.92L31.4,17.24z M25.94,16.72v-1.03h2.02v-0.51h-2.02v-0.95h2.1v-0.53h-2.79
			v3.55h2.82v-0.52H25.94z M20.35,17.24h0.8l0.75-2.58c0.03-0.1,0.05-0.18,0.05-0.24h0.02c0,0.06,0.02,0.14,0.05,0.24l0.75,2.58h0.8
			l1.02-3.55h-0.7l-0.67,2.6c-0.03,0.15-0.05,0.24-0.05,0.27h-0.02c0-0.05-0.02-0.14-0.06-0.27l-0.78-2.6h-0.69l-0.78,2.6
			c-0.04,0.12-0.06,0.21-0.06,0.27h-0.02c0-0.06-0.02-0.15-0.05-0.27l-0.67-2.6h-0.69L20.35,17.24z M17.17,16.8
			c-0.25,0-0.47-0.06-0.66-0.16c-0.19-0.11-0.34-0.27-0.44-0.47c-0.1-0.2-0.15-0.44-0.15-0.7c0-0.27,0.05-0.51,0.15-0.71
			c0.1-0.2,0.25-0.36,0.44-0.47c0.19-0.11,0.41-0.16,0.66-0.16s0.47,0.05,0.66,0.16c0.19,0.11,0.33,0.26,0.43,0.47
			c0.1,0.2,0.15,0.44,0.15,0.71c0,0.27-0.05,0.51-0.15,0.71c-0.1,0.2-0.25,0.36-0.43,0.47C17.64,16.75,17.42,16.8,17.17,16.8
			 M17.17,17.34c0.39,0,0.73-0.08,1.03-0.23c0.3-0.15,0.53-0.37,0.69-0.65c0.16-0.28,0.24-0.61,0.24-0.99
			c0-0.38-0.08-0.71-0.24-0.99c-0.16-0.28-0.39-0.5-0.69-0.66c-0.3-0.15-0.64-0.23-1.03-0.23c-0.39,0-0.74,0.08-1.03,0.23
			c-0.3,0.15-0.53,0.37-0.69,0.66c-0.16,0.28-0.24,0.61-0.24,0.99c0,0.37,0.08,0.7,0.24,0.98c0.16,0.28,0.39,0.5,0.69,0.66
			C16.44,17.26,16.78,17.34,17.17,17.34 M13.35,15.42h-0.97v-1.22h0.98c0.23,0,0.4,0.05,0.53,0.16s0.19,0.25,0.19,0.44
			s-0.06,0.34-0.19,0.45C13.76,15.37,13.58,15.42,13.35,15.42 M13.49,13.69h-1.8v3.55h0.69v-1.31h1.08c0.27,0,0.51-0.05,0.71-0.14
			c0.2-0.09,0.36-0.22,0.46-0.4c0.11-0.17,0.16-0.37,0.16-0.6c0-0.22-0.05-0.42-0.16-0.59c-0.11-0.17-0.26-0.3-0.45-0.39
			C13.99,13.74,13.76,13.69,13.49,13.69"/>
		<path class="st0" d="M15.43,23.58c0.01,0,0.03,0,0.09,0.02c0.03,0.01,0.07,0.02,0.1,0.02l0.12-0.03l0.39-0.03l0.31-0.04
			c0.22,0.03,0.34,0.04,0.39,0.04c0.04,0,0.18,0,0.18-0.06c0-0.02-0.01-0.06-0.08-0.14l-0.03-0.03l0.03-0.03l0.08-0.07
			c-0.04-0.08-0.08-0.14-0.13-0.16l-0.03-0.02l0.02-0.04l0.04-0.1l-0.1-0.05l-0.02-0.01l0-0.03l-0.04-0.36l-0.11-0.18l-0.01-0.01
			l0-0.01l-0.02-0.16l-0.06-0.12l-0.01-0.01v-0.01v-0.01h-0.02l0-0.04l-0.02-0.21c0,0,0-0.02-0.05-0.08L16.4,21.5
			c-0.01-0.01-0.02-0.03-0.07-0.06c-0.03-0.02-0.09-0.05-0.16-0.09l-0.08,0.04l-0.06,0.1l-0.24,0.34l-0.06,0.11
			c-0.01,0.02-0.05,0.08-0.23,0.26l-0.04,0.15l-0.01,0.02l-0.02,0.01l-0.19,0.1c-0.05,0.24-0.15,0.39-0.3,0.44l-0.09,0.28
			l-0.01,0.02l-0.02,0.01l-0.17,0.06v0.07l-0.02,0.09c0.09,0.03,0.16,0.06,0.2,0.09l0.11-0.01l0.21,0.05
			c0.05,0.01,0.07,0.02,0.08,0.02c0.02,0,0.06-0.01,0.12-0.02C15.4,23.58,15.42,23.58,15.43,23.58 M18.75,26.44l-0.03-0.02
			l-0.15-0.12H18.5h-0.02l-0.01-0.01l-0.12-0.09h-0.08h-0.03l-0.01-0.02l-0.08-0.16l-0.08-0.04l-0.01-0.01l-0.01-0.01
			c-0.07-0.15-0.16-0.27-0.25-0.35l-0.01-0.01v-0.02V25.5l-0.08-0.07l-0.02-0.01l0-0.02l-0.01-0.14l-0.14-0.15l-0.22-0.51
			l-0.06-0.08l-0.01-0.01l0-0.01l-0.03-0.25c0-0.01-0.01-0.05-0.12-0.21l-0.01-0.01v-0.01v-0.16h-0.06l-0.12,0.08l-0.02,0.01
			l-0.02,0l-0.18-0.04l-0.12,0.08L16.55,24l-0.03-0.02l-0.03-0.02L16.42,24l-0.05,0.03l-0.02-0.05l-0.01-0.03
			c-0.01,0-0.03,0.01-0.05,0.02C16.23,23.99,16.17,24,16.11,24l-0.13-0.01h-0.15l-0.16,0.1l-0.02,0.01l-0.02,0l-0.18-0.04
			l-0.19,0.02v0.01v0.08l-0.07-0.04l-0.06-0.04l-0.1,0.05L15,24.16l-0.02-0.02l-0.07-0.06h-0.14l-0.15,0.06l-0.03,0.01l-0.02-0.02
			l-0.1-0.11l-0.04,0.03l-0.02,0.02l-0.02-0.01l-0.12-0.05c-0.07,0.04-0.2,0.16-0.42,0.48l-0.01,0.01l-0.02,0.01l-0.14,0.03
			c-0.4,0.61-0.42,0.61-0.45,0.62l-0.07,0.04l-0.27,0.35l-0.01,0.02h-0.02h-0.03l-0.22,0.37l-0.01,0.01l-0.01,0.01l-0.26,0.16
			l-0.02,0.01l-0.02-0.01l-0.2-0.05l-0.05-0.01l0.02-0.05l0.03-0.08V25.8v-0.02l0.01-0.01l0.05-0.06l-0.02-0.04l-0.03-0.06
			l0.06-0.01l0.18-0.02l0.1-0.06c0.1-0.04,0.15-0.11,0.18-0.22l0.01-0.03l0.03-0.01c0.12-0.03,0.18-0.09,0.2-0.19l0-0.02l0.02-0.01
			c0.15-0.09,0.25-0.22,0.3-0.42l0.01-0.02l0.02-0.01l0.12-0.05l0.3-0.47v-0.11c-0.04-0.04-0.08-0.09-0.1-0.15l-0.01-0.03l0.02-0.02
			l0.17-0.15v-0.05v-0.05l0.05,0L14,23.54l0.12-0.07l0.04-0.02l0.02,0.02l0.06-0.08c-0.01-0.02-0.02-0.03-0.02-0.06
			c0-0.03,0.02-0.06,0.16-0.15l0.04-0.02l0,0c0.02-0.05,0.04-0.1,0.06-0.15l-0.1-0.07l0.13-0.01l0.09-0.01l0.03-0.1l0.01-0.03
			l0.03,0c0.08-0.01,0.08-0.04,0.08-0.06V22.6v-0.02l0.02-0.01c0.15-0.12,0.22-0.24,0.22-0.34V22.2v-0.04l0.04-0.01l0.1-0.01
			l0.02-0.11l0.01-0.03L15.17,22l0.05-0.01l0.09-0.19l0.01-0.03l-0.02-0.05l0.06-0.01c0.05,0,0.11-0.03,0.12-0.15l0.01-0.07
			l0.06,0.03v-0.12v-0.05h0.05h0.02v-0.09v-0.02l0.01-0.01c0.01-0.01,0.05-0.05,0.11-0.1c0.05-0.05,0.09-0.11,0.1-0.19l0-0.01
			l0.01-0.01l0.09-0.09l-0.06-0.13l-0.01-0.03l0.02-0.02c0.1-0.13,0.19-0.19,0.29-0.2l0.04-0.07l0.04-0.06l0.04,0.06l0.07,0.1
			c0,0,0.02,0.02,0.07,0.05l0.16,0.08l0.02,0.01l0,0.03l0.02,0.23c0.04,0.04,0.08,0.1,0.11,0.18l0.06,0.02l0.03,0.01l0,0.03
			l0.02,0.22l0.08,0.29l0.13,0.22l0.09,0.33l0.02,0.2l0.13,0.18l0.02,0.02l-0.01,0.03l-0.02,0.05l0.09,0.1l0.01,0.01v0.02v0.15
			l0.02,0.13c0,0.04-0.01,0.07-0.04,0.11c0.09,0.2,0.19,0.3,0.3,0.3l0.18-0.04l0.24,0c0.08,0.02,0.13,0.03,0.18,0.03
			c0.07,0,0.13-0.02,0.17-0.05c0.07-0.06,0.1-0.07,0.12-0.07c0.02,0,0.05,0.01,0.19,0.09l0.2-0.01l0.05,0v0.05
			c0,0.07-0.03,0.12-0.09,0.14l-0.02,0.01l-0.02,0l-0.14-0.05l-0.16,0.13l-0.01,0.01l-0.02,0l-0.19-0.03
			c-0.09,0.06-0.18,0.09-0.29,0.09c-0.06,0-0.1,0.01-0.11,0.03l-0.02,0.03l-0.04-0.02c-0.07-0.03-0.15-0.05-0.21-0.05
			c-0.05,0-0.07,0.01-0.08,0.03c0.01,0.02,0.03,0.03,0.05,0.05l0.03,0.02l-0.01,0.03l-0.03,0.1l0.03,0.31l0.12,0.18l0.01,0.01
			l0,0.01l0.02,0.17l0.21,0.31l0.01,0.02l0,0.02l-0.03,0.12l0.13,0.12l0.24,0.4c0.11,0.13,0.18,0.22,0.21,0.29l0.16,0.08l0.02,0.01
			l0.01,0.01l0.06,0.15l0.06,0.05l0.05,0.04l-0.05,0.04l-0.13,0.1L18.75,26.44z"/>
		<path class="st1" d="M15.43,23.58c0.01,0,0.03,0,0.09,0.02c0.03,0.01,0.07,0.02,0.1,0.02l0.12-0.03l0.39-0.03l0.31-0.04
			c0.22,0.03,0.34,0.04,0.39,0.04c0.04,0,0.18,0,0.18-0.06c0-0.02-0.01-0.06-0.08-0.14l-0.03-0.03l0.03-0.03l0.08-0.07
			c-0.04-0.08-0.08-0.14-0.13-0.16l-0.03-0.02l0.02-0.04l0.04-0.1l-0.1-0.05l-0.02-0.01l0-0.03l-0.04-0.36l-0.11-0.18l-0.01-0.01
			l0-0.01l-0.02-0.16l-0.06-0.12l-0.01-0.01v-0.01v-0.01h-0.02l0-0.04l-0.02-0.21c0,0,0-0.02-0.05-0.08L16.4,21.5
			c-0.01-0.01-0.02-0.03-0.07-0.06c-0.03-0.02-0.09-0.05-0.16-0.09l-0.08,0.04l-0.06,0.1l-0.24,0.34l-0.06,0.11
			c-0.01,0.02-0.05,0.08-0.23,0.26l-0.04,0.15l-0.01,0.02l-0.02,0.01l-0.19,0.1c-0.05,0.24-0.15,0.39-0.3,0.44l-0.09,0.28
			l-0.01,0.02l-0.02,0.01l-0.17,0.06v0.07l-0.02,0.09c0.09,0.03,0.16,0.06,0.2,0.09l0.11-0.01l0.21,0.05
			c0.05,0.01,0.07,0.02,0.08,0.02c0.02,0,0.06-0.01,0.12-0.02C15.4,23.58,15.42,23.58,15.43,23.58z M18.75,26.44l-0.03-0.02
			l-0.15-0.12H18.5h-0.02l-0.01-0.01l-0.12-0.09h-0.08h-0.03l-0.01-0.02l-0.08-0.16l-0.08-0.04l-0.01-0.01l-0.01-0.01
			c-0.07-0.15-0.16-0.27-0.25-0.35l-0.01-0.01v-0.02V25.5l-0.08-0.07l-0.02-0.01l0-0.02l-0.01-0.14l-0.14-0.15l-0.22-0.51
			l-0.06-0.08l-0.01-0.01l0-0.01l-0.03-0.25c0-0.01-0.01-0.05-0.12-0.21l-0.01-0.01v-0.01v-0.16h-0.06l-0.12,0.08l-0.02,0.01
			l-0.02,0l-0.18-0.04l-0.12,0.08L16.55,24l-0.03-0.02l-0.03-0.02L16.42,24l-0.05,0.03l-0.02-0.05l-0.01-0.03
			c-0.01,0-0.03,0.01-0.05,0.02C16.23,23.99,16.17,24,16.11,24l-0.13-0.01h-0.15l-0.16,0.1l-0.02,0.01l-0.02,0l-0.18-0.04
			l-0.19,0.02v0.01v0.08l-0.07-0.04l-0.06-0.04l-0.1,0.05L15,24.16l-0.02-0.02l-0.07-0.06h-0.14l-0.15,0.06l-0.03,0.01l-0.02-0.02
			l-0.1-0.11l-0.04,0.03l-0.02,0.02l-0.02-0.01l-0.12-0.05c-0.07,0.04-0.2,0.16-0.42,0.48l-0.01,0.01l-0.02,0.01l-0.14,0.03
			c-0.4,0.61-0.42,0.61-0.45,0.62l-0.07,0.04l-0.27,0.35l-0.01,0.02h-0.02h-0.03l-0.22,0.37l-0.01,0.01l-0.01,0.01l-0.26,0.16
			l-0.02,0.01l-0.02-0.01l-0.2-0.05l-0.05-0.01l0.02-0.05l0.03-0.08V25.8v-0.02l0.01-0.01l0.05-0.06l-0.02-0.04l-0.03-0.06
			l0.06-0.01l0.18-0.02l0.1-0.06c0.1-0.04,0.15-0.11,0.18-0.22l0.01-0.03l0.03-0.01c0.12-0.03,0.18-0.09,0.2-0.19l0-0.02l0.02-0.01
			c0.15-0.09,0.25-0.22,0.3-0.42l0.01-0.02l0.02-0.01l0.12-0.05l0.3-0.47v-0.11c-0.04-0.04-0.08-0.09-0.1-0.15l-0.01-0.03l0.02-0.02
			l0.17-0.15v-0.05v-0.05l0.05,0L14,23.54l0.12-0.07l0.04-0.02l0.02,0.02l0.06-0.08c-0.01-0.02-0.02-0.03-0.02-0.06
			c0-0.03,0.02-0.06,0.16-0.15l0.04-0.02l0,0c0.02-0.05,0.04-0.1,0.06-0.15l-0.1-0.07l0.13-0.01l0.09-0.01l0.03-0.1l0.01-0.03
			l0.03,0c0.08-0.01,0.08-0.04,0.08-0.06V22.6v-0.02l0.02-0.01c0.15-0.12,0.22-0.24,0.22-0.34V22.2v-0.04l0.04-0.01l0.1-0.01
			l0.02-0.11l0.01-0.03L15.17,22l0.05-0.01l0.09-0.19l0.01-0.03l-0.02-0.05l0.06-0.01c0.05,0,0.11-0.03,0.12-0.15l0.01-0.07
			l0.06,0.03v-0.12v-0.05h0.05h0.02v-0.09v-0.02l0.01-0.01c0.01-0.01,0.05-0.05,0.11-0.1c0.05-0.05,0.09-0.11,0.1-0.19l0-0.01
			l0.01-0.01l0.09-0.09l-0.06-0.13l-0.01-0.03l0.02-0.02c0.1-0.13,0.19-0.19,0.29-0.2l0.04-0.07l0.04-0.06l0.04,0.06l0.07,0.1
			c0,0,0.02,0.02,0.07,0.05l0.16,0.08l0.02,0.01l0,0.03l0.02,0.23c0.04,0.04,0.08,0.1,0.11,0.18l0.06,0.02l0.03,0.01l0,0.03
			l0.02,0.22l0.08,0.29l0.13,0.22l0.09,0.33l0.02,0.2l0.13,0.18l0.02,0.02l-0.01,0.03l-0.02,0.05l0.09,0.1l0.01,0.01v0.02v0.15
			l0.02,0.13c0,0.04-0.01,0.07-0.04,0.11c0.09,0.2,0.19,0.3,0.3,0.3l0.18-0.04l0.24,0c0.08,0.02,0.13,0.03,0.18,0.03
			c0.07,0,0.13-0.02,0.17-0.05c0.07-0.06,0.1-0.07,0.12-0.07c0.02,0,0.05,0.01,0.19,0.09l0.2-0.01l0.05,0v0.05
			c0,0.07-0.03,0.12-0.09,0.14l-0.02,0.01l-0.02,0l-0.14-0.05l-0.16,0.13l-0.01,0.01l-0.02,0l-0.19-0.03
			c-0.09,0.06-0.18,0.09-0.29,0.09c-0.06,0-0.1,0.01-0.11,0.03l-0.02,0.03l-0.04-0.02c-0.07-0.03-0.15-0.05-0.21-0.05
			c-0.05,0-0.07,0.01-0.08,0.03c0.01,0.02,0.03,0.03,0.05,0.05l0.03,0.02l-0.01,0.03l-0.03,0.1l0.03,0.31l0.12,0.18l0.01,0.01
			l0,0.01l0.02,0.17l0.21,0.31l0.01,0.02l0,0.02l-0.03,0.12l0.13,0.12l0.24,0.4c0.11,0.13,0.18,0.22,0.21,0.29l0.16,0.08l0.02,0.01
			l0.01,0.01l0.06,0.15l0.06,0.05l0.05,0.04l-0.05,0.04l-0.13,0.1L18.75,26.44z"/>
		<path class="st0" d="M21.79,26.14c-0.04,0-0.09-0.02-0.13-0.06l-0.15-0.02c-0.02,0-0.04,0.01-0.08,0.02l-0.02,0.01l-0.02-0.01
			l-0.12-0.04l-0.08,0.03l-0.02,0.01l-0.02-0.01l-0.2-0.09l-0.1-0.07c-0.01-0.01-0.05-0.03-0.21-0.08l-0.02-0.01l-0.01-0.02
			l-0.05-0.1c-0.08-0.02-0.22-0.06-0.24-0.07c-0.03-0.01-0.05-0.05-0.07-0.15c-0.01-0.06-0.03-0.1-0.06-0.12
			c-0.04-0.03-0.08-0.06-0.1-0.1c-0.02-0.04-0.05-0.09-0.07-0.16c-0.02-0.06-0.04-0.11-0.07-0.16c-0.04-0.07-0.08-0.13-0.1-0.2
			c-0.02-0.07-0.03-0.13-0.03-0.2v-0.03l0.02-0.3c-0.04-0.07-0.06-0.15-0.06-0.22l0.06-0.18l0-0.15v-0.03l0.02-0.01l0.04-0.02
			l0.02-0.14l0.12-0.46l0.09-0.22l0.01-0.02l0.02,0l0.01,0l0.02-0.12l0-0.02l0.03-0.02c0,0,0.02-0.02,0.04-0.13
			c0.01-0.12,0.06-0.21,0.13-0.29c0.08-0.08,0.09-0.12,0.09-0.14c0-0.04-0.01-0.08-0.03-0.1l-0.04-0.05l0.06-0.02l0.1-0.03
			c0.06-0.09,0.12-0.15,0.18-0.2l0.05-0.19l0-0.02l0.02-0.01l0.11-0.07l0.03-0.14l0.01-0.03l0.03-0.01
			c0.12-0.03,0.21-0.08,0.25-0.15c0.06-0.09,0.13-0.15,0.21-0.17l0.05-0.05c0.01-0.02,0.05-0.04,0.22-0.1l0.02-0.01l0.02,0.01
			l0.08-0.08l0.04-0.04l0.03,0.04L22,20.69l0.07,0.01c0.1-0.04,0.21-0.06,0.32-0.06l0.2,0.03c0.02,0,0.04,0.02,0.09,0.04l0.31,0.11
			l0.7,0.44l0.01,0.01l0,0.01c0.03,0.08,0.07,0.14,0.12,0.18l0.01,0.01l0.01,0.01l0.06,0.19c0.06,0.15,0.09,0.26,0.09,0.32L24,22.24
			c-0.02,0.07-0.02,0.13-0.02,0.19l0.01,0.01l0,0.03c0,0.02-0.01,0.06-0.08,0.13c-0.04,0.05-0.07,0.09-0.09,0.11l-0.01,0.01l-0.02,0
			l-0.18,0.04l-0.02,0l-0.02-0.01l-0.06-0.05c-0.03-0.02-0.05-0.05-0.06-0.07l-0.03-0.05c-0.01-0.01-0.03-0.05-0.04-0.09
			c-0.01-0.04-0.02-0.07-0.03-0.11l0-0.16l-0.03-0.16l0-0.25l0.04-0.17c-0.11-0.19-0.26-0.31-0.43-0.35
			c-0.03-0.01-0.09-0.02-0.09-0.08c0,0-0.01-0.01-0.02-0.01c-0.02-0.01-0.04-0.03-0.06-0.04h-0.18h-0.02l-0.01-0.01l-0.13-0.1
			c-0.07,0-0.09,0.02-0.09,0.02l0,0.08l-0.07-0.05l-0.07-0.04l-0.07,0.05l-0.01,0.01l-0.02,0l-0.11-0.02l-0.08,0.06l-0.02,0.01
			l-0.02,0c-0.01,0-0.05-0.01-0.11-0.01c-0.04,0-0.08,0.01-0.12,0.02l-0.15,0.22l-0.27,0.27l-0.2,0.31l-0.01,0.01L20.99,22
			l-0.07,0.03l-0.08,0.24l0,0.01l-0.01,0.01l-0.12,0.1v0.11v0.01l-0.01,0.01l-0.17,0.29l-0.08,0.31l-0.01,0.03h-0.04h-0.01
			l0.03,0.13l0,0.02l-0.01,0.01l-0.09,0.17l0.02,0.05l0.03,0.06h-0.07h-0.01v0.1v0.02l-0.02,0.01l-0.02,0.01l0.01,0.36l-0.04,0.28
			c0.07,0.1,0.1,0.18,0.11,0.25l0.07,0.05l0.02,0.01v0.02v0.11l0.07,0.1l0.01,0.02l-0.01,0.02l-0.03,0.08l0.17,0.18l0.01,0.01
			l0,0.02l0.01,0.07l0.28,0.11l0.04,0.01l-0.01,0.04l-0.02,0.07l0.35,0.03l0.02,0l0.01,0.01l0.11,0.1l0.18-0.06l0.03-0.01l0.02,0.02
			l0.09,0.11l0.2-0.07c0.05-0.05,0.1-0.07,0.15-0.07c0.03,0,0.05,0.01,0.06,0.03l0.11-0.01l0.02,0l0.01,0.01l0.06,0.05l0.13-0.05
			l0.06,0c0.09,0,0.14-0.02,0.18-0.06c0.05-0.06,0.13-0.09,0.24-0.09c0.03,0,0.06,0,0.11,0.01c0.03-0.06,0.1-0.1,0.22-0.11
			c0.06-0.06,0.14-0.1,0.26-0.14c0.04,0,0.1-0.01,0.27-0.09l0.07-0.11l0.01-0.02l0.02-0.01c0.02,0,0.07-0.02,0.26-0.11l0.1-0.13
			l0.01-0.01l0.01-0.01l0.16-0.07l0.52-0.54l0.19-0.11l0.03-0.01l0.02,0.02l0.09,0.06l0.06,0.04l-0.06,0.04l-0.15,0.09l0.03,0.12
			c0,0.12-0.09,0.18-0.26,0.18l-0.07,0.18l-0.01,0.01l-0.01,0.01l-0.32,0.21c-0.06,0.09-0.12,0.17-0.19,0.24l-0.01,0.01H24.3
			c-0.09,0-0.18,0.04-0.27,0.11c-0.1,0.08-0.17,0.13-0.2,0.16c-0.04,0.03-0.08,0.05-0.12,0.07c-0.04,0.02-0.09,0.04-0.14,0.05
			c-0.04,0.01-0.1,0.04-0.17,0.08c-0.12,0.07-0.15,0.07-0.16,0.08c-0.02,0-0.05,0-0.08,0h-0.06c-0.11,0-0.26,0.07-0.45,0.22
			l-0.02,0.01l-0.02,0l-0.14-0.03l-0.11,0.03c-0.09,0.03-0.15,0.05-0.19,0.05c-0.05,0-0.1-0.01-0.16-0.02
			c-0.07-0.02-0.09-0.02-0.09-0.02h0C21.88,26.12,21.83,26.14,21.79,26.14"/>
		<path class="st1" d="M21.79,26.14c-0.04,0-0.09-0.02-0.13-0.06l-0.15-0.02c-0.02,0-0.04,0.01-0.08,0.02l-0.02,0.01l-0.02-0.01
			l-0.12-0.04l-0.08,0.03l-0.02,0.01l-0.02-0.01l-0.2-0.09l-0.1-0.07c-0.01-0.01-0.05-0.03-0.21-0.08l-0.02-0.01l-0.01-0.02
			l-0.05-0.1c-0.08-0.02-0.22-0.06-0.24-0.07c-0.03-0.01-0.05-0.05-0.07-0.15c-0.01-0.06-0.03-0.1-0.06-0.12
			c-0.04-0.03-0.08-0.06-0.1-0.1c-0.02-0.04-0.05-0.09-0.07-0.16c-0.02-0.06-0.04-0.11-0.07-0.16c-0.04-0.07-0.08-0.13-0.1-0.2
			c-0.02-0.07-0.03-0.13-0.03-0.2v-0.03l0.02-0.3c-0.04-0.07-0.06-0.15-0.06-0.22l0.06-0.18l0-0.15v-0.03l0.02-0.01l0.04-0.02
			l0.02-0.14l0.12-0.46l0.09-0.22l0.01-0.02l0.02,0l0.01,0l0.02-0.12l0-0.02l0.03-0.02c0,0,0.02-0.02,0.04-0.13
			c0.01-0.12,0.06-0.21,0.13-0.29c0.08-0.08,0.09-0.12,0.09-0.14c0-0.04-0.01-0.08-0.03-0.1l-0.04-0.05l0.06-0.02l0.1-0.03
			c0.06-0.09,0.12-0.15,0.18-0.2l0.05-0.19l0-0.02l0.02-0.01l0.11-0.07l0.03-0.14l0.01-0.03l0.03-0.01
			c0.12-0.03,0.21-0.08,0.25-0.15c0.06-0.09,0.13-0.15,0.21-0.17l0.05-0.05c0.01-0.02,0.05-0.04,0.22-0.1l0.02-0.01l0.02,0.01
			l0.08-0.08l0.04-0.04l0.03,0.04L22,20.69l0.07,0.01c0.1-0.04,0.21-0.06,0.32-0.06l0.2,0.03c0.02,0,0.04,0.02,0.09,0.04l0.31,0.11
			l0.7,0.44l0.01,0.01l0,0.01c0.03,0.08,0.07,0.14,0.12,0.18l0.01,0.01l0.01,0.01l0.06,0.19c0.06,0.15,0.09,0.26,0.09,0.32L24,22.24
			c-0.02,0.07-0.02,0.13-0.02,0.19l0.01,0.01l0,0.03c0,0.02-0.01,0.06-0.08,0.13c-0.04,0.05-0.07,0.09-0.09,0.11l-0.01,0.01l-0.02,0
			l-0.18,0.04l-0.02,0l-0.02-0.01l-0.06-0.05c-0.03-0.02-0.05-0.05-0.06-0.07l-0.03-0.05c-0.01-0.01-0.03-0.05-0.04-0.09
			c-0.01-0.04-0.02-0.07-0.03-0.11l0-0.16l-0.03-0.16l0-0.25l0.04-0.17c-0.11-0.19-0.26-0.31-0.43-0.35
			c-0.03-0.01-0.09-0.02-0.09-0.08c0,0-0.01-0.01-0.02-0.01c-0.02-0.01-0.04-0.03-0.06-0.04h-0.18h-0.02l-0.01-0.01l-0.13-0.1
			c-0.07,0-0.09,0.02-0.09,0.02l0,0.08l-0.07-0.05l-0.07-0.04l-0.07,0.05l-0.01,0.01l-0.02,0l-0.11-0.02l-0.08,0.06l-0.02,0.01
			l-0.02,0c-0.01,0-0.05-0.01-0.11-0.01c-0.04,0-0.08,0.01-0.12,0.02l-0.15,0.22l-0.27,0.27l-0.2,0.31l-0.01,0.01L20.99,22
			l-0.07,0.03l-0.08,0.24l0,0.01l-0.01,0.01l-0.12,0.1v0.11v0.01l-0.01,0.01l-0.17,0.29l-0.08,0.31l-0.01,0.03h-0.04h-0.01
			l0.03,0.13l0,0.02l-0.01,0.01l-0.09,0.17l0.02,0.05l0.03,0.06h-0.07h-0.01v0.1v0.02l-0.02,0.01l-0.02,0.01l0.01,0.36l-0.04,0.28
			c0.07,0.1,0.1,0.18,0.11,0.25l0.07,0.05l0.02,0.01v0.02v0.11l0.07,0.1l0.01,0.02l-0.01,0.02l-0.03,0.08l0.17,0.18l0.01,0.01
			l0,0.02l0.01,0.07l0.28,0.11l0.04,0.01l-0.01,0.04l-0.02,0.07l0.35,0.03l0.02,0l0.01,0.01l0.11,0.1l0.18-0.06l0.03-0.01l0.02,0.02
			l0.09,0.11l0.2-0.07c0.05-0.05,0.1-0.07,0.15-0.07c0.03,0,0.05,0.01,0.06,0.03l0.11-0.01l0.02,0l0.01,0.01l0.06,0.05l0.13-0.05
			l0.06,0c0.09,0,0.14-0.02,0.18-0.06c0.05-0.06,0.13-0.09,0.24-0.09c0.03,0,0.06,0,0.11,0.01c0.03-0.06,0.1-0.1,0.22-0.11
			c0.06-0.06,0.14-0.1,0.26-0.14c0.04,0,0.1-0.01,0.27-0.09l0.07-0.11l0.01-0.02l0.02-0.01c0.02,0,0.07-0.02,0.26-0.11l0.1-0.13
			l0.01-0.01l0.01-0.01l0.16-0.07l0.52-0.54l0.19-0.11l0.03-0.01l0.02,0.02l0.09,0.06l0.06,0.04l-0.06,0.04l-0.15,0.09l0.03,0.12
			c0,0.12-0.09,0.18-0.26,0.18l-0.07,0.18l-0.01,0.01l-0.01,0.01l-0.32,0.21c-0.06,0.09-0.12,0.17-0.19,0.24l-0.01,0.01H24.3
			c-0.09,0-0.18,0.04-0.27,0.11c-0.1,0.08-0.17,0.13-0.2,0.16c-0.04,0.03-0.08,0.05-0.12,0.07c-0.04,0.02-0.09,0.04-0.14,0.05
			c-0.04,0.01-0.1,0.04-0.17,0.08c-0.12,0.07-0.15,0.07-0.16,0.08c-0.02,0-0.05,0-0.08,0h-0.06c-0.11,0-0.26,0.07-0.45,0.22
			l-0.02,0.01l-0.02,0l-0.14-0.03l-0.11,0.03c-0.09,0.03-0.15,0.05-0.19,0.05c-0.05,0-0.1-0.01-0.16-0.02
			c-0.07-0.02-0.09-0.02-0.09-0.02h0C21.88,26.12,21.83,26.14,21.79,26.14z"/>
		<path class="st0" d="M27.15,25.52l0.02,0.02c0.07,0.06,0.11,0.07,0.13,0.07h0.68v-0.02l0.03-0.01l0.11-0.05
			c0.02-0.01,0.08-0.02,0.31-0.04l0.07-0.08l0.08-0.09v0.06l0,0h0.03c0.22,0,0.25-0.05,0.25-0.07l0.01-0.03l0.03-0.01
			c0.08-0.02,0.08-0.05,0.08-0.07v-0.02v-0.05H29l-0.18-0.34l-0.12-0.15l-0.01-0.01l0-0.01l-0.03-0.16l-0.28-0.66
			c-0.02-0.07-0.03-0.2-0.03-0.4v-0.04l0.04,0c0.11-0.01,0.15-0.06,0.16-0.1l0.02-0.05l0.05,0.03c0.18,0.1,0.21,0.15,0.22,0.19
			l0.11,0.51l0.09,0.12l0.07,0.27l0.22,0.29l0.01,0.01v0.01v0.04c0,0.15,0.03,0.23,0.09,0.23c0.01,0,0.04,0,0.11-0.03l0.01-0.02
			l0.01-0.03h0.03h0.07l0.08-0.04l0.05-0.12l0.01-0.02l0.02-0.01l0.18-0.04l0-0.01L30,24.58l0.03-0.01
			c0.03-0.01,0.03-0.02,0.03-0.02c0.01-0.08,0.07-0.08,0.09-0.08s0.04,0,0.05,0.01c0-0.01,0-0.01,0-0.01c0-0.02,0-0.02,0-0.03
			l-0.03-0.07h0.07h0.07l0.06-0.12l0.01-0.03h0.03h0.06l0.13-0.08c0.06-0.02,0.08-0.09,0.09-0.14l0-0.03l0.02-0.01l0.1-0.04
			c0.02-0.08,0.03-0.11,0.05-0.13c0.02-0.02,0.05-0.04,0.1-0.06C31,23.7,31,23.69,31,23.68v-0.02v-0.03l0.02-0.01
			c0.04-0.02,0.07-0.06,0.07-0.1c0.01-0.07,0.02-0.11,0.05-0.13l-0.02-0.03h0.08h0.03c0.02,0,0.03-0.03,0.03-0.08v-0.03l0.02-0.01
			c0.01-0.01,0.02-0.01,0.02-0.05v-0.02l0.01-0.01l0.08-0.08v-0.05v-0.01l0.01-0.01c0.09-0.17,0.13-0.36,0.13-0.57
			c0-0.17-0.06-0.37-0.18-0.6c-0.11-0.21-0.23-0.32-0.36-0.32H31l-0.02-0.01l-0.29-0.22l-0.59-0.1l-0.19,0.06l-0.01,0l-0.01,0
			l-0.11-0.01c-0.04-0.01-0.06-0.02-0.08-0.02c0,0-0.01,0-0.06,0.02l-0.04,0.01l-0.02-0.04l-0.01-0.02l-0.12,0.05l-0.01,0.01
			l-0.01,0l-0.15-0.03l-0.18,0.07c-0.01,0-0.04,0.02-0.11,0.09l-0.01,0.01h-0.02c-0.09,0-0.17,0.02-0.23,0.05
			c-0.07,0.04-0.1,0.07-0.12,0.09l-0.02,0.02l-0.02,0l-0.12-0.01l-0.12,0.03l-0.01,0l-0.01,0l-0.08-0.02l-0.1,0.12l-0.02,0.02
			l-0.03,0l-0.07-0.01c-0.06,0-0.14,0.07-0.22,0.2l-0.09,0.14V21.9c-0.02,0.01-0.04,0.03-0.07,0.06l-0.1,0.08l-0.2,0.31l-0.11,0.33
			l-0.01,0.03H27.2h-0.08h-0.03l-0.01-0.02l-0.07-0.13H27c-0.15,0.07-0.23,0.18-0.23,0.32v0.08v0.02l-0.01,0.01l-0.14,0.13v0.06
			v0.02l-0.01,0.01c-0.07,0.07-0.13,0.21-0.2,0.4c-0.01,0.12-0.02,0.2-0.04,0.24l-0.12,0.27l0.02,0.4l0,0.01l-0.01,0.01l-0.07,0.11
			l0.05,0.06l0.01,0.01l0,0.01l0.08,0.34l0.23,0.24l0.01,0.01v0.02v0.05c0.04,0.03,0.07,0.04,0.1,0.04h0.06h0.01l0.01,0l0.32,0.15
			c0.02-0.02,0.03-0.04,0.05-0.05L27.15,25.52z M30.73,26.53L30.7,26.5l-0.15-0.11l-0.03,0.03l-0.03,0.02l-0.03-0.02l-0.17-0.1
			l-0.15-0.02l-0.01,0l-0.01-0.01c-0.09-0.08-0.21-0.15-0.34-0.22l-0.01-0.01l-0.01-0.01l-0.11-0.17h-0.11h-0.02l-0.01-0.02
			l-0.08-0.1c-0.01-0.02-0.05-0.05-0.13-0.08l-0.02-0.01l-0.01-0.02c-0.04-0.13-0.06-0.15-0.06-0.16c0,0-0.01-0.01-0.07-0.02
			l-0.21,0.13l-0.01,0.01h-0.01h-0.09l-0.13,0.13l-0.02,0.02l-0.02,0l-0.11-0.02l-0.11,0.08l-0.01,0.01l-0.02,0l-0.12-0.02
			l-0.16,0.08l-0.01,0.01h-0.01h-0.13l-0.2,0.13l-0.02,0.01l-0.02-0.01l-0.15-0.06l-0.14,0.06l-0.02,0.01l-0.02-0.01l-0.17-0.06
			l-0.08,0.02l-0.01,0l-0.01,0l-0.31-0.08l-0.15,0h-0.02l-0.01-0.02l-0.08-0.09l-0.09,0.02l-0.03,0l-0.02-0.02l-0.04-0.06
			l-0.05-0.15l-0.07-0.07l-0.26-0.32l-0.09-0.08l-0.02-0.02l0.01-0.03l0.03-0.12l-0.09-0.14l-0.01-0.01l0-0.02l0.04-0.25l-0.02-0.41
			v-0.01l0-0.01l0.08-0.18l0.01-0.02l0.02,0c0.03-0.01,0.07-0.03,0.07-0.12c0-0.05,0-0.1-0.01-0.14C26.01,23.6,26,23.57,26,23.55
			c0-0.05,0.02-0.11,0.09-0.16l-0.05-0.04l0.08-0.03l0.04-0.01v-0.13v-0.03l0.02-0.01c0.1-0.06,0.15-0.18,0.16-0.37l-0.01-0.01
			l-0.03-0.04l0.04-0.03l0.09-0.07l0.06-0.04l0.02-0.09l0-0.01l0.01-0.01l0.19-0.24h-0.03l0.05-0.07l0.08-0.12l0.03-0.05
			c0-0.03-0.01-0.05-0.01-0.07c0-0.03,0.01-0.1,0.14-0.1c0.02,0,0.03,0,0.05,0c0.09-0.12,0.17-0.19,0.23-0.22l-0.01-0.03l-0.01-0.04
			l0.04-0.01l0.07-0.03l0.01,0l0.04-0.13l0.01-0.03l0.03,0l0.09-0.01l0.63-0.29l0.14-0.06l-0.07,0.1l0.44-0.04l0.04,0l0.01,0.04
			c0.01,0.03,0.01,0.03,0.02,0.03c0.03,0,0.06-0.01,0.1-0.02l0.55-0.16l0.5-0.06c0.46,0.04,0.76,0.07,0.92,0.1
			c0.15,0.03,0.24,0.08,0.27,0.15h0.02c0.16,0,0.23,0.07,0.26,0.13l0.02,0l0.04,0.01v0.04v0.05c0.03,0.07,0.09,0.15,0.18,0.23
			c0.1,0.1,0.17,0.19,0.22,0.27c0.05,0.09,0.07,0.2,0.07,0.34v0.26c-0.03,0.23-0.05,0.42-0.06,0.58l0,0.02l-0.02,0.01
			c-0.16,0.12-0.18,0.15-0.19,0.16c-0.01,0.01-0.02,0.04-0.02,0.1c-0.01,0.06-0.02,0.1-0.02,0.13l-0.01,0.02l-0.02,0.01l-0.08,0.03
			l-0.04,0.14l-0.01,0.03l-0.03,0.01l-0.06,0.01l0.02,0.03l-0.04,0.02c-0.02,0.01-0.06,0.04-0.12,0.12c-0.06,0.07-0.09,0.1-0.1,0.11
			l-0.11,0.22l-0.01,0.01l-0.01,0.01l-0.07,0.06c-0.01,0.01-0.03,0.02-0.07,0.11l-0.01,0.01l-0.01,0.01l-0.28,0.13l-0.15,0.23
			l-0.01,0.01l-0.01,0.01l-0.09,0.03l-0.05,0.06c-0.01,0.02-0.03,0.04-0.41,0.19c-0.06,0.13-0.1,0.18-0.13,0.21v0.11L30,25.68
			l0.01,0.01v0.02v0.05l0.03,0.04l0.14-0.05l0.02-0.01l0.02,0.01l0.21,0.15l0.36,0.12l0.54,0.03L31.4,26l0.04-0.03l0.03,0.04
			l0.03,0.04l0.41-0.09l0.14,0l0.05-0.05l0.01-0.01l0.01,0l0.7-0.18v0v-0.05h0.05c0.11,0,0.11-0.05,0.11-0.07v-0.04l0.04-0.01
			l0.24-0.04l0.04-0.01l0.01,0.04c0,0,0,0.01,0.02,0.03c0.03,0.03,0.04,0.05,0.04,0.07c0,0.06-0.03,0.11-0.09,0.17l-0.01,0.01
			l-0.01,0l-0.12,0.04c-0.02,0.01-0.07,0.03-0.18,0.12L32.93,26l-0.03-0.01l-0.05-0.02l-0.33,0.1l-0.1,0.13l-0.02,0.02l-0.02,0
			l-0.03,0l-0.01,0.03l-0.04-0.01l-0.07-0.01l-0.07,0.05l-0.01,0.01h-0.02h-0.11l-0.46,0.18l-0.05,0.02l-0.01-0.05
			c-0.01-0.03-0.06-0.03-0.09-0.03l-0.18,0.07l-0.02,0.01l-0.02-0.01l-0.12-0.06l-0.1,0.06l-0.01,0.01l-0.02,0l-0.13-0.02
			l-0.06,0.06L30.73,26.53z"/>
		<path class="st1" d="M27.15,25.52l0.02,0.02c0.07,0.06,0.11,0.07,0.13,0.07h0.68v-0.02l0.03-0.01l0.11-0.05
			c0.02-0.01,0.08-0.02,0.31-0.04l0.07-0.08l0.08-0.09v0.06l0,0h0.03c0.22,0,0.25-0.05,0.25-0.07l0.01-0.03l0.03-0.01
			c0.08-0.02,0.08-0.05,0.08-0.07v-0.02v-0.05H29l-0.18-0.34l-0.12-0.15l-0.01-0.01l0-0.01l-0.03-0.16l-0.28-0.66
			c-0.02-0.07-0.03-0.2-0.03-0.4v-0.04l0.04,0c0.11-0.01,0.15-0.06,0.16-0.1l0.02-0.05l0.05,0.03c0.18,0.1,0.21,0.15,0.22,0.19
			l0.11,0.51l0.09,0.12l0.07,0.27l0.22,0.29l0.01,0.01v0.01v0.04c0,0.15,0.03,0.23,0.09,0.23c0.01,0,0.04,0,0.11-0.03l0.01-0.02
			l0.01-0.03h0.03h0.07l0.08-0.04l0.05-0.12l0.01-0.02l0.02-0.01l0.18-0.04l0-0.01L30,24.58l0.03-0.01
			c0.03-0.01,0.03-0.02,0.03-0.02c0.01-0.08,0.07-0.08,0.09-0.08s0.04,0,0.05,0.01c0-0.01,0-0.01,0-0.01c0-0.02,0-0.02,0-0.03
			l-0.03-0.07h0.07h0.07l0.06-0.12l0.01-0.03h0.03h0.06l0.13-0.08c0.06-0.02,0.08-0.09,0.09-0.14l0-0.03l0.02-0.01l0.1-0.04
			c0.02-0.08,0.03-0.11,0.05-0.13c0.02-0.02,0.05-0.04,0.1-0.06C31,23.7,31,23.69,31,23.68v-0.02v-0.03l0.02-0.01
			c0.04-0.02,0.07-0.06,0.07-0.1c0.01-0.07,0.02-0.11,0.05-0.13l-0.02-0.03h0.08h0.03c0.02,0,0.03-0.03,0.03-0.08v-0.03l0.02-0.01
			c0.01-0.01,0.02-0.01,0.02-0.05v-0.02l0.01-0.01l0.08-0.08v-0.05v-0.01l0.01-0.01c0.09-0.17,0.13-0.36,0.13-0.57
			c0-0.17-0.06-0.37-0.18-0.6c-0.11-0.21-0.23-0.32-0.36-0.32H31l-0.02-0.01l-0.29-0.22l-0.59-0.1l-0.19,0.06l-0.01,0l-0.01,0
			l-0.11-0.01c-0.04-0.01-0.06-0.02-0.08-0.02c0,0-0.01,0-0.06,0.02l-0.04,0.01l-0.02-0.04l-0.01-0.02l-0.12,0.05l-0.01,0.01
			l-0.01,0l-0.15-0.03l-0.18,0.07c-0.01,0-0.04,0.02-0.11,0.09l-0.01,0.01h-0.02c-0.09,0-0.17,0.02-0.23,0.05
			c-0.07,0.04-0.1,0.07-0.12,0.09l-0.02,0.02l-0.02,0l-0.12-0.01l-0.12,0.03l-0.01,0l-0.01,0l-0.08-0.02l-0.1,0.12l-0.02,0.02
			l-0.03,0l-0.07-0.01c-0.06,0-0.14,0.07-0.22,0.2l-0.09,0.14V21.9c-0.02,0.01-0.04,0.03-0.07,0.06l-0.1,0.08l-0.2,0.31l-0.11,0.33
			l-0.01,0.03H27.2h-0.08h-0.03l-0.01-0.02l-0.07-0.13H27c-0.15,0.07-0.23,0.18-0.23,0.32v0.08v0.02l-0.01,0.01l-0.14,0.13v0.06
			v0.02l-0.01,0.01c-0.07,0.07-0.13,0.21-0.2,0.4c-0.01,0.12-0.02,0.2-0.04,0.24l-0.12,0.27l0.02,0.4l0,0.01l-0.01,0.01l-0.07,0.11
			l0.05,0.06l0.01,0.01l0,0.01l0.08,0.34l0.23,0.24l0.01,0.01v0.02v0.05c0.04,0.03,0.07,0.04,0.1,0.04h0.06h0.01l0.01,0l0.32,0.15
			c0.02-0.02,0.03-0.04,0.05-0.05L27.15,25.52z M30.73,26.53L30.7,26.5l-0.15-0.11l-0.03,0.03l-0.03,0.02l-0.03-0.02l-0.17-0.1
			l-0.15-0.02l-0.01,0l-0.01-0.01c-0.09-0.08-0.21-0.15-0.34-0.22l-0.01-0.01l-0.01-0.01l-0.11-0.17h-0.11h-0.02l-0.01-0.02
			l-0.08-0.1c-0.01-0.02-0.05-0.05-0.13-0.08l-0.02-0.01l-0.01-0.02c-0.04-0.13-0.06-0.15-0.06-0.16c0,0-0.01-0.01-0.07-0.02
			l-0.21,0.13l-0.01,0.01h-0.01h-0.09l-0.13,0.13l-0.02,0.02l-0.02,0l-0.11-0.02l-0.11,0.08l-0.01,0.01l-0.02,0l-0.12-0.02
			l-0.16,0.08l-0.01,0.01h-0.01h-0.13l-0.2,0.13l-0.02,0.01l-0.02-0.01l-0.15-0.06l-0.14,0.06l-0.02,0.01l-0.02-0.01l-0.17-0.06
			l-0.08,0.02l-0.01,0l-0.01,0l-0.31-0.08l-0.15,0h-0.02l-0.01-0.02l-0.08-0.09l-0.09,0.02l-0.03,0l-0.02-0.02l-0.04-0.06
			l-0.05-0.15l-0.07-0.07l-0.26-0.32l-0.09-0.08l-0.02-0.02l0.01-0.03l0.03-0.12l-0.09-0.14l-0.01-0.01l0-0.02l0.04-0.25l-0.02-0.41
			v-0.01l0-0.01l0.08-0.18l0.01-0.02l0.02,0c0.03-0.01,0.07-0.03,0.07-0.12c0-0.05,0-0.1-0.01-0.14C26.01,23.6,26,23.57,26,23.55
			c0-0.05,0.02-0.11,0.09-0.16l-0.05-0.04l0.08-0.03l0.04-0.01v-0.13v-0.03l0.02-0.01c0.1-0.06,0.15-0.18,0.16-0.37l-0.01-0.01
			l-0.03-0.04l0.04-0.03l0.09-0.07l0.06-0.04l0.02-0.09l0-0.01l0.01-0.01l0.19-0.24h-0.03l0.05-0.07l0.08-0.12l0.03-0.05
			c0-0.03-0.01-0.05-0.01-0.07c0-0.03,0.01-0.1,0.14-0.1c0.02,0,0.03,0,0.05,0c0.09-0.12,0.17-0.19,0.23-0.22l-0.01-0.03l-0.01-0.04
			l0.04-0.01l0.07-0.03l0.01,0l0.04-0.13l0.01-0.03l0.03,0l0.09-0.01l0.63-0.29l0.14-0.06l-0.07,0.1l0.44-0.04l0.04,0l0.01,0.04
			c0.01,0.03,0.01,0.03,0.02,0.03c0.03,0,0.06-0.01,0.1-0.02l0.55-0.16l0.5-0.06c0.46,0.04,0.76,0.07,0.92,0.1
			c0.15,0.03,0.24,0.08,0.27,0.15h0.02c0.16,0,0.23,0.07,0.26,0.13l0.02,0l0.04,0.01v0.04v0.05c0.03,0.07,0.09,0.15,0.18,0.23
			c0.1,0.1,0.17,0.19,0.22,0.27c0.05,0.09,0.07,0.2,0.07,0.34v0.26c-0.03,0.23-0.05,0.42-0.06,0.58l0,0.02l-0.02,0.01
			c-0.16,0.12-0.18,0.15-0.19,0.16c-0.01,0.01-0.02,0.04-0.02,0.1c-0.01,0.06-0.02,0.1-0.02,0.13l-0.01,0.02l-0.02,0.01l-0.08,0.03
			l-0.04,0.14l-0.01,0.03l-0.03,0.01l-0.06,0.01l0.02,0.03l-0.04,0.02c-0.02,0.01-0.06,0.04-0.12,0.12c-0.06,0.07-0.09,0.1-0.1,0.11
			l-0.11,0.22l-0.01,0.01l-0.01,0.01l-0.07,0.06c-0.01,0.01-0.03,0.02-0.07,0.11l-0.01,0.01l-0.01,0.01l-0.28,0.13l-0.15,0.23
			l-0.01,0.01l-0.01,0.01l-0.09,0.03l-0.05,0.06c-0.01,0.02-0.03,0.04-0.41,0.19c-0.06,0.13-0.1,0.18-0.13,0.21v0.11L30,25.68
			l0.01,0.01v0.02v0.05l0.03,0.04l0.14-0.05l0.02-0.01l0.02,0.01l0.21,0.15l0.36,0.12l0.54,0.03L31.4,26l0.04-0.03l0.03,0.04
			l0.03,0.04l0.41-0.09l0.14,0l0.05-0.05l0.01-0.01l0.01,0l0.7-0.18v0v-0.05h0.05c0.11,0,0.11-0.05,0.11-0.07v-0.04l0.04-0.01
			l0.24-0.04l0.04-0.01l0.01,0.04c0,0,0,0.01,0.02,0.03c0.03,0.03,0.04,0.05,0.04,0.07c0,0.06-0.03,0.11-0.09,0.17l-0.01,0.01
			l-0.01,0l-0.12,0.04c-0.02,0.01-0.07,0.03-0.18,0.12L32.93,26l-0.03-0.01l-0.05-0.02l-0.33,0.1l-0.1,0.13l-0.02,0.02l-0.02,0
			l-0.03,0l-0.01,0.03l-0.04-0.01l-0.07-0.01l-0.07,0.05l-0.01,0.01h-0.02h-0.11l-0.46,0.18l-0.05,0.02l-0.01-0.05
			c-0.01-0.03-0.06-0.03-0.09-0.03l-0.18,0.07l-0.02,0.01l-0.02-0.01l-0.12-0.06l-0.1,0.06l-0.01,0.01l-0.02,0l-0.13-0.02
			l-0.06,0.06L30.73,26.53z"/>
		<path class="st0" d="M38.92,26.56L38.92,26.56c-0.17,0-0.29-0.04-0.37-0.12c-0.04-0.04-0.06-0.07-0.07-0.08l-0.03,0.02l-0.02,0.02
			l-0.03-0.01c-0.15-0.08-0.26-0.2-0.35-0.36l-0.02-0.04l0.03-0.01l-0.16-0.18l-0.01-0.01l0-0.01l-0.07-0.27l-0.12-0.18l-0.07-0.27
			l-0.09-0.18l-0.15-0.93l-0.01-0.38c-0.04-0.09-0.07-0.17-0.08-0.26H37.3c-0.01,0-0.02,0-0.02,0l-0.19,0.27l-0.19,0.15
			c-0.01,0.04-0.05,0.1-0.19,0.24l-0.1,0.07c-0.01,0.01-0.06,0.05-0.18,0.18c-0.01,0.07-0.05,0.12-0.12,0.15l-0.11,0.13l-0.01,0.01
			l-0.01,0l-0.15,0.06l-0.13,0.18l-0.77,0.6l-0.34,0.21l-0.12,0.1c-0.06,0.05-0.11,0.07-0.15,0.08l-0.14,0.04l-0.01,0.09l-0.01,0.03
			l-0.01,0l0.03,0.06h-0.07h-0.2l0.07,0.06l-0.11,0.01l-0.21,0.02l-0.02,0l-0.02-0.02c-0.13-0.15-0.18-0.19-0.19-0.2l-0.02-0.01
			V25.8v-0.16l-0.07-0.07l-0.01-0.01l0-0.01l-0.1-0.6l-0.03-0.07l-0.03-0.41l0.06-0.2l-0.03-0.14l0.03-0.18l-0.04-0.5l-0.04-0.08
			l-0.01-0.02l0.01-0.02c0.02-0.03,0.06-0.07,0.1-0.1c0.02-0.02,0.04-0.04,0.04-0.07l-0.06-0.07l-0.01-0.02l0-0.02l0.04-0.19
			l-0.07-0.15l0-0.01v-0.01v-0.11v-0.01l0.01-0.01l0.07-0.12l-0.04-0.17l0-0.01l0-0.01l0.07-0.3l-0.04-0.37l0.03-0.22l-0.02-0.02
			l-0.08-0.08h0.11h0.03c0-0.05,0.02-0.08,0.04-0.1l-0.08-0.08l0.14,0.02c0.22,0.04,0.35,0.16,0.4,0.37l0,0.02l-0.01,0.02
			l-0.07,0.11l-0.11,0.58c-0.01,0.07-0.02,0.13-0.02,0.16c0,0.04,0.02,0.12,0.09,0.29l0.01,0.01l0,0.01
			c-0.09,0.41-0.13,0.73-0.13,0.94c0,0.06,0,0.1,0,0.13c0,0.01,0.01,0.04,0.07,0.12l0.01,0.02l-0.01,0.02
			c-0.02,0.09-0.03,0.23-0.04,0.43v0.01l-0.01,0.01l-0.05,0.08l0.08,0.06l0.05,0.04l-0.05,0.04l-0.08,0.06
			c-0.01,0.04-0.02,0.07-0.02,0.11c0,0.07,0.02,0.14,0.05,0.21c0.04,0.07,0.07,0.17,0.09,0.29c0.02,0.09,0.04,0.16,0.08,0.21h0.14
			l0.19,0.01l0.01-0.03l0.01-0.02l0.02-0.01c0.06-0.02,0.08-0.02,0.09-0.02c0.01,0,0.01,0,0.02,0c0.01-0.02,0.03-0.03,0.06-0.05
			l0.02-0.11l0.01-0.05l0.05,0.01l0.14,0.03l0.06-0.12l0.01-0.02l0.02-0.01l0.14-0.06c0.04-0.09,0.11-0.1,0.15-0.1
			c0.01,0,0.03,0,0.05,0.01l0.01-0.05l0-0.02l0.01-0.01c0.11-0.07,0.19-0.12,0.26-0.14v-0.04v-0.04l0.04-0.01l0.09-0.02l0.04-0.04
			l0.01-0.02h0.02c0.07,0,0.08-0.01,0.08-0.01c0,0,0.02-0.02,0.05-0.16l0-0.02l0.02-0.01L36,24.18l0.03-0.1l0.01-0.04l0.04,0.01
			l0.03,0.01l0.06-0.13l0.01-0.02l0.02-0.01l0.16-0.07l0.03-0.05l0.01-0.01l0.01-0.01l0.09-0.07v-0.1v-0.03l0.03-0.01l0.08-0.04
			l0.1-0.13l0.01-0.01l0.01-0.01l0.14-0.06l0.01-0.06l0.01-0.04h0.01l0.01-0.01c0.05-0.08,0.11-0.13,0.19-0.14v-0.07v-0.03
			l0.03-0.01l0.05-0.02l0.21-0.42c0.02-0.06,0.04-0.15,0.08-0.26l0.04-0.22l0.06-0.13c0.02-0.03,0.04-0.11,0.06-0.22l0.01-0.17
			c0.01-0.07,0.03-0.14,0.06-0.23l0-0.01l0.01-0.01l0.1-0.08l0.02-0.02l0.03,0.01l0.15,0.08l0.01,0.01L38,21.25
			c0.05,0.06,0.11,0.12,0.2,0.19l0.03,0.02l-0.02,0.04l-0.04,0.08l0.02,0.16c0,0.05-0.02,0.16-0.16,0.16l-0.01,0.01V22v0.01
			L38,22.02l-0.06,0.11v0.17l-0.07,0.19l0.02,0.24l0,0.02l-0.01,0.01c-0.08,0.11-0.09,0.14-0.09,0.15c0,0.03,0.01,0.05,0.04,0.08
			c0.05,0.04,0.07,0.07,0.08,0.1l0.02,0.05l-0.05,0.01l-0.04,0.01l-0.04,0.09l0.05,0.14l0,0.01l0,0.01l-0.03,0.29l0.08,0.14
			l0.04,0.07h-0.08h-0.03c0.03,0.12,0.04,0.24,0.05,0.36c0.05,0.05,0.07,0.09,0.07,0.14c0,0.03-0.02,0.05-0.03,0.07l0.06,0.19
			c0.04,0.22,0.13,0.48,0.25,0.79l0.1,0.14c0.04,0.1,0.08,0.17,0.13,0.22l0.27,0.26l0.32,0.07l0.03-0.05l0.02-0.04l0.04,0.02
			l0.07,0.03c0.04-0.03,0.07-0.05,0.1-0.06c0.04-0.05,0.09-0.08,0.16-0.08l0.18,0.02l0.04,0l-0.01,0.05l-0.03,0.23l0,0.03
			l-0.03,0.01l-0.24,0.08l-0.02,0.07l-0.01,0.05l-0.04-0.02l-0.12-0.04l-0.15,0.1l-0.01,0.01l-0.01,0L38.92,26.56L38.92,26.56z"/>
		<path class="st1" d="M38.92,26.56L38.92,26.56c-0.17,0-0.29-0.04-0.37-0.12c-0.04-0.04-0.06-0.07-0.07-0.08l-0.03,0.02l-0.02,0.02
			l-0.03-0.01c-0.15-0.08-0.26-0.2-0.35-0.36l-0.02-0.04l0.03-0.01l-0.16-0.18l-0.01-0.01l0-0.01l-0.07-0.27l-0.12-0.18l-0.07-0.27
			l-0.09-0.18l-0.15-0.93l-0.01-0.38c-0.04-0.09-0.07-0.17-0.08-0.26H37.3c-0.01,0-0.02,0-0.02,0l-0.19,0.27l-0.19,0.15
			c-0.01,0.04-0.05,0.1-0.19,0.24l-0.1,0.07c-0.01,0.01-0.06,0.05-0.18,0.18c-0.01,0.07-0.05,0.12-0.12,0.15l-0.11,0.13l-0.01,0.01
			l-0.01,0l-0.15,0.06l-0.13,0.18l-0.77,0.6l-0.34,0.21l-0.12,0.1c-0.06,0.05-0.11,0.07-0.15,0.08l-0.14,0.04l-0.01,0.09l-0.01,0.03
			l-0.01,0l0.03,0.06h-0.07h-0.2l0.07,0.06l-0.11,0.01l-0.21,0.02l-0.02,0l-0.02-0.02c-0.13-0.15-0.18-0.19-0.19-0.2l-0.02-0.01
			V25.8v-0.16l-0.07-0.07l-0.01-0.01l0-0.01l-0.1-0.6l-0.03-0.07l-0.03-0.41l0.06-0.2l-0.03-0.14l0.03-0.18l-0.04-0.5l-0.04-0.08
			l-0.01-0.02l0.01-0.02c0.02-0.03,0.06-0.07,0.1-0.1c0.02-0.02,0.04-0.04,0.04-0.07l-0.06-0.07l-0.01-0.02l0-0.02l0.04-0.19
			l-0.07-0.15l0-0.01v-0.01v-0.11v-0.01l0.01-0.01l0.07-0.12l-0.04-0.17l0-0.01l0-0.01l0.07-0.3l-0.04-0.37l0.03-0.22l-0.02-0.02
			l-0.08-0.08h0.11h0.03c0-0.05,0.02-0.08,0.04-0.1l-0.08-0.08l0.14,0.02c0.22,0.04,0.35,0.16,0.4,0.37l0,0.02l-0.01,0.02
			l-0.07,0.11l-0.11,0.58c-0.01,0.07-0.02,0.13-0.02,0.16c0,0.04,0.02,0.12,0.09,0.29l0.01,0.01l0,0.01
			c-0.09,0.41-0.13,0.73-0.13,0.94c0,0.06,0,0.1,0,0.13c0,0.01,0.01,0.04,0.07,0.12l0.01,0.02l-0.01,0.02
			c-0.02,0.09-0.03,0.23-0.04,0.43v0.01l-0.01,0.01l-0.05,0.08l0.08,0.06l0.05,0.04l-0.05,0.04l-0.08,0.06
			c-0.01,0.04-0.02,0.07-0.02,0.11c0,0.07,0.02,0.14,0.05,0.21c0.04,0.07,0.07,0.17,0.09,0.29c0.02,0.09,0.04,0.16,0.08,0.21h0.14
			l0.19,0.01l0.01-0.03l0.01-0.02l0.02-0.01c0.06-0.02,0.08-0.02,0.09-0.02c0.01,0,0.01,0,0.02,0c0.01-0.02,0.03-0.03,0.06-0.05
			l0.02-0.11l0.01-0.05l0.05,0.01l0.14,0.03l0.06-0.12l0.01-0.02l0.02-0.01l0.14-0.06c0.04-0.09,0.11-0.1,0.15-0.1
			c0.01,0,0.03,0,0.05,0.01l0.01-0.05l0-0.02l0.01-0.01c0.11-0.07,0.19-0.12,0.26-0.14v-0.04v-0.04l0.04-0.01l0.09-0.02l0.04-0.04
			l0.01-0.02h0.02c0.07,0,0.08-0.01,0.08-0.01c0,0,0.02-0.02,0.05-0.16l0-0.02l0.02-0.01L36,24.18l0.03-0.1l0.01-0.04l0.04,0.01
			l0.03,0.01l0.06-0.13l0.01-0.02l0.02-0.01l0.16-0.07l0.03-0.05l0.01-0.01l0.01-0.01l0.09-0.07v-0.1v-0.03l0.03-0.01l0.08-0.04
			l0.1-0.13l0.01-0.01l0.01-0.01l0.14-0.06l0.01-0.06l0.01-0.04h0.01l0.01-0.01c0.05-0.08,0.11-0.13,0.19-0.14v-0.07v-0.03
			l0.03-0.01l0.05-0.02l0.21-0.42c0.02-0.06,0.04-0.15,0.08-0.26l0.04-0.22l0.06-0.13c0.02-0.03,0.04-0.11,0.06-0.22l0.01-0.17
			c0.01-0.07,0.03-0.14,0.06-0.23l0-0.01l0.01-0.01l0.1-0.08l0.02-0.02l0.03,0.01l0.15,0.08l0.01,0.01L38,21.25
			c0.05,0.06,0.11,0.12,0.2,0.19l0.03,0.02l-0.02,0.04l-0.04,0.08l0.02,0.16c0,0.05-0.02,0.16-0.16,0.16l-0.01,0.01V22v0.01
			L38,22.02l-0.06,0.11v0.17l-0.07,0.19l0.02,0.24l0,0.02l-0.01,0.01c-0.08,0.11-0.09,0.14-0.09,0.15c0,0.03,0.01,0.05,0.04,0.08
			c0.05,0.04,0.07,0.07,0.08,0.1l0.02,0.05l-0.05,0.01l-0.04,0.01l-0.04,0.09l0.05,0.14l0,0.01l0,0.01l-0.03,0.29l0.08,0.14
			l0.04,0.07h-0.08h-0.03c0.03,0.12,0.04,0.24,0.05,0.36c0.05,0.05,0.07,0.09,0.07,0.14c0,0.03-0.02,0.05-0.03,0.07l0.06,0.19
			c0.04,0.22,0.13,0.48,0.25,0.79l0.1,0.14c0.04,0.1,0.08,0.17,0.13,0.22l0.27,0.26l0.32,0.07l0.03-0.05l0.02-0.04l0.04,0.02
			l0.07,0.03c0.04-0.03,0.07-0.05,0.1-0.06c0.04-0.05,0.09-0.08,0.16-0.08l0.18,0.02l0.04,0l-0.01,0.05l-0.03,0.23l0,0.03
			l-0.03,0.01l-0.24,0.08l-0.02,0.07l-0.01,0.05l-0.04-0.02l-0.12-0.04l-0.15,0.1l-0.01,0.01l-0.01,0L38.92,26.56L38.92,26.56z"/>
		<path class="st0" d="M42.58,23.58c0.01,0,0.03,0,0.09,0.02c0.03,0.01,0.07,0.02,0.1,0.02l0.12-0.03l0.39-0.03l0.31-0.04
			c0.22,0.03,0.34,0.04,0.39,0.04c0.04,0,0.18,0,0.18-0.06c0-0.02-0.01-0.06-0.08-0.14l-0.03-0.03l0.03-0.03l0.08-0.07
			c-0.04-0.08-0.08-0.14-0.13-0.16l-0.03-0.02l0.01-0.04l0.04-0.1l-0.09-0.05l-0.02-0.01l0-0.03l-0.04-0.36l-0.12-0.18l-0.01-0.01
			l0-0.01l-0.02-0.16l-0.06-0.12l0-0.01v-0.01v-0.01h-0.03l0-0.04l-0.02-0.21c0,0,0-0.02-0.04-0.08l-0.07-0.11
			c-0.01-0.01-0.02-0.03-0.07-0.06c-0.03-0.02-0.08-0.05-0.16-0.09l-0.08,0.04l-0.06,0.1l-0.24,0.34l-0.06,0.11
			c-0.01,0.02-0.05,0.08-0.23,0.26l-0.04,0.15l-0.01,0.02l-0.02,0.01l-0.19,0.1c-0.05,0.24-0.15,0.39-0.3,0.44l-0.09,0.28
			l-0.01,0.02l-0.02,0.01l-0.17,0.06v0.07l-0.02,0.09c0.09,0.03,0.16,0.06,0.2,0.09l0.11-0.01l0.21,0.05
			c0.05,0.01,0.07,0.02,0.08,0.02c0.02,0,0.06-0.01,0.12-0.02C42.54,23.58,42.56,23.58,42.58,23.58 M45.9,26.44l-0.03-0.02
			l-0.15-0.12h-0.08h-0.02l-0.01-0.01l-0.12-0.09h-0.08h-0.03l-0.01-0.02l-0.08-0.16l-0.08-0.04l-0.01-0.01l-0.01-0.01
			c-0.08-0.15-0.16-0.27-0.25-0.35l-0.01-0.01v-0.02V25.5l-0.08-0.07l-0.01-0.01l0-0.02l-0.01-0.14l-0.14-0.15l-0.22-0.51
			l-0.06-0.08l-0.01-0.01l0-0.01l-0.03-0.25c0-0.01-0.01-0.04-0.12-0.21l-0.01-0.01v-0.01v-0.16h-0.06l-0.12,0.08l-0.01,0.01
			l-0.02,0l-0.18-0.04l-0.12,0.08L43.69,24l-0.03-0.02l-0.03-0.02L43.56,24l-0.05,0.03l-0.02-0.05l-0.01-0.03
			c-0.01,0-0.03,0.01-0.06,0.02C43.37,23.99,43.31,24,43.25,24l-0.13-0.01h-0.15l-0.16,0.1l-0.02,0.01l-0.02,0l-0.18-0.04
			l-0.19,0.02v0.01v0.08l-0.07-0.04l-0.07-0.04l-0.1,0.05l-0.03,0.02l-0.02-0.02l-0.07-0.06h-0.14l-0.15,0.06l-0.03,0.01l-0.02-0.02
			l-0.1-0.11l-0.03,0.03l-0.02,0.02l-0.02-0.01l-0.12-0.05c-0.07,0.04-0.2,0.16-0.42,0.48l-0.01,0.01l-0.02,0.01l-0.14,0.03
			c-0.4,0.61-0.42,0.61-0.45,0.62l-0.06,0.04l-0.27,0.35l-0.01,0.02H40h-0.03l-0.22,0.37l-0.01,0.01l-0.01,0.01l-0.26,0.16
			l-0.02,0.01l-0.02-0.01l-0.2-0.05l-0.05-0.01l0.02-0.05l0.03-0.08V25.8v-0.02l0.01-0.01l0.05-0.06l-0.02-0.04l-0.03-0.06
			l0.06-0.01l0.18-0.02l0.1-0.06c0.1-0.04,0.15-0.11,0.18-0.22l0-0.03l0.03-0.01c0.12-0.03,0.18-0.09,0.2-0.19l0-0.02l0.02-0.01
			c0.15-0.09,0.25-0.22,0.3-0.42l0.01-0.02l0.02-0.01l0.12-0.05l0.3-0.47v-0.11c-0.04-0.04-0.08-0.09-0.1-0.15l-0.01-0.03l0.02-0.02
			l0.17-0.15v-0.05v-0.05l0.05,0l0.21,0.02l0.12-0.07l0.03-0.02l0.02,0.02l0.06-0.08c-0.01-0.02-0.02-0.03-0.02-0.06
			c0-0.03,0.02-0.06,0.16-0.15l0.04-0.02l0,0c0.01-0.05,0.04-0.1,0.06-0.15l-0.1-0.07l0.13-0.01l0.08-0.01l0.03-0.1l0.01-0.03
			l0.03,0c0.08-0.01,0.08-0.04,0.08-0.06V22.6v-0.02l0.02-0.01c0.15-0.12,0.22-0.24,0.22-0.34V22.2v-0.04l0.04-0.01l0.1-0.01
			l0.02-0.11l0.01-0.03L42.32,22l0.05-0.01l0.09-0.19l0.01-0.03l-0.02-0.05l0.06-0.01c0.05,0,0.11-0.03,0.12-0.15l0.01-0.07
			l0.06,0.03v-0.12v-0.05h0.04h0.02v-0.09v-0.02l0.01-0.01c0.01-0.01,0.05-0.05,0.11-0.1c0.05-0.05,0.09-0.11,0.1-0.19l0-0.01
			l0.01-0.01l0.09-0.09l-0.06-0.13l-0.01-0.03l0.01-0.02c0.1-0.13,0.19-0.19,0.29-0.2l0.04-0.07l0.04-0.06l0.04,0.06l0.07,0.1
			c0,0,0.02,0.02,0.07,0.05l0.16,0.08l0.02,0.01l0,0.03l0.02,0.23c0.04,0.04,0.08,0.1,0.12,0.18l0.06,0.02l0.03,0.01l0,0.03
			l0.02,0.22l0.08,0.29l0.13,0.22l0.09,0.33l0.02,0.2l0.13,0.18l0.02,0.02l-0.01,0.03l-0.02,0.05l0.09,0.1l0.01,0.01v0.02v0.15
			l0.02,0.13c0,0.04-0.01,0.07-0.04,0.11c0.09,0.2,0.19,0.3,0.3,0.3l0.18-0.04l0.24,0c0.08,0.02,0.14,0.03,0.18,0.03
			c0.07,0,0.13-0.02,0.17-0.05c0.07-0.06,0.1-0.07,0.12-0.07c0.02,0,0.05,0.01,0.19,0.09l0.21-0.01l0.05,0v0.05
			c0,0.07-0.03,0.12-0.1,0.14l-0.02,0.01l-0.02,0l-0.14-0.05l-0.16,0.13l-0.01,0.01l-0.02,0l-0.19-0.03
			c-0.09,0.06-0.18,0.09-0.29,0.09c-0.06,0-0.1,0.01-0.11,0.03l-0.02,0.03l-0.04-0.02c-0.08-0.03-0.15-0.05-0.21-0.05
			c-0.05,0-0.07,0.01-0.08,0.03c0.01,0.02,0.03,0.03,0.05,0.05l0.03,0.02l-0.01,0.03l-0.03,0.1l0.03,0.31l0.12,0.18l0,0.01l0,0.01
			l0.02,0.17l0.21,0.31l0.01,0.02l-0.01,0.02l-0.03,0.12l0.13,0.12l0.24,0.4c0.11,0.13,0.18,0.22,0.21,0.29l0.16,0.08l0.01,0.01
			l0.01,0.01l0.06,0.15l0.06,0.05l0.05,0.04l-0.05,0.04l-0.13,0.1L45.9,26.44z"/>
		<path class="st1" d="M42.58,23.58c0.01,0,0.03,0,0.09,0.02c0.03,0.01,0.07,0.02,0.1,0.02l0.12-0.03l0.39-0.03l0.31-0.04
			c0.22,0.03,0.34,0.04,0.39,0.04c0.04,0,0.18,0,0.18-0.06c0-0.02-0.01-0.06-0.08-0.14l-0.03-0.03l0.03-0.03l0.08-0.07
			c-0.04-0.08-0.08-0.14-0.13-0.16l-0.03-0.02l0.01-0.04l0.04-0.1l-0.09-0.05l-0.02-0.01l0-0.03l-0.04-0.36l-0.12-0.18l-0.01-0.01
			l0-0.01l-0.02-0.16l-0.06-0.12l0-0.01v-0.01v-0.01h-0.03l0-0.04l-0.02-0.21c0,0,0-0.02-0.04-0.08l-0.07-0.11
			c-0.01-0.01-0.02-0.03-0.07-0.06c-0.03-0.02-0.08-0.05-0.16-0.09l-0.08,0.04l-0.06,0.1l-0.24,0.34l-0.06,0.11
			c-0.01,0.02-0.05,0.08-0.23,0.26l-0.04,0.15l-0.01,0.02l-0.02,0.01l-0.19,0.1c-0.05,0.24-0.15,0.39-0.3,0.44l-0.09,0.28
			l-0.01,0.02l-0.02,0.01l-0.17,0.06v0.07l-0.02,0.09c0.09,0.03,0.16,0.06,0.2,0.09l0.11-0.01l0.21,0.05
			c0.05,0.01,0.07,0.02,0.08,0.02c0.02,0,0.06-0.01,0.12-0.02C42.54,23.58,42.56,23.58,42.58,23.58z M45.9,26.44l-0.03-0.02
			l-0.15-0.12h-0.08h-0.02l-0.01-0.01l-0.12-0.09h-0.08h-0.03l-0.01-0.02l-0.08-0.16l-0.08-0.04l-0.01-0.01l-0.01-0.01
			c-0.08-0.15-0.16-0.27-0.25-0.35l-0.01-0.01v-0.02V25.5l-0.08-0.07l-0.01-0.01l0-0.02l-0.01-0.14l-0.14-0.15l-0.22-0.51
			l-0.06-0.08l-0.01-0.01l0-0.01l-0.03-0.25c0-0.01-0.01-0.04-0.12-0.21l-0.01-0.01v-0.01v-0.16h-0.06l-0.12,0.08l-0.01,0.01
			l-0.02,0l-0.18-0.04l-0.12,0.08L43.69,24l-0.03-0.02l-0.03-0.02L43.56,24l-0.05,0.03l-0.02-0.05l-0.01-0.03
			c-0.01,0-0.03,0.01-0.06,0.02C43.37,23.99,43.31,24,43.25,24l-0.13-0.01h-0.15l-0.16,0.1l-0.02,0.01l-0.02,0l-0.18-0.04
			l-0.19,0.02v0.01v0.08l-0.07-0.04l-0.07-0.04l-0.1,0.05l-0.03,0.02l-0.02-0.02l-0.07-0.06h-0.14l-0.15,0.06l-0.03,0.01l-0.02-0.02
			l-0.1-0.11l-0.03,0.03l-0.02,0.02l-0.02-0.01l-0.12-0.05c-0.07,0.04-0.2,0.16-0.42,0.48l-0.01,0.01l-0.02,0.01l-0.14,0.03
			c-0.4,0.61-0.42,0.61-0.45,0.62l-0.06,0.04l-0.27,0.35l-0.01,0.02H40h-0.03l-0.22,0.37l-0.01,0.01l-0.01,0.01l-0.26,0.16
			l-0.02,0.01l-0.02-0.01l-0.2-0.05l-0.05-0.01l0.02-0.05l0.03-0.08V25.8v-0.02l0.01-0.01l0.05-0.06l-0.02-0.04l-0.03-0.06
			l0.06-0.01l0.18-0.02l0.1-0.06c0.1-0.04,0.15-0.11,0.18-0.22l0-0.03l0.03-0.01c0.12-0.03,0.18-0.09,0.2-0.19l0-0.02l0.02-0.01
			c0.15-0.09,0.25-0.22,0.3-0.42l0.01-0.02l0.02-0.01l0.12-0.05l0.3-0.47v-0.11c-0.04-0.04-0.08-0.09-0.1-0.15l-0.01-0.03l0.02-0.02
			l0.17-0.15v-0.05v-0.05l0.05,0l0.21,0.02l0.12-0.07l0.03-0.02l0.02,0.02l0.06-0.08c-0.01-0.02-0.02-0.03-0.02-0.06
			c0-0.03,0.02-0.06,0.16-0.15l0.04-0.02l0,0c0.01-0.05,0.04-0.1,0.06-0.15l-0.1-0.07l0.13-0.01l0.08-0.01l0.03-0.1l0.01-0.03
			l0.03,0c0.08-0.01,0.08-0.04,0.08-0.06V22.6v-0.02l0.02-0.01c0.15-0.12,0.22-0.24,0.22-0.34V22.2v-0.04l0.04-0.01l0.1-0.01
			l0.02-0.11l0.01-0.03L42.32,22l0.05-0.01l0.09-0.19l0.01-0.03l-0.02-0.05l0.06-0.01c0.05,0,0.11-0.03,0.12-0.15l0.01-0.07
			l0.06,0.03v-0.12v-0.05h0.04h0.02v-0.09v-0.02l0.01-0.01c0.01-0.01,0.05-0.05,0.11-0.1c0.05-0.05,0.09-0.11,0.1-0.19l0-0.01
			l0.01-0.01l0.09-0.09l-0.06-0.13l-0.01-0.03l0.01-0.02c0.1-0.13,0.19-0.19,0.29-0.2l0.04-0.07l0.04-0.06l0.04,0.06l0.07,0.1
			c0,0,0.02,0.02,0.07,0.05l0.16,0.08l0.02,0.01l0,0.03l0.02,0.23c0.04,0.04,0.08,0.1,0.12,0.18l0.06,0.02l0.03,0.01l0,0.03
			l0.02,0.22l0.08,0.29l0.13,0.22l0.09,0.33l0.02,0.2l0.13,0.18l0.02,0.02l-0.01,0.03l-0.02,0.05l0.09,0.1l0.01,0.01v0.02v0.15
			l0.02,0.13c0,0.04-0.01,0.07-0.04,0.11c0.09,0.2,0.19,0.3,0.3,0.3l0.18-0.04l0.24,0c0.08,0.02,0.14,0.03,0.18,0.03
			c0.07,0,0.13-0.02,0.17-0.05c0.07-0.06,0.1-0.07,0.12-0.07c0.02,0,0.05,0.01,0.19,0.09l0.21-0.01l0.05,0v0.05
			c0,0.07-0.03,0.12-0.1,0.14l-0.02,0.01l-0.02,0l-0.14-0.05l-0.16,0.13l-0.01,0.01l-0.02,0l-0.19-0.03
			c-0.09,0.06-0.18,0.09-0.29,0.09c-0.06,0-0.1,0.01-0.11,0.03l-0.02,0.03l-0.04-0.02c-0.08-0.03-0.15-0.05-0.21-0.05
			c-0.05,0-0.07,0.01-0.08,0.03c0.01,0.02,0.03,0.03,0.05,0.05l0.03,0.02l-0.01,0.03l-0.03,0.1l0.03,0.31l0.12,0.18l0,0.01l0,0.01
			l0.02,0.17l0.21,0.31l0.01,0.02l-0.01,0.02l-0.03,0.12l0.13,0.12l0.24,0.4c0.11,0.13,0.18,0.22,0.21,0.29l0.16,0.08l0.01,0.01
			l0.01,0.01l0.06,0.15l0.06,0.05l0.05,0.04l-0.05,0.04l-0.13,0.1L45.9,26.44z"/>
	</g>
	<g>
		<defs>
			<path id="SVGID_3_" d="M43.58,35.28c0,0.32,0.25,0.59,0.56,0.59c0.31,0,0.56-0.26,0.56-0.59c0-0.32-0.34-0.73-0.55-1.41
				C43.94,34.56,43.58,34.96,43.58,35.28"/>
		</defs>
		<clipPath id="SVGID_4_">
			<use xlink:href="#SVGID_3_"  style="overflow:visible;"/>
		</clipPath>
		
			<radialGradient id="SVGID_5_" cx="76.7449" cy="729.5516" r="0.9996" gradientTransform="matrix(0.8096 0 0 -1.4449 -17.9996 1088.9954)" gradientUnits="userSpaceOnUse">
			<stop  offset="0" style="stop-color:#FFFFFF"/>
			<stop  offset="0.1031" style="stop-color:#FAFAFA"/>
			<stop  offset="0.2511" style="stop-color:#ECECEC"/>
			<stop  offset="0.4264" style="stop-color:#D6D5D5"/>
			<stop  offset="0.6225" style="stop-color:#B4B4B3"/>
			<stop  offset="0.8332" style="stop-color:#858585"/>
			<stop  offset="1" style="stop-color:#575756"/>
		</radialGradient>
		<rect x="43.58" y="33.87" class="st2" width="1.12" height="2"/>
	</g>
	<g>
		<defs>
			<rect id="SVGID_6_" x="11.69" y="13.32" width="39.99" height="24.49"/>
		</defs>
		<clipPath id="SVGID_7_">
			<use xlink:href="#SVGID_6_"  style="overflow:visible;"/>
		</clipPath>
		<path class="st3" d="M44.3,34.72c0,0.09-0.07,0.17-0.16,0.17c-0.09,0-0.16-0.08-0.16-0.17c0-0.09,0.1-0.21,0.16-0.4
			C44.2,34.51,44.3,34.63,44.3,34.72"/>
	</g>
	<g>
		<defs>
			<path id="SVGID_8_" d="M46.08,35.6c0,0.24,0.19,0.44,0.42,0.44c0.23,0,0.42-0.2,0.42-0.44c0-0.24-0.26-0.55-0.41-1.06
				C46.35,35.06,46.08,35.35,46.08,35.6"/>
		</defs>
		<clipPath id="SVGID_9_">
			<use xlink:href="#SVGID_8_"  style="overflow:visible;"/>
		</clipPath>
		
			<radialGradient id="SVGID_10_" cx="189.9741" cy="823.4277" r="1.0001" gradientTransform="matrix(0.6081 0 0 -1.0849 -69.0215 928.643)" gradientUnits="userSpaceOnUse">
			<stop  offset="0" style="stop-color:#FFFFFF"/>
			<stop  offset="0.1031" style="stop-color:#FAFAFA"/>
			<stop  offset="0.2511" style="stop-color:#ECECEC"/>
			<stop  offset="0.4264" style="stop-color:#D6D5D5"/>
			<stop  offset="0.6225" style="stop-color:#B4B4B3"/>
			<stop  offset="0.8332" style="stop-color:#858585"/>
			<stop  offset="1" style="stop-color:#575756"/>
		</radialGradient>
		<rect x="46.08" y="34.54" class="st4" width="0.84" height="1.5"/>
	</g>
	<g>
		<defs>
			<rect id="SVGID_11_" x="11.69" y="13.32" width="39.99" height="24.49"/>
		</defs>
		<clipPath id="SVGID_12_">
			<use xlink:href="#SVGID_11_"  style="overflow:visible;"/>
		</clipPath>
		<path class="st5" d="M46.62,35.18c0,0.07-0.05,0.13-0.12,0.13c-0.07,0-0.12-0.06-0.12-0.13c0-0.07,0.08-0.15,0.12-0.3
			C46.55,35.02,46.62,35.11,46.62,35.18"/>
	</g>
	<g>
		<defs>
			<path id="SVGID_13_" d="M44.46,37c0,0.2,0.15,0.36,0.34,0.36c0.19,0,0.34-0.16,0.34-0.36c0-0.2-0.21-0.44-0.33-0.86
				C44.68,36.57,44.46,36.81,44.46,37"/>
		</defs>
		<clipPath id="SVGID_14_">
			<use xlink:href="#SVGID_13_"  style="overflow:visible;"/>
		</clipPath>
		
			<radialGradient id="SVGID_15_" cx="297.092" cy="912.0284" r="1.0003" gradientTransform="matrix(0.4922 0 0 -0.8784 -101.4302 837.8647)" gradientUnits="userSpaceOnUse">
			<stop  offset="0" style="stop-color:#FFFFFF"/>
			<stop  offset="0.1031" style="stop-color:#FAFAFA"/>
			<stop  offset="0.2511" style="stop-color:#ECECEC"/>
			<stop  offset="0.4264" style="stop-color:#D6D5D5"/>
			<stop  offset="0.6225" style="stop-color:#B4B4B3"/>
			<stop  offset="0.8332" style="stop-color:#858585"/>
			<stop  offset="1" style="stop-color:#575756"/>
		</radialGradient>
		<rect x="44.46" y="36.15" class="st6" width="0.68" height="1.21"/>
	</g>
	<g>
		<defs>
			<rect id="SVGID_16_" x="11.69" y="13.32" width="39.99" height="24.49"/>
		</defs>
		<clipPath id="SVGID_17_">
			<use xlink:href="#SVGID_16_"  style="overflow:visible;"/>
		</clipPath>
		<path class="st7" d="M44.9,36.66c0,0.06-0.04,0.1-0.1,0.1c-0.06,0-0.1-0.05-0.1-0.1c0-0.06,0.06-0.12,0.1-0.25
			C44.84,36.54,44.9,36.61,44.9,36.66"/>
	</g>
	<g>
		<defs>
			<path id="SVGID_18_" d="M42.03,30.41c0,1.98,1.6,3.58,3.58,3.58c1.86,0,3.39-1.42,3.56-3.24v-0.68c-0.17-1.82-1.7-3.24-3.56-3.24
				C43.63,26.83,42.03,28.44,42.03,30.41"/>
		</defs>
		<clipPath id="SVGID_19_">
			<use xlink:href="#SVGID_18_"  style="overflow:visible;"/>
		</clipPath>
		
			<radialGradient id="SVGID_20_" cx="-190.4129" cy="555.8787" r="1" gradientTransform="matrix(3.7114 0 0 -3.7416 752.4543 2110.4146)" gradientUnits="userSpaceOnUse">
			<stop  offset="0" style="stop-color:#FFFFFF"/>
			<stop  offset="0.1031" style="stop-color:#FAFAFA"/>
			<stop  offset="0.2511" style="stop-color:#ECECEC"/>
			<stop  offset="0.4264" style="stop-color:#D6D5D5"/>
			<stop  offset="0.6225" style="stop-color:#B4B4B3"/>
			<stop  offset="0.8332" style="stop-color:#858585"/>
			<stop  offset="1" style="stop-color:#575756"/>
		</radialGradient>
		<rect x="42.03" y="26.83" class="st8" width="7.15" height="7.16"/>
	</g>
	<g>
		<defs>
			<rect id="SVGID_21_" x="11.69" y="13.32" width="39.99" height="24.49"/>
		</defs>
		<clipPath id="SVGID_22_">
			<use xlink:href="#SVGID_21_"  style="overflow:visible;"/>
		</clipPath>
		<path class="st9" d="M45.67,32.98c0,0.36-0.28,0.66-0.63,0.66c-0.35,0-0.63-0.3-0.63-0.66s0.41-0.81,0.64-1.58
			C45.29,32.17,45.67,32.62,45.67,32.98"/>
	</g>
	<polygon class="st10" points="31.54,33.37 28.36,33.37 30.96,27.79 31.02,27.66 31.05,27.6 30.99,27.6 30.84,27.6 28.57,27.6 
		28.57,27.25 31.6,27.25 29.02,32.82 28.96,32.95 28.94,33.01 29,33.01 29.14,33.01 31.54,33.01 	"/>
	<polygon class="st11" points="31.54,33.37 28.36,33.37 30.96,27.79 31.02,27.66 31.05,27.6 30.99,27.6 30.84,27.6 28.57,27.6 
		28.57,27.25 31.6,27.25 29.02,32.82 28.96,32.95 28.94,33.01 29,33.01 29.14,33.01 31.54,33.01 	"/>
	<polygon class="st10" points="36.46,33.37 33.09,33.37 33.09,27.25 36.48,27.25 36.48,27.61 33.59,27.61 33.5,27.61 33.46,27.61 
		33.46,27.65 33.46,27.74 33.46,29.74 33.46,29.83 33.46,29.87 33.5,29.87 33.59,29.87 36.46,29.87 36.46,30.24 33.59,30.24 
		33.5,30.24 33.46,30.24 33.46,30.28 33.46,30.37 33.46,32.87 33.46,32.96 33.46,33.01 33.5,33.01 33.59,33.01 36.46,33.01 	"/>
	<polygon class="st11" points="36.46,33.37 33.09,33.37 33.09,27.25 36.48,27.25 36.48,27.61 33.59,27.61 33.5,27.61 33.46,27.61 
		33.46,27.65 33.46,27.74 33.46,29.74 33.46,29.83 33.46,29.87 33.5,29.87 33.59,29.87 36.46,29.87 36.46,30.24 33.59,30.24 
		33.5,30.24 33.46,30.24 33.46,30.28 33.46,30.37 33.46,32.87 33.46,32.96 33.46,33.01 33.5,33.01 33.59,33.01 36.46,33.01 	"/>
	<g>
		<defs>
			<rect id="SVGID_23_" x="11.69" y="13.32" width="39.99" height="24.49"/>
		</defs>
		<clipPath id="SVGID_24_">
			<use xlink:href="#SVGID_23_"  style="overflow:visible;"/>
		</clipPath>
		<path class="st12" d="M38.26,27.61v0.04v0.09v2.17V30v0.04h0.04l0.09,0l1.1,0.01c0.45,0,0.77-0.04,0.99-0.13
			c0.23-0.09,0.41-0.24,0.54-0.44c0.13-0.2,0.19-0.42,0.19-0.67c0-0.24-0.07-0.46-0.2-0.66c-0.13-0.2-0.31-0.34-0.52-0.42
			c-0.21-0.08-0.53-0.12-0.99-0.12h-1.13H38.3H38.26z M41.57,33.37h-0.46l-2.26-2.91l-0.03-0.03l-0.01-0.02h-0.02h-0.05h-0.36H38.3
			h-0.04v0.04v0.09v2.83h-0.38v-6.12h1.14c0.7,0,1.17,0.03,1.41,0.08c0.35,0.08,0.63,0.25,0.85,0.51c0.22,0.26,0.32,0.59,0.32,0.97
			c0,0.32-0.08,0.61-0.23,0.85c-0.15,0.24-0.36,0.42-0.64,0.55c-0.29,0.13-0.69,0.19-1.2,0.19l-0.18,0l-0.08,0l0.05,0.07l0.11,0.15
			L41.57,33.37z"/>
		<path class="st13" d="M38.26,27.61v0.04v0.09v2.17V30v0.04h0.04l0.09,0l1.1,0.01c0.45,0,0.77-0.04,0.99-0.13
			c0.23-0.09,0.41-0.24,0.54-0.44c0.13-0.2,0.19-0.42,0.19-0.67c0-0.24-0.07-0.46-0.2-0.66c-0.13-0.2-0.31-0.34-0.52-0.42
			c-0.21-0.08-0.53-0.12-0.99-0.12h-1.13H38.3H38.26z M41.57,33.37h-0.46l-2.26-2.91l-0.03-0.03l-0.01-0.02h-0.02h-0.05h-0.36H38.3
			h-0.04v0.04v0.09v2.83h-0.38v-6.12h1.14c0.7,0,1.17,0.03,1.41,0.08c0.35,0.08,0.63,0.25,0.85,0.51c0.22,0.26,0.32,0.59,0.32,0.97
			c0,0.32-0.08,0.61-0.23,0.85c-0.15,0.24-0.36,0.42-0.64,0.55c-0.29,0.13-0.69,0.19-1.2,0.19l-0.18,0l-0.08,0l0.05,0.07l0.11,0.15
			L41.57,33.37z"/>
		<path class="st12" d="M18.25,36.18h0.15v0.2c0.06-0.08,0.12-0.14,0.19-0.17c0.07-0.04,0.15-0.06,0.23-0.06
			c0.09,0,0.16,0.02,0.23,0.07c0.07,0.04,0.11,0.1,0.15,0.17c0.03,0.07,0.05,0.19,0.05,0.34v0.58H19.1v-0.54
			c0-0.13-0.01-0.22-0.02-0.26c-0.02-0.08-0.05-0.13-0.1-0.17c-0.05-0.04-0.11-0.06-0.19-0.06c-0.09,0-0.17,0.03-0.24,0.09
			c-0.07,0.06-0.12,0.13-0.14,0.22c-0.01,0.06-0.02,0.16-0.02,0.31v0.42h-0.15V36.18z"/>
		<path class="st13" d="M18.25,36.18h0.15v0.2c0.06-0.08,0.12-0.14,0.19-0.17c0.07-0.04,0.15-0.06,0.23-0.06
			c0.09,0,0.16,0.02,0.23,0.07c0.07,0.04,0.11,0.1,0.15,0.17c0.03,0.07,0.05,0.19,0.05,0.34v0.58H19.1v-0.54
			c0-0.13-0.01-0.22-0.02-0.26c-0.02-0.08-0.05-0.13-0.1-0.17c-0.05-0.04-0.11-0.06-0.19-0.06c-0.09,0-0.17,0.03-0.24,0.09
			c-0.07,0.06-0.12,0.13-0.14,0.22c-0.01,0.06-0.02,0.16-0.02,0.31v0.42h-0.15V36.18z"/>
		<path class="st12" d="M20.21,36.29c-0.12,0-0.23,0.05-0.31,0.14c-0.09,0.09-0.13,0.2-0.13,0.33c0,0.08,0.02,0.16,0.06,0.23
			c0.04,0.07,0.09,0.13,0.16,0.17c0.07,0.04,0.14,0.06,0.22,0.06c0.08,0,0.15-0.02,0.22-0.06c0.07-0.04,0.12-0.09,0.16-0.17
			c0.04-0.07,0.06-0.15,0.06-0.23c0-0.13-0.04-0.24-0.13-0.33C20.43,36.33,20.33,36.29,20.21,36.29 M20.21,36.15
			c0.17,0,0.32,0.06,0.44,0.19c0.1,0.12,0.16,0.25,0.16,0.41c0,0.16-0.06,0.3-0.17,0.42c-0.11,0.12-0.25,0.18-0.43,0.18
			c-0.18,0-0.32-0.06-0.43-0.18c-0.11-0.12-0.17-0.26-0.17-0.42c0-0.16,0.05-0.29,0.16-0.41C19.89,36.21,20.03,36.15,20.21,36.15"/>
		<path class="st13" d="M20.21,36.29c-0.12,0-0.23,0.05-0.31,0.14c-0.09,0.09-0.13,0.2-0.13,0.33c0,0.08,0.02,0.16,0.06,0.23
			c0.04,0.07,0.09,0.13,0.16,0.17c0.07,0.04,0.14,0.06,0.22,0.06c0.08,0,0.15-0.02,0.22-0.06c0.07-0.04,0.12-0.09,0.16-0.17
			c0.04-0.07,0.06-0.15,0.06-0.23c0-0.13-0.04-0.24-0.13-0.33C20.43,36.33,20.33,36.29,20.21,36.29z M20.21,36.15
			c0.17,0,0.32,0.06,0.44,0.19c0.1,0.12,0.16,0.25,0.16,0.41c0,0.16-0.06,0.3-0.17,0.42c-0.11,0.12-0.25,0.18-0.43,0.18
			c-0.18,0-0.32-0.06-0.43-0.18c-0.11-0.12-0.17-0.26-0.17-0.42c0-0.16,0.05-0.29,0.16-0.41C19.89,36.21,20.03,36.15,20.21,36.15z"
			/>
		<path class="st12" d="M21.18,36.18h0.15v0.2c0.06-0.08,0.12-0.14,0.19-0.17c0.07-0.04,0.15-0.06,0.23-0.06
			c0.09,0,0.16,0.02,0.23,0.07c0.07,0.04,0.11,0.1,0.15,0.17c0.03,0.07,0.05,0.19,0.05,0.34v0.58h-0.15v-0.54
			c0-0.13-0.01-0.22-0.02-0.26c-0.02-0.08-0.05-0.13-0.1-0.17c-0.05-0.04-0.11-0.06-0.19-0.06c-0.09,0-0.17,0.03-0.24,0.09
			c-0.07,0.06-0.12,0.13-0.14,0.22c-0.01,0.06-0.02,0.16-0.02,0.31v0.42h-0.15V36.18z"/>
		<path class="st13" d="M21.18,36.18h0.15v0.2c0.06-0.08,0.12-0.14,0.19-0.17c0.07-0.04,0.15-0.06,0.23-0.06
			c0.09,0,0.16,0.02,0.23,0.07c0.07,0.04,0.11,0.1,0.15,0.17c0.03,0.07,0.05,0.19,0.05,0.34v0.58h-0.15v-0.54
			c0-0.13-0.01-0.22-0.02-0.26c-0.02-0.08-0.05-0.13-0.1-0.17c-0.05-0.04-0.11-0.06-0.19-0.06c-0.09,0-0.17,0.03-0.24,0.09
			c-0.07,0.06-0.12,0.13-0.14,0.22c-0.01,0.06-0.02,0.16-0.02,0.31v0.42h-0.15V36.18z"/>
	</g>
	<rect x="22.49" y="36.67" class="st10" width="0.57" height="0.13"/>
	<rect x="22.49" y="36.67" class="st11" width="0.57" height="0.13"/>
	<polygon class="st10" points="24.86,36.18 24.51,37 24.14,36.18 24.11,36.18 23.75,37 23.4,36.18 23.25,36.18 23.74,37.31 
		23.77,37.31 24.13,36.5 24.49,37.31 24.52,37.31 25.01,36.18 	"/>
	<polygon class="st11" points="23.25,36.18 23.4,36.18 23.75,37 24.12,36.18 24.14,36.18 24.51,37 24.86,36.18 25.01,36.18 
		24.52,37.31 24.49,37.31 24.13,36.5 23.77,37.31 23.74,37.31 	"/>
	<g>
		<defs>
			<rect id="SVGID_25_" x="11.69" y="13.32" width="39.99" height="24.49"/>
		</defs>
		<clipPath id="SVGID_26_">
			<use xlink:href="#SVGID_25_"  style="overflow:visible;"/>
		</clipPath>
		<path class="st14" d="M26.25,36.63c-0.02-0.08-0.05-0.14-0.09-0.19c-0.04-0.05-0.09-0.08-0.15-0.11
			c-0.06-0.03-0.13-0.04-0.19-0.04c-0.11,0-0.21,0.04-0.29,0.11c-0.06,0.05-0.1,0.13-0.13,0.23H26.25z M26.25,36.94L26.37,37
			c-0.04,0.08-0.09,0.14-0.14,0.19c-0.05,0.05-0.11,0.09-0.18,0.11c-0.07,0.03-0.14,0.04-0.23,0.04c-0.18,0-0.33-0.06-0.43-0.18
			c-0.1-0.12-0.16-0.26-0.16-0.41c0-0.14,0.04-0.27,0.13-0.39c0.11-0.14,0.26-0.22,0.45-0.22c0.19,0,0.35,0.07,0.46,0.22
			c0.08,0.1,0.12,0.23,0.13,0.39h-1.02c0,0.13,0.05,0.24,0.13,0.33c0.08,0.08,0.18,0.13,0.3,0.13c0.06,0,0.11-0.01,0.17-0.03
			c0.05-0.02,0.1-0.05,0.14-0.08C26.16,37.06,26.21,37.01,26.25,36.94"/>
		<path class="st15" d="M26.25,36.63c-0.02-0.08-0.05-0.14-0.09-0.19c-0.04-0.05-0.09-0.08-0.15-0.11
			c-0.06-0.03-0.13-0.04-0.19-0.04c-0.11,0-0.21,0.04-0.29,0.11c-0.06,0.05-0.1,0.13-0.13,0.23H26.25z M26.25,36.94L26.37,37
			c-0.04,0.08-0.09,0.14-0.14,0.19c-0.05,0.05-0.11,0.09-0.18,0.11c-0.07,0.03-0.14,0.04-0.23,0.04c-0.18,0-0.33-0.06-0.43-0.18
			c-0.1-0.12-0.16-0.26-0.16-0.41c0-0.14,0.04-0.27,0.13-0.39c0.11-0.14,0.26-0.22,0.45-0.22c0.19,0,0.35,0.07,0.46,0.22
			c0.08,0.1,0.12,0.23,0.13,0.39h-1.02c0,0.13,0.05,0.24,0.13,0.33c0.08,0.08,0.18,0.13,0.3,0.13c0.06,0,0.11-0.01,0.17-0.03
			c0.05-0.02,0.1-0.05,0.14-0.08C26.16,37.06,26.21,37.01,26.25,36.94z"/>
	</g>
	<polygon class="st10" points="26.92,35.75 26.92,36.18 26.72,36.18 26.72,36.3 26.92,36.3 26.92,37.31 27.07,37.31 27.07,36.3 
		27.3,36.3 27.3,36.18 27.07,36.18 27.07,35.75 	"/>
	<polygon class="st11" points="26.92,35.75 27.07,35.75 27.07,36.18 27.3,36.18 27.3,36.3 27.07,36.3 27.07,37.31 26.92,37.31 
		26.92,36.3 26.72,36.3 26.72,36.18 26.92,36.18 	"/>
	<polygon class="st10" points="27.75,35.75 27.75,36.18 27.55,36.18 27.55,36.3 27.75,36.3 27.75,37.31 27.9,37.31 27.9,36.3 
		28.13,36.3 28.13,36.18 27.9,36.18 27.9,35.75 	"/>
	<polygon class="st11" points="27.75,35.75 27.9,35.75 27.9,36.18 28.13,36.18 28.13,36.3 27.9,36.3 27.9,37.31 27.75,37.31 
		27.75,36.3 27.55,36.3 27.55,36.18 27.75,36.18 	"/>
	<g>
		<defs>
			<rect id="SVGID_27_" x="11.69" y="13.32" width="39.99" height="24.49"/>
		</defs>
		<clipPath id="SVGID_28_">
			<use xlink:href="#SVGID_27_"  style="overflow:visible;"/>
		</clipPath>
		<path class="st16" d="M28.43,36.18h0.15v1.14h-0.15V36.18z M28.51,35.71c0.03,0,0.06,0.01,0.08,0.04
			c0.02,0.02,0.04,0.05,0.04,0.09c0,0.03-0.01,0.06-0.04,0.08c-0.02,0.02-0.05,0.04-0.08,0.04c-0.03,0-0.06-0.01-0.08-0.04
			c-0.02-0.02-0.03-0.05-0.03-0.08c0-0.03,0.01-0.06,0.03-0.09C28.45,35.72,28.48,35.71,28.51,35.71"/>
		<path class="st17" d="M28.43,36.18h0.15v1.14h-0.15V36.18z M28.51,35.71c0.03,0,0.06,0.01,0.08,0.04
			c0.02,0.02,0.04,0.05,0.04,0.09c0,0.03-0.01,0.06-0.04,0.08c-0.02,0.02-0.05,0.04-0.08,0.04c-0.03,0-0.06-0.01-0.08-0.04
			c-0.02-0.02-0.03-0.05-0.03-0.08c0-0.03,0.01-0.06,0.03-0.09C28.45,35.72,28.48,35.71,28.51,35.71z"/>
		<path class="st16" d="M28.99,36.18h0.15v0.2c0.06-0.08,0.12-0.14,0.19-0.17c0.07-0.04,0.15-0.06,0.23-0.06
			c0.08,0,0.16,0.02,0.23,0.07c0.07,0.04,0.11,0.1,0.15,0.17c0.03,0.07,0.05,0.19,0.05,0.34v0.58h-0.15v-0.54
			c0-0.13-0.01-0.22-0.02-0.26c-0.02-0.08-0.05-0.13-0.1-0.17c-0.05-0.04-0.11-0.06-0.19-0.06c-0.09,0-0.17,0.03-0.24,0.09
			c-0.07,0.06-0.12,0.13-0.14,0.22c-0.01,0.06-0.02,0.16-0.02,0.31v0.42h-0.15V36.18z"/>
		<path class="st17" d="M28.99,36.18h0.15v0.2c0.06-0.08,0.12-0.14,0.19-0.17c0.07-0.04,0.15-0.06,0.23-0.06
			c0.08,0,0.16,0.02,0.23,0.07c0.07,0.04,0.11,0.1,0.15,0.17c0.03,0.07,0.05,0.19,0.05,0.34v0.58h-0.15v-0.54
			c0-0.13-0.01-0.22-0.02-0.26c-0.02-0.08-0.05-0.13-0.1-0.17c-0.05-0.04-0.11-0.06-0.19-0.06c-0.09,0-0.17,0.03-0.24,0.09
			c-0.07,0.06-0.12,0.13-0.14,0.22c-0.01,0.06-0.02,0.16-0.02,0.31v0.42h-0.15V36.18z"/>
		<path class="st16" d="M30.95,36.29c-0.08,0-0.16,0.02-0.23,0.06c-0.07,0.04-0.13,0.1-0.17,0.17c-0.04,0.07-0.06,0.15-0.06,0.23
			c0,0.12,0.04,0.23,0.13,0.31c0.08,0.08,0.19,0.12,0.33,0.12c0.13,0,0.24-0.04,0.32-0.12c0.08-0.08,0.12-0.19,0.12-0.32
			c0-0.08-0.02-0.16-0.06-0.23s-0.09-0.12-0.16-0.16C31.11,36.31,31.03,36.29,30.95,36.29 M31.39,36.18h0.15v0.91
			c0,0.16-0.01,0.28-0.04,0.35c-0.04,0.1-0.1,0.19-0.2,0.24c-0.09,0.06-0.21,0.08-0.34,0.08c-0.1,0-0.19-0.01-0.26-0.04
			c-0.08-0.03-0.14-0.06-0.19-0.11c-0.05-0.05-0.09-0.11-0.14-0.2h0.16c0.04,0.08,0.1,0.13,0.17,0.17c0.07,0.04,0.15,0.06,0.25,0.06
			c0.1,0,0.18-0.02,0.25-0.06c0.07-0.04,0.12-0.08,0.15-0.14c0.03-0.06,0.04-0.15,0.04-0.27V37.1c-0.06,0.07-0.12,0.12-0.2,0.16
			c-0.08,0.04-0.16,0.06-0.25,0.06c-0.1,0-0.2-0.02-0.29-0.08c-0.09-0.05-0.16-0.12-0.21-0.21c-0.05-0.09-0.08-0.19-0.08-0.29
			s0.03-0.2,0.08-0.29c0.05-0.09,0.12-0.16,0.22-0.22c0.09-0.05,0.19-0.08,0.29-0.08c0.08,0,0.16,0.02,0.24,0.05
			c0.07,0.03,0.15,0.09,0.21,0.17V36.18z"/>
		<path class="st17" d="M30.95,36.29c-0.08,0-0.16,0.02-0.23,0.06c-0.07,0.04-0.13,0.1-0.17,0.17c-0.04,0.07-0.06,0.15-0.06,0.23
			c0,0.12,0.04,0.23,0.13,0.31c0.08,0.08,0.19,0.12,0.33,0.12c0.13,0,0.24-0.04,0.32-0.12c0.08-0.08,0.12-0.19,0.12-0.32
			c0-0.08-0.02-0.16-0.06-0.23s-0.09-0.12-0.16-0.16C31.11,36.31,31.03,36.29,30.95,36.29z M31.39,36.18h0.15v0.91
			c0,0.16-0.01,0.28-0.04,0.35c-0.04,0.1-0.1,0.19-0.2,0.24c-0.09,0.06-0.21,0.08-0.34,0.08c-0.1,0-0.19-0.01-0.26-0.04
			c-0.08-0.03-0.14-0.06-0.19-0.11c-0.05-0.05-0.09-0.11-0.14-0.2h0.16c0.04,0.08,0.1,0.13,0.17,0.17c0.07,0.04,0.15,0.06,0.25,0.06
			c0.1,0,0.18-0.02,0.25-0.06c0.07-0.04,0.12-0.08,0.15-0.14c0.03-0.06,0.04-0.15,0.04-0.27V37.1c-0.06,0.07-0.12,0.12-0.2,0.16
			c-0.08,0.04-0.16,0.06-0.25,0.06c-0.1,0-0.2-0.02-0.29-0.08c-0.09-0.05-0.16-0.12-0.21-0.21c-0.05-0.09-0.08-0.19-0.08-0.29
			s0.03-0.2,0.08-0.29c0.05-0.09,0.12-0.16,0.22-0.22c0.09-0.05,0.19-0.08,0.29-0.08c0.08,0,0.16,0.02,0.24,0.05
			c0.07,0.03,0.15,0.09,0.21,0.17V36.18z"/>
		<path class="st16" d="M33.12,35.74v0.14c-0.05-0.02-0.1-0.03-0.14-0.03c-0.03,0-0.05,0.01-0.07,0.02
			c-0.02,0.01-0.03,0.02-0.03,0.04c0,0.01-0.01,0.05-0.01,0.12v0.15h0.24v0.13h-0.24l0,1.01h-0.15V36.3h-0.15v-0.13h0.15V36
			c0-0.08,0.01-0.14,0.02-0.17c0.01-0.03,0.04-0.06,0.08-0.08c0.04-0.02,0.08-0.03,0.13-0.03C33,35.71,33.05,35.72,33.12,35.74"/>
		<path class="st17" d="M33.12,35.74v0.14c-0.05-0.02-0.1-0.03-0.14-0.03c-0.03,0-0.05,0.01-0.07,0.02
			c-0.02,0.01-0.03,0.02-0.03,0.04c0,0.01-0.01,0.05-0.01,0.12v0.15h0.24v0.13h-0.24l0,1.01h-0.15V36.3h-0.15v-0.13h0.15V36
			c0-0.08,0.01-0.14,0.02-0.17c0.01-0.03,0.04-0.06,0.08-0.08c0.04-0.02,0.08-0.03,0.13-0.03C33,35.71,33.05,35.72,33.12,35.74z"/>
		<path class="st16" d="M33.98,36.29c-0.08,0-0.16,0.02-0.23,0.06c-0.07,0.04-0.12,0.1-0.16,0.17c-0.04,0.07-0.06,0.15-0.06,0.23
			c0,0.08,0.02,0.16,0.06,0.23c0.04,0.07,0.1,0.13,0.17,0.17c0.07,0.04,0.14,0.06,0.22,0.06c0.08,0,0.16-0.02,0.23-0.06
			c0.07-0.04,0.13-0.09,0.17-0.16c0.04-0.07,0.06-0.15,0.06-0.23c0-0.13-0.04-0.24-0.13-0.33C34.21,36.33,34.11,36.29,33.98,36.29
			 M34.57,36.18v1.14h-0.14v-0.19c-0.06,0.08-0.13,0.13-0.21,0.17c-0.08,0.04-0.16,0.06-0.25,0.06c-0.16,0-0.3-0.06-0.41-0.18
			c-0.11-0.12-0.17-0.26-0.17-0.43c0-0.16,0.06-0.3,0.17-0.42c0.12-0.12,0.25-0.18,0.42-0.18c0.09,0,0.18,0.02,0.25,0.06
			c0.07,0.04,0.14,0.1,0.2,0.18v-0.21H34.57z"/>
		<path class="st17" d="M33.98,36.29c-0.08,0-0.16,0.02-0.23,0.06c-0.07,0.04-0.12,0.1-0.16,0.17c-0.04,0.07-0.06,0.15-0.06,0.23
			c0,0.08,0.02,0.16,0.06,0.23c0.04,0.07,0.1,0.13,0.17,0.17c0.07,0.04,0.14,0.06,0.22,0.06c0.08,0,0.16-0.02,0.23-0.06
			c0.07-0.04,0.13-0.09,0.17-0.16c0.04-0.07,0.06-0.15,0.06-0.23c0-0.13-0.04-0.24-0.13-0.33C34.21,36.33,34.11,36.29,33.98,36.29z
			 M34.57,36.18v1.14h-0.14v-0.19c-0.06,0.08-0.13,0.13-0.21,0.17c-0.08,0.04-0.16,0.06-0.25,0.06c-0.16,0-0.3-0.06-0.41-0.18
			c-0.11-0.12-0.17-0.26-0.17-0.43c0-0.16,0.06-0.3,0.17-0.42c0.12-0.12,0.25-0.18,0.42-0.18c0.09,0,0.18,0.02,0.25,0.06
			c0.07,0.04,0.14,0.1,0.2,0.18v-0.21H34.57z"/>
		<path class="st16" d="M35.6,37.2c0.08,0,0.16-0.02,0.22-0.06s0.12-0.1,0.16-0.17c0.04-0.07,0.06-0.15,0.06-0.23
			c0-0.08-0.02-0.16-0.06-0.23c-0.04-0.07-0.1-0.13-0.17-0.17c-0.07-0.04-0.14-0.06-0.22-0.06c-0.08,0-0.16,0.02-0.23,0.06
			c-0.07,0.04-0.13,0.1-0.17,0.16c-0.04,0.07-0.06,0.15-0.06,0.23c0,0.13,0.04,0.24,0.13,0.33C35.36,37.16,35.47,37.2,35.6,37.2
			 M35.01,37.31v-1.58h0.15v0.63c0.06-0.08,0.13-0.13,0.21-0.17c0.08-0.04,0.16-0.06,0.25-0.06c0.16,0,0.3,0.06,0.41,0.18
			c0.11,0.12,0.17,0.26,0.17,0.42c0,0.16-0.06,0.3-0.17,0.42c-0.11,0.12-0.25,0.17-0.42,0.17c-0.09,0-0.18-0.02-0.25-0.06
			c-0.07-0.04-0.14-0.1-0.2-0.18v0.21H35.01z"/>
		<path class="st17" d="M35.6,37.2c0.08,0,0.16-0.02,0.22-0.06s0.12-0.1,0.16-0.17c0.04-0.07,0.06-0.15,0.06-0.23
			c0-0.08-0.02-0.16-0.06-0.23c-0.04-0.07-0.1-0.13-0.17-0.17c-0.07-0.04-0.14-0.06-0.22-0.06c-0.08,0-0.16,0.02-0.23,0.06
			c-0.07,0.04-0.13,0.1-0.17,0.16c-0.04,0.07-0.06,0.15-0.06,0.23c0,0.13,0.04,0.24,0.13,0.33C35.36,37.16,35.47,37.2,35.6,37.2z
			 M35.01,37.31v-1.58h0.15v0.63c0.06-0.08,0.13-0.13,0.21-0.17c0.08-0.04,0.16-0.06,0.25-0.06c0.16,0,0.3,0.06,0.41,0.18
			c0.11,0.12,0.17,0.26,0.17,0.42c0,0.16-0.06,0.3-0.17,0.42c-0.11,0.12-0.25,0.17-0.42,0.17c-0.09,0-0.18-0.02-0.25-0.06
			c-0.07-0.04-0.14-0.1-0.2-0.18v0.21H35.01z"/>
		<path class="st16" d="M36.51,36.18h0.15v0.17c0.04-0.06,0.09-0.11,0.14-0.15c0.05-0.03,0.1-0.05,0.15-0.05
			c0.04,0,0.08,0.01,0.13,0.04l-0.08,0.12c-0.03-0.01-0.06-0.02-0.08-0.02c-0.05,0-0.1,0.02-0.14,0.06c-0.04,0.04-0.08,0.1-0.1,0.19
			c-0.02,0.06-0.03,0.19-0.03,0.39v0.38h-0.15V36.18z"/>
		<path class="st17" d="M36.51,36.18h0.15v0.17c0.04-0.06,0.09-0.11,0.14-0.15c0.05-0.03,0.1-0.05,0.15-0.05
			c0.04,0,0.08,0.01,0.13,0.04l-0.08,0.12c-0.03-0.01-0.06-0.02-0.08-0.02c-0.05,0-0.1,0.02-0.14,0.06c-0.04,0.04-0.08,0.1-0.1,0.19
			c-0.02,0.06-0.03,0.19-0.03,0.39v0.38h-0.15V36.18z"/>
		<path class="st16" d="M37.3,36.18h0.15v1.14H37.3V36.18z M37.37,35.71c0.03,0,0.06,0.01,0.08,0.04c0.02,0.02,0.04,0.05,0.04,0.09
			c0,0.03-0.01,0.06-0.04,0.08c-0.02,0.02-0.05,0.04-0.08,0.04s-0.06-0.01-0.08-0.04c-0.02-0.02-0.04-0.05-0.04-0.08
			c0-0.03,0.01-0.06,0.04-0.09C37.31,35.72,37.34,35.71,37.37,35.71"/>
		<path class="st17" d="M37.3,36.18h0.15v1.14H37.3V36.18z M37.37,35.71c0.03,0,0.06,0.01,0.08,0.04c0.02,0.02,0.04,0.05,0.04,0.09
			c0,0.03-0.01,0.06-0.04,0.08c-0.02,0.02-0.05,0.04-0.08,0.04s-0.06-0.01-0.08-0.04c-0.02-0.02-0.04-0.05-0.04-0.08
			c0-0.03,0.01-0.06,0.04-0.09C37.31,35.72,37.34,35.71,37.37,35.71z"/>
		<path class="st16" d="M38.96,36.41l-0.12,0.07c-0.1-0.13-0.24-0.2-0.41-0.2c-0.14,0-0.25,0.04-0.35,0.13
			c-0.09,0.09-0.14,0.2-0.14,0.33c0,0.08,0.02,0.16,0.06,0.23c0.04,0.07,0.1,0.13,0.17,0.17c0.07,0.04,0.15,0.06,0.25,0.06
			c0.17,0,0.3-0.07,0.41-0.2l0.12,0.08c-0.06,0.08-0.13,0.15-0.22,0.19c-0.09,0.05-0.2,0.07-0.31,0.07c-0.18,0-0.33-0.06-0.45-0.17
			c-0.12-0.11-0.18-0.25-0.18-0.42c0-0.11,0.03-0.21,0.08-0.31c0.06-0.09,0.13-0.17,0.23-0.22c0.1-0.05,0.21-0.08,0.33-0.08
			c0.08,0,0.15,0.01,0.22,0.03s0.13,0.05,0.18,0.09C38.88,36.31,38.92,36.36,38.96,36.41"/>
		<path class="st17" d="M38.96,36.41l-0.12,0.07c-0.1-0.13-0.24-0.2-0.41-0.2c-0.14,0-0.25,0.04-0.35,0.13
			c-0.09,0.09-0.14,0.2-0.14,0.33c0,0.08,0.02,0.16,0.06,0.23c0.04,0.07,0.1,0.13,0.17,0.17c0.07,0.04,0.15,0.06,0.25,0.06
			c0.17,0,0.3-0.07,0.41-0.2l0.12,0.08c-0.06,0.08-0.13,0.15-0.22,0.19c-0.09,0.05-0.2,0.07-0.31,0.07c-0.18,0-0.33-0.06-0.45-0.17
			c-0.12-0.11-0.18-0.25-0.18-0.42c0-0.11,0.03-0.21,0.08-0.31c0.06-0.09,0.13-0.17,0.23-0.22c0.1-0.05,0.21-0.08,0.33-0.08
			c0.08,0,0.15,0.01,0.22,0.03s0.13,0.05,0.18,0.09C38.88,36.31,38.92,36.36,38.96,36.41z"/>
		<path class="st16" d="M39.92,36.3l-0.1,0.1c-0.08-0.08-0.15-0.11-0.23-0.11c-0.05,0-0.09,0.02-0.12,0.05
			c-0.03,0.03-0.05,0.07-0.05,0.11c0,0.04,0.02,0.07,0.04,0.11c0.03,0.03,0.09,0.07,0.18,0.12c0.11,0.06,0.18,0.11,0.22,0.16
			c0.04,0.05,0.06,0.11,0.06,0.18c0,0.09-0.03,0.17-0.1,0.24c-0.06,0.06-0.15,0.1-0.25,0.1c-0.06,0-0.13-0.01-0.19-0.04
			c-0.06-0.03-0.11-0.07-0.15-0.12l0.09-0.1c0.07,0.08,0.15,0.13,0.24,0.13c0.06,0,0.11-0.02,0.15-0.06
			c0.04-0.04,0.06-0.08,0.06-0.13c0-0.04-0.01-0.08-0.04-0.11c-0.03-0.03-0.09-0.07-0.18-0.12c-0.1-0.05-0.17-0.1-0.21-0.16
			c-0.04-0.05-0.05-0.11-0.05-0.18c0-0.09,0.03-0.16,0.09-0.22c0.06-0.06,0.13-0.09,0.22-0.09C39.71,36.15,39.81,36.2,39.92,36.3"/>
		<path class="st17" d="M39.92,36.3l-0.1,0.1c-0.08-0.08-0.15-0.11-0.23-0.11c-0.05,0-0.09,0.02-0.12,0.05
			c-0.03,0.03-0.05,0.07-0.05,0.11c0,0.04,0.02,0.07,0.04,0.11c0.03,0.03,0.09,0.07,0.18,0.12c0.11,0.06,0.18,0.11,0.22,0.16
			c0.04,0.05,0.06,0.11,0.06,0.18c0,0.09-0.03,0.17-0.1,0.24c-0.06,0.06-0.15,0.1-0.25,0.1c-0.06,0-0.13-0.01-0.19-0.04
			c-0.06-0.03-0.11-0.07-0.15-0.12l0.09-0.1c0.07,0.08,0.15,0.13,0.24,0.13c0.06,0,0.11-0.02,0.15-0.06
			c0.04-0.04,0.06-0.08,0.06-0.13c0-0.04-0.01-0.08-0.04-0.11c-0.03-0.03-0.09-0.07-0.18-0.12c-0.1-0.05-0.17-0.1-0.21-0.16
			c-0.04-0.05-0.05-0.11-0.05-0.18c0-0.09,0.03-0.16,0.09-0.22c0.06-0.06,0.13-0.09,0.22-0.09C39.71,36.15,39.81,36.2,39.92,36.3z"
			/>
	</g>
</g>
</svg>
