<svg xmlns="http://www.w3.org/2000/svg" width="63" height="63" viewBox="0 0 63 63">
  <g id="Raggruppa_919" data-name="Raggruppa 919" transform="translate(-329 -115)">
    <g id="Raggruppa_884" data-name="Raggruppa 884" transform="translate(347.07 142.759)">
      <path id="Tracciato_15" data-name="Tracciato 15" d="M0,16.958H28.651M0,11.719H28.651M19.08-5.258c2.066,2.066,1.883,6.853,1.731,8.67a.858.858,0,0,1-.786.784c-1.815.154-6.606.337-8.672-1.729C8.9.014,6.105-7.263,4.909-10.6a.866.866,0,0,1,1.109-1.109C9.351-10.509,16.628-7.71,19.08-5.258ZM9.273-7.341,23.8,7.182" fill="none" stroke="#000" stroke-miterlimit="10" stroke-width="1.5"/>
    </g>
    <g id="Ellisse_43" data-name="Ellisse 43" transform="translate(329 115)" fill="none" stroke="#000" stroke-width="1.5">
      <circle cx="31.5" cy="31.5" r="31.5" stroke="none"/>
      <circle cx="31.5" cy="31.5" r="30.75" fill="none"/>
    </g>
  </g>
</svg>