<svg version="1.1" id="Livello_1" xmlns="http://www.w3.org/2000/svg" xmlns:xlink="http://www.w3.org/1999/xlink" x="0px" y="0px"
	 viewBox="0 0 63.37 51.13" style="enable-background:new 0 0 63.37 51.13;" xml:space="preserve">
<style type="text/css">
	.st0{clip-path:url(#SVGID_2_);fill:#706F6F;}
	.st1{fill:#706F6F;}
</style>
<g>
	<g>
		<defs>
			<rect id="SVGID_1_" x="16.94" y="11.18" width="29.49" height="28.77"/>
		</defs>
		<clipPath id="SVGID_2_">
			<use xlink:href="#SVGID_1_"  style="overflow:visible;"/>
		</clipPath>
		<path class="st0" d="M37.26,32.02c-0.06-0.32-0.28-1.48-0.41-2.02c-0.12-0.55-0.22-1.23-0.97-1.31c-0.35-0.04-1.16-0.06-1.95-0.08
			c-0.94-0.02-1.84-0.05-1.84-0.05v0.38v9.4l2.62-0.7l-0.3-3.76l0.92-0.11l1.12,3.41l1.99-0.53l-1.54-3.79
			C37.19,32.7,37.32,32.34,37.26,32.02 M34.18,31.82l-0.16-1.74l1.26,0.02l0.23,1.67L34.18,31.82z M41.01,29.61
			c-0.13-0.32-0.41-0.81-1.31-0.85l-2.3-0.06l2.12,7.66c0,0,2.93-0.78,3.22-0.86c0.28-0.09,0.48-0.58,0.31-1.1
			C42.8,33.64,41.05,29.7,41.01,29.61 M40.41,33.88l-1.24-3.73l0.93,0.01l1.37,3.57L40.41,33.88z M46.38,34.52
			c-0.3,0.08-0.88,0.23-1.54,0.41c-0.63,0.17-1.28-1.24-1.59-1.95l1.1-0.09l0.22,0.44l0.72-0.1l-0.46-0.86l-1.06,0.13
			c-0.4,0.01-0.82-0.22-1-0.58c-0.18-0.36-0.81-1.74-1.06-2.35c-0.25-0.61,0.03-0.76,0.25-0.75c0.21,0.01,0.59,0.02,1.08,0.03
			c0.48,0.01,0.81,0.18,0.99,0.49c0.2,0.35,0.74,1.27,0.74,1.27l-0.89,0l-0.24-0.38L43,30.21l0.52,1.06l0.9-0.03
			c0.52-0.02,0.86,0.29,1.13,0.73c0.27,0.43,0.59,0.96,0.9,1.5C46.76,34.01,46.64,34.45,46.38,34.52 M36.66,23.03l-2.48-0.65
			l0.1,1.19l1.93,0.35l0.33,1.2l-2.14-0.32l0.09,1.14l3.48,0.39l0.42,1.35l-6.29-0.37l0-6.76l4.3,1.47L36.66,23.03z M21.58,28.75
			c-0.33,0.02-0.94,0.02-1.12,0.03c-0.17,0.01-0.44,0.36-0.68,0.79C19.54,30,17,34.33,17,34.33l0.77,0.22l0.95-1.82l0.57,0.07
			l-0.95,1.91l0.85,0.25c0,0,2.37-5.17,2.52-5.53C21.87,29.07,21.91,28.73,21.58,28.75 M20.07,31.24l-0.55-0.03l0.51-0.97l0.54-0.01
			L20.07,31.24z M26.96,28.62l-1.81,8l-1.92-0.55l-0.05-2.82l-1.41,2.41l-1.9-0.53l2.74-6.4l0.94-0.03l-1.45,3.96l1.22-1.63
			l0.84,0.03l0.12,1.9l1.29-4.3L26.96,28.62L26.96,28.62z M31.33,29.14c-0.11-0.42-0.4-0.63-0.66-0.61
			c-0.38,0.02-1.85,0.04-2.31,0.06c-0.2,0.01-0.39,0.09-0.55,0.21c-0.2,0.16-0.36,0.4-0.41,0.65c-0.09,0.45-1.51,7.37-1.51,7.37
			l1.67,0.47l0.53-3.45L29.36,34l-0.35,3.7l2.39,0.67c0,0-0.01-7.61,0-8.5C31.41,29.59,31.38,29.34,31.33,29.14 M29.56,31.82
			l-1.17-0.08l0.22-1.63l1.09-0.02L29.56,31.82z M27.46,27.54l0.67-2.41c0,0,1.95-0.29,2.32-0.35c0.37-0.05,0.85-0.33,0.85-1.02
			l0.1-2.83c0-0.16-0.2-0.24-0.39-0.18c-0.19,0.06-3.5,1.24-3.5,1.24l-2.05,5.68L27.46,27.54z M28.79,22.52l1.15-0.34l-0.16,1.56
			l-1.38,0.21L28.79,22.52z M23.09,25.82l0.74-0.12l-0.94,2.12c0.24-0.01,1.58-0.1,1.58-0.1s1.83-4.62,1.96-4.98
			c0.12-0.36-0.03-0.46-0.22-0.39c-0.19,0.06-2.23,0.76-2.39,0.81c-0.16,0.05-0.42,0.29-0.52,0.44l-2.67,4.36L22,27.89L23.09,25.82z
			 M24.06,23.69l0.78-0.21l-0.55,1.08l-0.81,0.13L24.06,23.69z M40.08,23.06l0.71,0.25l0.45,0.74l-0.01,1.13l1.01,1.08l0.52,0.56
			l0.67,1.16l-1.33-0.07l-0.98-1.14l-0.25-0.29l0.02,0.39l0.06,0.92l-1.6-0.09l-0.1-0.3l-0.35-1.06l0.38-1.21l-1.54-1.96l-0.4-1.02
			l1.48,0.52l1.07,1.43L40.08,23.06z"/>
	</g>
	<polygon class="st1" points="26.71,20 29.47,19 28.95,16.8 	"/>
	<path class="st1" d="M29.17,16.1l0.72,3.06l-3.87,1.4L29.17,16.1z M29.58,16.25l0.28-0.4l0.72,3.05l-0.35,0.13L29.58,16.25z
		 M30.27,16l0.28-0.4l0.72,3.05l-0.33,0.12L30.27,16z M32.13,19.19v-7.28l7.52,10L32.13,19.19z M23.89,22.57l8.08-3.1l8.57,3.1
		l-8.57-11.4L23.89,22.57z"/>
	<path class="st1" d="M32.64,18.59l3.87,1.35l-3.2-4.23L32.64,18.59z M35.65,19.33l-2.59-0.89l0.45-1.92L35.65,19.33z"/>
	<polygon class="st1" points="34.02,16.25 36.95,20.09 37.37,20.24 34.1,15.9 	"/>
	<polygon class="st1" points="34.9,16.17 34.82,16.52 37.75,20.36 38.2,20.52 	"/>
</g>
</svg>
