<svg version="1.1" id="Livello_1" xmlns="http://www.w3.org/2000/svg" xmlns:xlink="http://www.w3.org/1999/xlink" x="0px" y="0px"
	 viewBox="0 0 63.37 51.13" style="enable-background:new 0 0 63.37 51.13;" xml:space="preserve">
<style type="text/css">
	.st0{clip-path:url(#SVGID_2_);fill:#575756;}
	.st1{fill:#575756;}
	.st2{clip-path:url(#SVGID_4_);fill:#575756;}
	.st3{clip-path:url(#SVGID_6_);fill:#575756;}
	.st4{clip-path:url(#SVGID_8_);fill:#575756;}
</style>
<g>
	<g>
		<defs>
			<rect id="SVGID_1_" x="6.63" y="7.69" width="53.21" height="34.38"/>
		</defs>
		<clipPath id="SVGID_2_">
			<use xlink:href="#SVGID_1_"  style="overflow:visible;"/>
		</clipPath>
		<path class="st0" d="M57.08,8.07H56.4v1.48h-2.01V8.07h-0.68v3.55h0.68v-1.54h2.01v1.54h0.69V8.07z M53.11,8.07h-3.27v0.55h1.29v3
			h0.68v-3h1.3V8.07z M49.25,8.07h-0.69v3.55h0.69V8.07z M43.66,11.62h0.8l0.76-2.58c0.03-0.1,0.05-0.18,0.05-0.24h0.02
			c0,0.06,0.02,0.14,0.05,0.24l0.76,2.58h0.79l1.02-3.55h-0.7l-0.67,2.6c-0.03,0.15-0.05,0.24-0.05,0.26h-0.01
			c0-0.05-0.02-0.14-0.06-0.26l-0.78-2.6h-0.69l-0.78,2.6c-0.04,0.12-0.06,0.21-0.06,0.26h-0.02c0-0.06-0.02-0.15-0.05-0.26
			l-0.67-2.6h-0.69L43.66,11.62z M37.77,11.1V8.59h0.9c0.38,0,0.69,0.11,0.91,0.33c0.22,0.22,0.33,0.52,0.33,0.9
			c0,0.25-0.05,0.48-0.15,0.67c-0.1,0.19-0.24,0.34-0.42,0.45c-0.19,0.11-0.4,0.16-0.66,0.16H37.77z M37.08,11.62h1.63
			c0.37,0,0.7-0.07,0.99-0.22c0.29-0.15,0.51-0.36,0.67-0.64c0.16-0.27,0.24-0.59,0.24-0.95c0-0.36-0.08-0.67-0.24-0.93
			c-0.16-0.26-0.38-0.46-0.67-0.6c-0.29-0.14-0.62-0.21-1-0.21h-1.64V11.62z M34.07,11.09v-1.03h2.02V9.55h-2.02V8.59h2.1V8.07
			h-2.79v3.55h2.83v-0.52H34.07z M31.3,9.8h-0.98V8.58h0.98c0.23,0,0.4,0.05,0.53,0.16c0.13,0.11,0.19,0.26,0.19,0.45
			c0,0.19-0.06,0.34-0.19,0.45C31.7,9.74,31.52,9.8,31.3,9.8 M31.44,8.07h-1.8v3.55h0.68v-1.31h1.08c0.27,0,0.51-0.05,0.71-0.14
			c0.2-0.09,0.36-0.22,0.47-0.4c0.11-0.17,0.16-0.37,0.16-0.6c0-0.22-0.05-0.42-0.16-0.58c-0.11-0.17-0.26-0.29-0.45-0.38
			S31.7,8.07,31.44,8.07 M26.96,11.18c-0.25,0-0.47-0.06-0.66-0.17c-0.19-0.11-0.34-0.27-0.44-0.47c-0.1-0.2-0.15-0.44-0.15-0.7
			c0-0.27,0.05-0.51,0.15-0.71c0.1-0.2,0.25-0.36,0.44-0.47c0.19-0.11,0.41-0.16,0.66-0.16c0.25,0,0.47,0.05,0.66,0.16
			c0.19,0.11,0.33,0.26,0.43,0.47c0.1,0.2,0.15,0.44,0.15,0.71c0,0.27-0.05,0.51-0.15,0.71c-0.1,0.2-0.25,0.36-0.43,0.47
			C27.44,11.12,27.21,11.18,26.96,11.18 M26.96,11.72c0.39,0,0.73-0.08,1.03-0.23c0.3-0.15,0.53-0.37,0.69-0.66
			c0.16-0.28,0.24-0.61,0.24-0.99s-0.08-0.71-0.24-0.99c-0.16-0.28-0.39-0.5-0.69-0.65c-0.3-0.15-0.64-0.23-1.03-0.23
			c-0.39,0-0.74,0.08-1.03,0.23c-0.3,0.15-0.53,0.37-0.69,0.65C25.08,9.13,25,9.46,25,9.84c0,0.37,0.08,0.7,0.24,0.98
			c0.16,0.28,0.39,0.5,0.69,0.66C26.23,11.64,26.57,11.72,26.96,11.72 M22.12,11.62h2.67v-0.56H22.8V8.07h-0.68V11.62z M19.11,11.09
			v-1.03h2.02V9.55h-2.02V8.59h2.11V8.07h-2.79v3.55h2.83v-0.52H19.11z M15.61,11.62h0.79l1.47-3.55h-0.74l-0.99,2.52
			c-0.06,0.15-0.1,0.29-0.12,0.42h-0.02c-0.02-0.12-0.06-0.26-0.12-0.42l-0.99-2.52h-0.74L15.61,11.62z M11.56,11.09v-1.03h2.02
			V9.55h-2.02V8.59h2.1V8.07h-2.79v3.55h2.82v-0.52H11.56z M7.31,11.1V8.59h0.89c0.38,0,0.69,0.11,0.91,0.33
			c0.22,0.22,0.33,0.52,0.33,0.9c0,0.25-0.05,0.48-0.15,0.67c-0.1,0.19-0.24,0.34-0.42,0.45c-0.18,0.11-0.4,0.16-0.66,0.16H7.31z
			 M6.63,11.62h1.63c0.37,0,0.7-0.07,0.99-0.22c0.29-0.15,0.51-0.36,0.67-0.64c0.16-0.27,0.24-0.59,0.24-0.95
			c0-0.36-0.08-0.67-0.24-0.93c-0.16-0.26-0.38-0.46-0.66-0.6c-0.29-0.14-0.62-0.21-1-0.21H6.63V11.62z"/>
		<path class="st0" d="M36.55,28.06c1.21,1.28,2.82,1.99,4.54,1.99c1.71,0,3.33-0.71,4.54-1.99l-1.4-1.48
			c-0.84,0.89-1.95,1.38-3.14,1.38c-1.19,0-2.3-0.49-3.14-1.38c-0.84-0.89-1.3-2.07-1.3-3.32c0-1.25,0.46-2.43,1.3-3.32l-1.4-1.48
			c-1.21,1.28-1.88,2.99-1.88,4.8C34.67,25.07,35.34,26.78,36.55,28.06"/>
		<path class="st0" d="M46.65,29.13c-1.48,1.57-3.46,2.43-5.55,2.43s-4.07-0.86-5.55-2.43c-3.06-3.24-3.06-8.51,0-11.75l-1.4-1.48
			L17.97,33h2.8l10.59-11.2c-0.1,0.74-0.12,1.49-0.07,2.23c-1.25,1.43-2.56,2.77-3.93,4.19c-1.28,1.32-2.6,2.68-3.88,4.11
			c-0.23,0.22-0.45,0.45-0.67,0.67h2.8c1.03-1.13,2.09-2.22,3.13-3.29c1-1.03,2.03-2.09,3.03-3.18c0.47,1.49,1.26,2.89,2.37,4.07
			c1.86,1.96,4.33,3.05,6.95,3.05s5.1-1.08,6.95-3.05L46.65,29.13z"/>
	</g>
	<path class="st1" d="M17.21,38.8l0.48,1.47h-0.95L17.21,38.8z M16.81,37.48l-1.53,4.53h0.86l0.31-0.91h1.52l0.31,0.91h0.86
		l-1.53-4.53H16.81z"/>
	<g>
		<defs>
			<rect id="SVGID_3_" x="6.63" y="7.69" width="53.21" height="34.38"/>
		</defs>
		<clipPath id="SVGID_4_">
			<use xlink:href="#SVGID_3_"  style="overflow:visible;"/>
		</clipPath>
		<path class="st2" d="M22.79,37.48v2.92c0,1-0.59,1.68-1.62,1.68s-1.62-0.67-1.62-1.68v-2.92h0.82v2.92c0,0.52,0.35,0.82,0.8,0.82
			c0.45,0,0.8-0.29,0.8-0.82v-2.92H22.79z"/>
		<path class="st2" d="M23.49,40.58h0.84c0.05,0.38,0.33,0.63,0.74,0.63c0.36,0,0.61-0.14,0.61-0.45c0-0.25-0.14-0.4-0.44-0.48
			l-0.72-0.21c-0.65-0.19-0.98-0.67-0.98-1.34c0-0.91,0.67-1.32,1.42-1.32c0.86,0,1.39,0.53,1.48,1.3H25.6
			c-0.07-0.3-0.37-0.44-0.65-0.44c-0.34,0-0.59,0.14-0.59,0.46c0,0.26,0.2,0.38,0.43,0.45l0.7,0.2c0.66,0.19,1.02,0.62,1.02,1.38
			c0,0.82-0.5,1.31-1.43,1.31C24.14,42.07,23.53,41.48,23.49,40.58"/>
		<path class="st2" d="M30.42,40.49c-0.04,0.95-0.62,1.58-1.62,1.58c-1.03,0-1.62-0.67-1.62-1.68v-1.31c0-1,0.59-1.68,1.62-1.68
			c1,0,1.58,0.63,1.62,1.58H29.6c-0.04-0.46-0.37-0.72-0.79-0.72c-0.45,0-0.8,0.29-0.8,0.82v1.31c0,0.52,0.35,0.82,0.8,0.82
			c0.42,0,0.75-0.25,0.79-0.72H30.42z"/>
	</g>
	<polygon class="st1" points="33.62,37.48 32.62,39.37 31.63,37.48 30.69,37.48 32.21,40.36 32.21,42.01 33.03,42.01 33.03,40.36 
		34.55,37.48 	"/>
	<g>
		<defs>
			<rect id="SVGID_5_" x="6.63" y="7.69" width="53.21" height="34.38"/>
		</defs>
		<clipPath id="SVGID_6_">
			<use xlink:href="#SVGID_5_"  style="overflow:visible;"/>
		</clipPath>
		<path class="st3" d="M38.08,40.49c-0.04,0.95-0.62,1.58-1.62,1.58c-1.03,0-1.62-0.67-1.62-1.68v-1.31c0-1,0.59-1.68,1.62-1.68
			c1,0,1.58,0.63,1.62,1.58h-0.83c-0.04-0.46-0.37-0.72-0.79-0.72c-0.45,0-0.8,0.29-0.8,0.82v1.31c0,0.52,0.35,0.82,0.8,0.82
			c0.42,0,0.75-0.25,0.79-0.72H38.08z"/>
	</g>
	<polygon class="st1" points="38.84,37.48 38.84,42.01 41.45,42.01 41.45,41.15 39.66,41.15 39.66,37.48 	"/>
	<rect x="42.12" y="37.48" class="st1" width="0.82" height="4.53"/>
	<polygon class="st1" points="46.28,37.48 46.28,40.4 44.69,37.48 43.87,37.48 43.87,42.01 44.69,42.01 44.69,39.09 46.28,42.01 
		47.1,42.01 47.1,37.48 	"/>
	<g>
		<defs>
			<rect id="SVGID_7_" x="6.63" y="7.69" width="53.21" height="34.38"/>
		</defs>
		<clipPath id="SVGID_8_">
			<use xlink:href="#SVGID_7_"  style="overflow:visible;"/>
		</clipPath>
		<path class="st4" d="M49.57,39.42h1.62v0.98c0,1-0.59,1.68-1.62,1.68c-1.03,0-1.62-0.67-1.62-1.68v-1.31c0-1,0.59-1.68,1.62-1.68
			c0.97,0,1.54,0.6,1.61,1.5h-0.83c-0.07-0.41-0.39-0.63-0.78-0.63c-0.45,0-0.8,0.29-0.8,0.82v1.31c0,0.52,0.35,0.82,0.8,0.82
			c0.45,0,0.8-0.29,0.8-0.82v-0.12h-0.8V39.42z"/>
	</g>
</g>
</svg>