<svg version="1.1" id="Livello_1" xmlns="http://www.w3.org/2000/svg" xmlns:xlink="http://www.w3.org/1999/xlink" x="0px" y="0px"
	 viewBox="0 0 63.4 51.1" style="enable-background:new 0 0 63.4 51.1;" xml:space="preserve">
<style type="text/css">
	.st0{clip-path:url(#SVGID_00000010308764746338501000000009749162286650356356_);fill:#6F6F6E;}
	.st1{fill:#6F6F6E;}
	.st2{clip-path:url(#SVGID_00000125599991603619754830000008729649970951199882_);fill:#6F6F6E;}
</style>
<g>
	<g>
		<defs>
			<rect id="SVGID_1_" x="23.1" y="8.3" width="17.2" height="29.4"/>
		</defs>
		<clipPath id="SVGID_00000052069585118178724510000009596529900835600541_">
			<use xlink:href="#SVGID_1_"  style="overflow:visible;"/>
		</clipPath>
		<path style="clip-path:url(#SVGID_00000052069585118178724510000009596529900835600541_);fill:#6F6F6E;" d="M28.5,23.6
			c-0.1-0.1-0.2-0.2-0.2-0.3c-0.1-0.1-0.2-0.2-0.2-0.3c-0.1-0.1-0.2-0.2-0.3-0.3c-0.1-0.1-0.2-0.2-0.3-0.4c0-0.1-0.1-0.1-0.1-0.2
			c0-0.1-0.1-0.1-0.1-0.2c-0.1-0.1-0.2-0.3-0.3-0.4c-0.2-0.3-0.3-0.6-0.5-0.9c-0.2-0.3-0.3-0.7-0.5-1c-0.1-0.3-0.3-0.7-0.4-1
			c-0.1-0.3-0.2-0.7-0.3-1c0-0.2-0.1-0.3-0.1-0.5c0-0.1,0-0.2-0.1-0.2c0-0.1,0-0.2,0-0.2c0-0.2-0.1-0.3-0.1-0.4c0-0.1,0-0.3-0.1-0.4
			c0-0.1,0-0.3-0.1-0.4c0-0.1,0-0.2,0-0.3c0-0.1,0-0.2,0-0.3c0-0.1,0-0.2,0-0.3c0-0.2,0-0.3,0-0.4l-0.3-2.4
			c-0.3,0.7-3.9,9.9,1.5,12.5c0,0,1.3,0.5,2.5,0c0,0,0.1,0,0.1-0.1c0,0,0,0,0.1,0c0,0-0.1-0.1-0.1-0.1
			C28.6,23.8,28.5,23.7,28.5,23.6"/>
		<path style="clip-path:url(#SVGID_00000052069585118178724510000009596529900835600541_);fill:#6F6F6E;" d="M29.9,17.5
			c-0.4-0.4-0.8-0.8-1.3-1.2c-4.2-3.4-4.1-4.8-4.1-4.8l0,0c0.1,0.6,0.2,1.7,0.3,2.4c0,0,0-0.1,0-0.1s0,0.2,0.1,0.5
			c0,0.1,0,0.2,0,0.3c0,0.1,0,0.2,0.1,0.3c0,0.1,0,0.2,0.1,0.3c0,0.1,0.1,0.2,0.1,0.4c0,0.1,0.1,0.3,0.1,0.4c0,0.1,0.1,0.3,0.1,0.4
			c0,0.1,0,0.1,0.1,0.2c0,0.1,0.1,0.1,0.1,0.2c0.1,0.1,0.1,0.3,0.2,0.5c0.1,0.3,0.3,0.6,0.4,0.9c0.1,0.3,0.3,0.6,0.5,0.9
			c0.2,0.3,0.3,0.6,0.5,0.9c0.2,0.3,0.4,0.6,0.6,0.8c0.1,0.1,0.2,0.2,0.3,0.4c0,0.1,0.1,0.1,0.1,0.2c0,0.1,0.1,0.1,0.1,0.2
			c0.1,0.1,0.2,0.2,0.3,0.3c0.1,0.1,0.2,0.2,0.3,0.3c0.1,0.1,0.2,0.2,0.3,0.3c0.1,0.1,0.2,0.2,0.2,0.2c0.1,0.1,0.1,0.1,0.2,0.2
			c0.1,0.1,0.1,0.1,0.2,0.2c0.1,0.1,0.1,0.1,0.2,0.2c0.2-0.2,0.3-0.4,0.5-0.6C29.4,21.2,29.1,19.2,29.9,17.5"/>
		<path style="clip-path:url(#SVGID_00000052069585118178724510000009596529900835600541_);fill:#6F6F6E;" d="M38.4,8.4l-0.4,3.2
			c0,0.1,0,0.3,0,0.5c0,0.1,0,0.2,0,0.3c0,0.1,0,0.3,0,0.4c0,0.1,0,0.3,0,0.5c0,0.2,0,0.3-0.1,0.5c0,0.2,0,0.4-0.1,0.5
			c0,0.2-0.1,0.4-0.1,0.6c0,0.1,0,0.2-0.1,0.3c0,0.1,0,0.2-0.1,0.3c0,0.2-0.1,0.4-0.2,0.6c-0.1,0.4-0.2,0.9-0.4,1.3
			c-0.1,0.4-0.3,0.9-0.5,1.3c-0.2,0.4-0.4,0.9-0.6,1.3c-0.2,0.4-0.4,0.8-0.6,1.2c-0.1,0.2-0.2,0.4-0.3,0.6c-0.1,0.1-0.1,0.2-0.2,0.3
			c-0.1,0.1-0.1,0.2-0.2,0.3c-0.1,0.2-0.2,0.3-0.3,0.5c-0.1,0.2-0.2,0.3-0.3,0.4c-0.1,0.1-0.2,0.3-0.3,0.4c-0.1,0.1-0.2,0.2-0.3,0.4
			c-0.1,0.1-0.2,0.2-0.3,0.3c0,0.1-0.1,0.1-0.1,0.1c0,0,0.1,0,0.1,0c0.1,0,0.1,0,0.2,0.1c1.6,0.7,3.3,0,3.3,0
			C43.4,21.1,38.8,9.2,38.4,8.4"/>
		<path style="clip-path:url(#SVGID_00000052069585118178724510000009596529900835600541_);fill:#6F6F6E;" d="M33.2,21.8
			c0.1-0.1,0.2-0.3,0.4-0.4c0.1-0.1,0.1-0.1,0.2-0.2c0.1-0.1,0.1-0.2,0.2-0.2c0.1-0.2,0.3-0.3,0.4-0.5c0.2-0.3,0.5-0.7,0.7-1.1
			c0.2-0.4,0.5-0.8,0.7-1.1c0.2-0.4,0.4-0.8,0.6-1.2c0.2-0.4,0.4-0.8,0.5-1.2c0.1-0.2,0.1-0.4,0.2-0.6c0-0.1,0.1-0.2,0.1-0.3
			c0-0.1,0.1-0.2,0.1-0.3c0.1-0.2,0.1-0.4,0.2-0.5c0.1-0.2,0.1-0.4,0.1-0.5c0-0.2,0.1-0.3,0.1-0.5c0-0.2,0.1-0.3,0.1-0.4
			c0-0.1,0.1-0.3,0.1-0.4c0-0.1,0-0.2,0.1-0.3c0.1-0.4,0.1-0.6,0.1-0.6s0,0,0,0.1c0.1-1,0.3-2.3,0.4-3.1c0,0,0,0,0,0
			s0.2,1.8-5.3,6.2c-0.8,0.6-1.4,1.2-1.9,1.8c-0.3,0.4-0.6,0.8-0.8,1.2c-0.8,1.7-0.6,3.7,0.4,5.2c0.2,0.3,0.4,0.6,0.7,0.8
			c0.1-0.1,0.1-0.1,0.2-0.2c0.1-0.1,0.2-0.1,0.2-0.2c0.1-0.1,0.2-0.2,0.3-0.2c0.1-0.1,0.2-0.2,0.3-0.3c0.1-0.1,0.2-0.2,0.3-0.3
			C33,22.1,33.1,22,33.2,21.8"/>
	</g>
	<polygon class="st1" points="23.2,26.1 23.2,37.6 28,37.6 28,36 25,36 25,32.6 27.4,32.6 27.4,30.9 25,30.9 25,27.7 28,27.7 
		28,26.1 	"/>
	<g>
		<defs>
			<rect id="SVGID_00000025419779119735242970000005921282281702434494_" x="23.1" y="8.3" width="17.2" height="29.4"/>
		</defs>
		<clipPath id="SVGID_00000078002749686252367230000005664342762225083814_">
			<use xlink:href="#SVGID_00000025419779119735242970000005921282281702434494_"  style="overflow:visible;"/>
		</clipPath>
		<path style="clip-path:url(#SVGID_00000078002749686252367230000005664342762225083814_);fill:#6F6F6E;" d="M34.1,33.3v1.5
			c0,1.9-0.9,2.9-2.6,2.9c-1.7,0-2.6-1.1-2.6-2.9v-6c0-1.9,0.9-2.9,2.6-2.9c1.7,0,2.6,1.1,2.6,2.9V30h-1.6v-1.2
			c0-0.8-0.3-1.1-0.9-1.1c-0.6,0-0.9,0.3-0.9,1.1V35c0,0.8,0.3,1.1,0.9,1.1c0.6,0,0.9-0.3,0.9-1.1v-1.7H34.1z"/>
		<path style="clip-path:url(#SVGID_00000078002749686252367230000005664342762225083814_);fill:#6F6F6E;" d="M36.7,35
			c0,0.8,0.3,1.1,0.9,1.1s0.9-0.3,0.9-1.1v-6.2c0-0.8-0.3-1.1-0.9-1.1s-0.9,0.3-0.9,1.1V35z M35,28.8c0-1.9,0.9-2.9,2.6-2.9
			c1.7,0,2.6,1.1,2.6,2.9v6c0,1.9-0.9,2.9-2.6,2.9c-1.7,0-2.6-1.1-2.6-2.9V28.8z"/>
	</g>
</g>
</svg>