<svg version="1.1" id="Livello_1" xmlns="http://www.w3.org/2000/svg" xmlns:xlink="http://www.w3.org/1999/xlink" x="0px" y="0px"
	 viewBox="0 0 63.37 51.13" style="enable-background:new 0 0 63.37 51.13;" xml:space="preserve">
<style type="text/css">
	.st0{fill:#706F6F;}
	.st1{clip-path:url(#SVGID_2_);}
	.st2{clip-path:url(#SVGID_2_);fill:#706F6F;}
</style>
<g>
	<g>
		<path class="st0" d="M19.31,34.46h1.75l0.59,1.66c0.06,0.16,0.11,0.29,0.12,0.41h0.01c0.01-0.12,0.06-0.26,0.12-0.42l0.56-1.65
			h1.79v3.27h-1.08v-1.8c0-0.21,0.02-0.45,0.06-0.69h-0.02c-0.03,0.12-0.13,0.43-0.22,0.65l-0.71,1.84h-1.1l-0.67-1.83
			c-0.09-0.25-0.17-0.5-0.21-0.66h-0.02c0.04,0.22,0.05,0.47,0.05,0.69v1.8h-1.02V34.46z"/>
		<path class="st0" d="M28.48,36.93v0.79h-3.45v-3.27h3.42v0.79h-2.24v0.47h2.16v0.73h-2.16v0.49H28.48z"/>
		<path class="st0" d="M31.02,36.66h-0.69v1.07h-1.18v-3.27h2.29c1.13,0,1.46,0.54,1.46,1.07c0,0.37-0.17,0.79-0.68,0.99l0.79,1.21
			h-1.3L31.02,36.66z M30.33,35.95h0.83c0.38,0,0.49-0.17,0.49-0.38c0-0.2-0.12-0.36-0.49-0.36h-0.83V35.95z"/>
		<path class="st0" d="M33.53,37.73v-3.27h1.18v3.27H33.53z"/>
		<path class="st0" d="M35.49,34.46h1.22l1.34,1.53c0.09,0.1,0.2,0.26,0.28,0.41h0.02v-0.51v-1.42h1.06v3.27h-1.15l-1.4-1.53
			c-0.09-0.1-0.24-0.3-0.28-0.42h-0.02v0.5v1.44h-1.07V34.46z"/>
		<path class="st0" d="M39.91,36.09c0-1.07,0.86-1.75,2.22-1.75c1.36,0,2.22,0.68,2.22,1.75s-0.86,1.75-2.22,1.75
			C40.77,37.84,39.91,37.16,39.91,36.09z M43.11,36.09c0-0.54-0.38-0.89-0.97-0.89s-0.98,0.36-0.98,0.89c0,0.53,0.39,0.89,0.98,0.89
			S43.11,36.63,43.11,36.09z"/>
	</g>
	<g>
		<defs>
			<rect id="SVGID_1_" x="16.94" y="6.43" width="29.5" height="38.27"/>
		</defs>
		<clipPath id="SVGID_2_">
			<use xlink:href="#SVGID_1_"  style="overflow:visible;"/>
		</clipPath>
		<g class="st1">
			<path class="st0" d="M23.88,40.9h0.47l0.7,2.63c0.01,0.03,0.01,0.06,0.02,0.1c0.01,0.03,0.02,0.07,0.02,0.11h0.01
				c0-0.02,0.01-0.06,0.03-0.1s0.02-0.08,0.03-0.1l0.83-2.63h0.46l0.83,2.63c0.03,0.09,0.05,0.15,0.05,0.2h0.01
				c0.01-0.04,0.01-0.07,0.02-0.11c0.01-0.03,0.02-0.07,0.02-0.1l0.7-2.63h0.46l-0.93,3.27h-0.56l-0.79-2.55
				c-0.03-0.08-0.05-0.15-0.05-0.19H26.2c0,0.04-0.01,0.1-0.04,0.19l-0.79,2.55h-0.55L23.88,40.9z"/>
			<path class="st0" d="M29.65,44.05c-0.27-0.14-0.47-0.34-0.62-0.61s-0.22-0.56-0.22-0.91c0-0.35,0.07-0.65,0.22-0.91
				s0.35-0.46,0.62-0.6c0.27-0.14,0.58-0.21,0.93-0.21c0.35,0,0.66,0.07,0.93,0.21c0.27,0.14,0.47,0.34,0.62,0.6
				s0.22,0.56,0.22,0.91s-0.07,0.65-0.22,0.91s-0.35,0.46-0.62,0.6c-0.27,0.14-0.58,0.21-0.93,0.21
				C30.23,44.26,29.92,44.19,29.65,44.05z M31.26,43.72c0.2-0.11,0.35-0.27,0.45-0.47s0.16-0.44,0.16-0.71
				c0-0.27-0.05-0.51-0.16-0.71c-0.11-0.2-0.26-0.36-0.45-0.47c-0.19-0.11-0.42-0.17-0.69-0.17c-0.26,0-0.49,0.06-0.68,0.17
				c-0.2,0.11-0.35,0.27-0.45,0.47c-0.11,0.2-0.16,0.44-0.16,0.71c0,0.27,0.05,0.5,0.16,0.71c0.11,0.2,0.26,0.36,0.45,0.47
				c0.19,0.11,0.42,0.17,0.68,0.17C30.84,43.88,31.07,43.83,31.26,43.72z"/>
			<path class="st0" d="M33.68,44.05c-0.27-0.14-0.47-0.34-0.62-0.61s-0.22-0.56-0.22-0.91c0-0.35,0.07-0.65,0.22-0.91
				s0.35-0.46,0.62-0.6c0.27-0.14,0.58-0.21,0.92-0.21c0.35,0,0.66,0.07,0.93,0.21c0.27,0.14,0.47,0.34,0.62,0.6
				s0.22,0.56,0.22,0.91s-0.07,0.65-0.22,0.91s-0.35,0.46-0.62,0.6c-0.27,0.14-0.58,0.21-0.93,0.21
				C34.26,44.26,33.95,44.19,33.68,44.05z M35.3,43.72c0.19-0.11,0.34-0.27,0.45-0.47c0.11-0.2,0.16-0.44,0.16-0.71
				c0-0.27-0.05-0.51-0.16-0.71c-0.11-0.2-0.26-0.36-0.45-0.47c-0.2-0.11-0.42-0.17-0.69-0.17c-0.26,0-0.49,0.06-0.68,0.17
				c-0.19,0.11-0.34,0.27-0.45,0.47c-0.11,0.2-0.16,0.44-0.16,0.71c0,0.27,0.05,0.5,0.16,0.71c0.11,0.2,0.26,0.36,0.45,0.47
				c0.2,0.11,0.42,0.17,0.68,0.17C34.87,43.88,35.1,43.83,35.3,43.72z"/>
			<path class="st0" d="M37.11,40.9h0.45v2.88h1.92v0.39h-2.38V40.9z"/>
		</g>
		<path class="st2" d="M41.41,24.99c-0.74,1.28-1.78,2.25-3.02,2.83c0.62-0.58,1.2-1.28,1.67-2.05c1.59-2.71,1.59-5.97,0-8.68
			l-0.5-0.89c0.81,0.54,1.55,1.24,2.09,2.09C42.68,20.38,42.61,22.86,41.41,24.99 M21.72,24.99c-0.74-1.24-1.05-2.67-0.97-4.03
			c0.19,0.85,0.5,1.78,0.97,2.56c1.59,2.71,4.42,4.42,7.56,4.42h1.05c-0.85,0.39-1.82,0.62-2.87,0.7
			C25.05,28.48,22.96,27.08,21.72,24.99 M31.56,7.94c1.47,0,2.83,0.43,3.99,1.2c-0.85-0.27-1.7-0.39-2.64-0.39
			c-3.14,0-5.97,1.63-7.52,4.34l-0.54,0.89c0.04-0.97,0.27-1.94,0.74-2.87C26.95,9.14,29.12,7.94,31.56,7.94 M34.55,25.76
			c1.59-2.71,1.59-5.97,0-8.68l-0.97-1.7c0.27-0.08,0.58-0.15,0.85-0.19l1.55,2.67c1.28,2.25,1.28,4.88,0,7.13
			c-0.74,1.32-1.86,2.29-3.14,2.91C33.46,27.27,34.08,26.58,34.55,25.76 M22.15,18.56c0.19,0.85,0.5,1.63,0.97,2.4
			c1.59,2.71,4.38,4.26,7.52,4.26h2.32c-0.19,0.39-0.39,0.77-0.62,1.16h-3.06c-2.6,0-4.88-1.43-6.16-3.68
			C22.38,21.46,22.03,19.95,22.15,18.56 M36.87,11.5c-0.81-0.27-1.71-0.39-2.6-0.39c-3.14,0-5.97,1.63-7.52,4.34l-1.16,2.02
			c-0.16-0.31-0.27-0.62-0.39-0.93l1.51-2.64c1.28-2.25,3.6-3.57,6.16-3.57C34.39,10.3,35.75,10.73,36.87,11.5 M23.5,16.11
			c0.19,0.89,0.5,1.7,0.97,2.48c1.59,2.71,4.38,4.3,7.52,4.3h1.98c-0.08,0.39-0.15,0.77-0.27,0.77h-3.1c-2.6,0-4.88-1.24-6.16-3.49
			C23.7,18.9,23.39,17.51,23.5,16.11 M33.19,17.78c0.66,1.12,0.97,2.4,0.97,3.56h-2.17c-1.32,0-2.52-0.31-3.6-0.93l1.09-1.82
			c0.66-1.12,1.55-2.05,2.64-2.64L33.19,17.78z M35.67,13.48c-3.14,0-5.97,1.63-7.52,4.34l-0.97,1.7c-0.23-0.19-0.43-0.43-0.62-0.66
			l1.55-2.67c1.28-2.25,3.6-3.57,6.16-3.57c1.51,0,2.91,0.46,4.11,1.28C37.49,13.63,36.6,13.48,35.67,13.48 M38.69,17.86
			c1.28,2.25,1.28,4.88,0,7.13c-0.74,1.28-1.78,2.25-3.02,2.83c0.66-0.58,1.2-1.28,1.67-2.05c1.59-2.71,1.59-5.97,0-8.68l-1.16-2.01
			c0.35,0.04,0.66,0.08,1.01,0.16L38.69,17.86z M42.72,17.08l-3.64-6.32c-1.59-2.71-4.38-4.34-7.52-4.34s-5.97,1.63-7.52,4.34
			l-3.64,6.32c-1.59,2.71-1.59,6.05,0,8.76c1.59,2.71,4.38,4.42,7.52,4.42h7.29c3.14,0,5.97-1.7,7.52-4.42
			C44.31,23.13,44.31,19.8,42.72,17.08"/>
	</g>
</g>
</svg>