<svg version="1.1" id="Livello_1" xmlns="http://www.w3.org/2000/svg" xmlns:xlink="http://www.w3.org/1999/xlink" x="0px" y="0px"
	 viewBox="0 0 63.37 51.13" style="enable-background:new 0 0 63.37 51.13;" xml:space="preserve">
<style type="text/css">
	.st0{clip-path:url(#SVGID_2_);fill:#575756;}
	.st1{fill:#575756;}
	.st2{clip-path:url(#SVGID_4_);fill:#575756;}
	.st3{clip-path:url(#SVGID_6_);fill:#575756;}
</style>
<g>
	<g>
		<defs>
			<rect id="SVGID_1_" x="2.21" y="16.83" width="58.96" height="17.47"/>
		</defs>
		<clipPath id="SVGID_2_">
			<use xlink:href="#SVGID_1_"  style="overflow:visible;"/>
		</clipPath>
		<path class="st0" d="M47.31,20.75h0.69v-1.31l1.47-2.24H48.7l-0.94,1.49c-0.05,0.08-0.08,0.15-0.1,0.21h-0.01
			c-0.01-0.06-0.04-0.13-0.09-0.21l-0.94-1.49h-0.77l1.46,2.24V20.75z M44.36,20.25h-1.14v-1.06h1.16c0.22,0,0.38,0.05,0.48,0.14
			c0.1,0.09,0.16,0.22,0.16,0.38c0,0.16-0.05,0.29-0.16,0.39C44.76,20.2,44.59,20.25,44.36,20.25 M44.31,17.71
			c0.22,0,0.38,0.05,0.48,0.14c0.1,0.09,0.15,0.21,0.15,0.35c0,0.34-0.21,0.5-0.62,0.5h-1.08v-0.99H44.31z M45,18.91
			c0.21-0.05,0.36-0.15,0.47-0.29c0.11-0.14,0.16-0.31,0.16-0.49c0-0.26-0.1-0.48-0.29-0.66c-0.19-0.17-0.5-0.26-0.9-0.26h-1.9v3.55
			h1.95c0.42,0,0.73-0.09,0.93-0.28c0.2-0.19,0.3-0.42,0.3-0.71c0-0.23-0.06-0.42-0.19-0.57C45.42,19.04,45.23,18.95,45,18.91
			 M37.29,20.23v-2.51h0.9c0.38,0,0.69,0.11,0.91,0.33c0.22,0.22,0.33,0.52,0.33,0.9c0,0.25-0.05,0.48-0.15,0.67
			c-0.1,0.19-0.24,0.34-0.42,0.45c-0.19,0.11-0.4,0.16-0.66,0.16H37.29z M36.61,20.75h1.63c0.37,0,0.7-0.07,0.99-0.22
			c0.29-0.15,0.51-0.36,0.67-0.64s0.24-0.59,0.24-0.95s-0.08-0.67-0.24-0.93c-0.16-0.26-0.38-0.46-0.67-0.6
			c-0.29-0.14-0.62-0.21-1-0.21h-1.63V20.75z M33.6,20.23v-1.03h2.02v-0.51H33.6v-0.95h2.1V17.2h-2.79v3.55h2.83v-0.52H33.6z
			 M29.63,17.71h1.01c0.24,0,0.42,0.05,0.53,0.16s0.16,0.24,0.16,0.41c0,0.17-0.06,0.31-0.17,0.42c-0.11,0.11-0.29,0.16-0.53,0.16
			h-1.01V17.71z M31.4,20.75h0.77l-0.91-1.48c0.27-0.07,0.47-0.2,0.6-0.38c0.13-0.18,0.19-0.39,0.19-0.61c0-0.31-0.1-0.57-0.3-0.77
			c-0.2-0.2-0.53-0.3-0.98-0.3h-1.82v3.55h0.68v-1.39h0.92L31.4,20.75z M25.94,20.23v-1.03h2.02v-0.51h-2.02v-0.95h2.1V17.2h-2.79
			v3.55h2.82v-0.52H25.94z M20.35,20.75h0.8l0.75-2.58c0.03-0.1,0.05-0.18,0.05-0.24h0.02c0,0.06,0.02,0.14,0.05,0.24l0.75,2.58h0.8
			l1.02-3.55h-0.7l-0.67,2.6c-0.03,0.15-0.05,0.24-0.05,0.26h-0.02c0-0.05-0.02-0.14-0.06-0.26l-0.78-2.6h-0.69l-0.78,2.6
			c-0.04,0.12-0.06,0.21-0.07,0.26h-0.01c0-0.06-0.02-0.15-0.05-0.26l-0.67-2.6h-0.7L20.35,20.75z M17.17,20.31
			c-0.25,0-0.48-0.06-0.67-0.17c-0.19-0.11-0.34-0.27-0.44-0.47c-0.1-0.2-0.15-0.44-0.15-0.7c0-0.27,0.05-0.51,0.15-0.71
			c0.1-0.2,0.25-0.36,0.44-0.47c0.19-0.11,0.41-0.16,0.67-0.16s0.47,0.05,0.66,0.16c0.19,0.11,0.33,0.26,0.43,0.47
			c0.1,0.2,0.15,0.44,0.15,0.71s-0.05,0.51-0.15,0.71c-0.1,0.2-0.25,0.36-0.43,0.47C17.64,20.26,17.42,20.31,17.17,20.31
			 M17.17,20.85c0.39,0,0.73-0.08,1.03-0.23c0.3-0.15,0.53-0.37,0.69-0.66c0.16-0.28,0.24-0.61,0.24-0.99
			c0-0.38-0.08-0.71-0.24-0.99c-0.16-0.28-0.39-0.5-0.69-0.66c-0.3-0.15-0.64-0.23-1.03-0.23c-0.39,0-0.74,0.08-1.03,0.23
			c-0.3,0.15-0.53,0.37-0.69,0.66c-0.16,0.28-0.24,0.61-0.24,0.99c0,0.37,0.08,0.7,0.24,0.99c0.16,0.28,0.39,0.5,0.69,0.66
			C16.44,20.78,16.78,20.85,17.17,20.85 M13.35,18.93h-0.98v-1.21h0.98c0.23,0,0.4,0.05,0.53,0.16s0.19,0.25,0.19,0.44
			c0,0.19-0.06,0.34-0.19,0.45C13.76,18.88,13.58,18.93,13.35,18.93 M13.49,17.2h-1.8v3.55h0.68v-1.31h1.08
			c0.27,0,0.51-0.05,0.71-0.14c0.2-0.09,0.36-0.22,0.47-0.4c0.11-0.17,0.16-0.37,0.16-0.6c0-0.22-0.05-0.42-0.16-0.58
			c-0.11-0.17-0.26-0.3-0.45-0.39C13.99,17.25,13.76,17.2,13.49,17.2"/>
		<path class="st0" d="M60.26,26.51h0.14c0.1,0,0.18-0.01,0.18-0.13c0-0.1-0.09-0.12-0.18-0.12h-0.15V26.51z M60.1,26.14h0.32
			c0.21,0,0.32,0.07,0.32,0.25c0,0.15-0.09,0.22-0.23,0.23L60.75,27h-0.17l-0.23-0.37h-0.1V27H60.1V26.14z M60.98,26.57
			c0-0.35-0.26-0.61-0.58-0.61c-0.32,0-0.58,0.26-0.58,0.61s0.26,0.61,0.58,0.61C60.72,27.18,60.98,26.92,60.98,26.57 M59.62,26.57
			c0-0.42,0.35-0.76,0.77-0.76s0.77,0.34,0.77,0.76s-0.35,0.76-0.77,0.76S59.62,26.99,59.62,26.57"/>
		<path class="st0" d="M21.25,28.81c0.77,0,1.1-0.37,1.1-1.09c0-0.72-0.34-1.08-1.1-1.08h-0.46v2.17H21.25z M19.56,25.71h1.92
			c1.38,0,2.1,0.76,2.1,2c0,1.25-0.72,2.02-2.1,2.02h-0.69v2.58h-1.23V25.71z"/>
		<path class="st0" d="M26.81,31.48c0.7,0,1.27-0.65,1.27-2.47c0-1.82-0.57-2.47-1.27-2.47c-0.7,0-1.27,0.65-1.27,2.47
			C25.54,30.83,26.1,31.48,26.81,31.48 M26.81,25.62c1.26,0,2.42,1.02,2.42,3.4c0,2.38-1.16,3.4-2.42,3.4
			c-1.26,0-2.42-1.02-2.42-3.4C24.39,26.64,25.55,25.62,26.81,25.62"/>
	</g>
	<polygon class="st1" points="30.23,25.71 31.47,25.71 31.47,31.35 33.47,31.35 33.47,32.32 30.23,32.32 	"/>
	<path class="st1" d="M37.72,29.8l-0.76-3.08h-0.02L36.1,29.8H37.72z M37.95,30.73h-2.09l-0.43,1.59h-1.11l1.82-6.6h1.64l1.75,6.6
		h-1.15L37.95,30.73z"/>
	<g>
		<defs>
			<rect id="SVGID_3_" x="2.21" y="16.83" width="58.96" height="17.47"/>
		</defs>
		<clipPath id="SVGID_4_">
			<use xlink:href="#SVGID_3_"  style="overflow:visible;"/>
		</clipPath>
		<path class="st2" d="M42.16,28.59c0.65,0,1.1-0.33,1.1-1c0-0.75-0.4-0.94-1.1-0.94h-0.5v1.95H42.16z M40.43,25.71h2.09
			c1.19,0,2,0.53,2,1.74c0,0.86-0.55,1.44-1.3,1.55v0.03c0.25,0.04,0.53,0.15,0.74,0.77l1.08,2.52h-1.31l-0.87-2.15
			c-0.16-0.52-0.48-0.69-0.93-0.69h-0.28v2.84h-1.23V25.71z"/>
	</g>
	<polygon class="st1" points="46.74,26.68 45.23,26.68 45.23,25.71 49.46,25.71 49.46,26.68 47.97,26.68 47.97,32.32 46.74,32.32 	
		"/>
	<polygon class="st1" points="50.55,25.71 53.88,25.71 53.88,26.68 51.78,26.68 51.78,28.44 53.75,28.44 53.75,29.4 51.78,29.4 
		51.78,31.35 53.97,31.35 53.97,32.32 50.55,32.32 	"/>
	<g>
		<defs>
			<rect id="SVGID_5_" x="2.21" y="16.83" width="58.96" height="17.47"/>
		</defs>
		<clipPath id="SVGID_6_">
			<use xlink:href="#SVGID_5_"  style="overflow:visible;"/>
		</clipPath>
		<path class="st3" d="M58.73,32.17c-0.22,0.13-0.73,0.24-1.25,0.24c-1.75,0-2.65-1.47-2.65-3.4c0-1.93,0.9-3.4,2.62-3.4
			c0.59,0,1.07,0.18,1.28,0.27l-0.06,1.09c-0.22-0.12-0.56-0.36-1.09-0.36c-0.87,0-1.63,0.68-1.63,2.39c0,1.71,0.75,2.39,1.63,2.39
			c0.51,0,0.85-0.14,1.09-0.34L58.73,32.17z"/>
	</g>
	<path class="st1" d="M8.34,25.78l4.45,7.57h-8.9L8.34,25.78z M2.21,34.3h12.26L8.34,23.87L2.21,34.3z"/>
	<polygon class="st1" points="10.02,24.82 15.59,34.3 16.7,34.3 10.58,23.88 	"/>
	<polygon class="st1" points="12.22,24.82 17.8,34.3 18.9,34.3 12.78,23.88 	"/>
</g>
</svg>
