<svg version="1.1" id="Livello_1" xmlns="http://www.w3.org/2000/svg" xmlns:xlink="http://www.w3.org/1999/xlink" x="0px" y="0px"
	 viewBox="0 0 63.37 51.13" style="enable-background:new 0 0 63.37 51.13;" xml:space="preserve">
<style type="text/css">
	.st0{clip-path:url(#SVGID_2_);fill:#575756;}
	.st1{fill:#575756;}
	.st2{clip-path:url(#SVGID_4_);fill:#575756;}
</style>
<g>
	<defs>
		<rect id="SVGID_1_" x="7.22" y="8.22" width="48.34" height="34.3"/>
	</defs>
	<clipPath id="SVGID_2_">
		<use xlink:href="#SVGID_1_"  style="overflow:visible;"/>
	</clipPath>
	<path class="st0" d="M44.81,12.14h0.62V9.82c0-0.21,0-0.37-0.01-0.46h0.01c0.05,0.11,0.12,0.25,0.23,0.4l1.76,2.38h0.74V8.59h-0.62
		v2.31c0,0.21,0,0.37,0,0.46h-0.01c-0.05-0.11-0.12-0.25-0.24-0.41l-1.72-2.35h-0.78V12.14z M42.13,11.7
		c-0.25,0-0.47-0.06-0.67-0.17c-0.19-0.11-0.34-0.27-0.44-0.47c-0.1-0.2-0.15-0.44-0.15-0.7c0-0.27,0.05-0.51,0.15-0.71
		c0.1-0.2,0.25-0.36,0.44-0.47c0.19-0.11,0.41-0.16,0.67-0.16c0.25,0,0.47,0.05,0.66,0.16c0.19,0.11,0.33,0.26,0.44,0.47
		c0.1,0.2,0.15,0.44,0.15,0.71c0,0.27-0.05,0.51-0.15,0.71c-0.1,0.2-0.25,0.36-0.44,0.47C42.61,11.65,42.38,11.7,42.13,11.7
		 M42.13,12.24c0.39,0,0.73-0.08,1.03-0.23c0.3-0.15,0.53-0.37,0.69-0.66c0.16-0.28,0.24-0.61,0.24-0.99s-0.08-0.71-0.24-0.99
		c-0.16-0.28-0.39-0.5-0.69-0.65c-0.3-0.15-0.64-0.23-1.03-0.23c-0.39,0-0.74,0.08-1.03,0.23c-0.3,0.15-0.53,0.37-0.69,0.65
		c-0.16,0.28-0.24,0.61-0.24,0.99c0,0.37,0.08,0.7,0.24,0.98c0.16,0.28,0.39,0.5,0.69,0.66C41.4,12.17,41.74,12.24,42.13,12.24
		 M34.4,12.14h0.62V9.82c0-0.21,0-0.37,0-0.46h0.01c0.05,0.11,0.12,0.25,0.23,0.4l1.76,2.38h0.74V8.59h-0.62v2.31
		c0,0.21,0,0.37,0.01,0.46h-0.01c-0.05-0.11-0.12-0.25-0.24-0.41l-1.73-2.35H34.4V12.14z M31.39,11.62v-1.03h2.02v-0.51h-2.02V9.12
		h2.11V8.59h-2.79v3.55h2.83v-0.52H31.39z M27.7,11.62v-1.03h2.02v-0.51H27.7V9.12h2.1V8.59h-2.79v3.55h2.83v-0.52H27.7z
		 M24.68,12.24c0.51,0,0.9-0.1,1.17-0.3c0.27-0.2,0.41-0.47,0.41-0.82c0-0.3-0.09-0.53-0.28-0.69c-0.18-0.16-0.47-0.27-0.85-0.33
		L24.4,9.99c-0.23-0.04-0.39-0.09-0.49-0.17c-0.1-0.08-0.15-0.19-0.15-0.33c0-0.15,0.07-0.27,0.22-0.36
		c0.14-0.08,0.35-0.13,0.6-0.13c0.58,0,0.96,0.22,1.13,0.67l0.53-0.28c-0.12-0.3-0.31-0.52-0.59-0.67
		c-0.28-0.15-0.63-0.22-1.05-0.22c-0.48,0-0.85,0.09-1.12,0.28c-0.27,0.19-0.4,0.44-0.4,0.77c0,0.3,0.09,0.53,0.27,0.69
		c0.18,0.16,0.44,0.27,0.79,0.33l0.76,0.1c0.24,0.04,0.41,0.09,0.51,0.17c0.1,0.08,0.16,0.19,0.16,0.35c0,0.18-0.08,0.31-0.23,0.4
		c-0.15,0.08-0.37,0.13-0.65,0.13c-0.32,0-0.59-0.07-0.79-0.2c-0.2-0.14-0.35-0.32-0.45-0.56l-0.57,0.26
		c0.11,0.32,0.32,0.58,0.62,0.76C23.81,12.15,24.2,12.24,24.68,12.24 M19.26,12.24c0.51,0,0.9-0.1,1.18-0.3
		c0.27-0.2,0.41-0.47,0.41-0.82c0-0.3-0.09-0.53-0.28-0.69c-0.18-0.16-0.47-0.27-0.85-0.33l-0.74-0.11
		c-0.23-0.04-0.39-0.09-0.49-0.17c-0.1-0.08-0.14-0.19-0.14-0.33c0-0.15,0.07-0.27,0.22-0.36c0.15-0.08,0.35-0.13,0.6-0.13
		c0.58,0,0.96,0.22,1.14,0.67l0.53-0.28c-0.12-0.3-0.32-0.52-0.6-0.67c-0.28-0.15-0.63-0.22-1.04-0.22c-0.48,0-0.85,0.09-1.12,0.28
		c-0.27,0.19-0.4,0.44-0.4,0.77c0,0.3,0.09,0.53,0.27,0.69c0.18,0.16,0.44,0.27,0.79,0.33l0.76,0.1c0.24,0.04,0.41,0.09,0.52,0.17
		c0.1,0.08,0.15,0.19,0.15,0.35c0,0.18-0.08,0.31-0.23,0.4c-0.15,0.08-0.37,0.13-0.65,0.13c-0.32,0-0.59-0.07-0.79-0.2
		c-0.2-0.14-0.35-0.32-0.45-0.56l-0.58,0.26c0.11,0.32,0.32,0.58,0.62,0.76C18.39,12.15,18.78,12.24,19.26,12.24 M14.67,10.78
		l0.52-1.26c0.05-0.12,0.1-0.26,0.14-0.41h0.01c0.06,0.17,0.11,0.31,0.15,0.41L16,10.78H14.67z M16.57,12.14h0.71l-1.56-3.55h-0.77
		l-1.56,3.55h0.72l0.35-0.86h1.76L16.57,12.14z"/>
</g>
<polygon class="st1" points="7.22,17.15 11.11,17.15 9.42,21.8 13.27,21.8 14.95,17.15 18.5,17.15 18.9,16.05 7.62,16.05 "/>
<polygon class="st1" points="43.17,16.05 41.09,21.8 45.15,21.8 47.23,16.05 "/>
<polygon class="st1" points="50.8,16.05 46.49,18.73 48.9,21.8 53.58,21.8 50.89,18.76 55.55,16.05 "/>
<g>
	<defs>
		<rect id="SVGID_3_" x="7.22" y="8.22" width="48.34" height="34.3"/>
	</defs>
	<clipPath id="SVGID_4_">
		<use xlink:href="#SVGID_3_"  style="overflow:visible;"/>
	</clipPath>
	<path class="st2" d="M41.88,17.15l0.4-1.1H31.9v0h-0.01L30.46,20c-0.09,0.25-0.11,0.54,0.08,0.76c0.06,0.07,0.53,0.6,0.62,0.7
		c0.17,0.19,0.37,0.34,0.7,0.34h8.32l0.4-1.1h-5.82c-0.36,0-0.52-0.27-0.43-0.53l0.26-0.73h6.44l0.4-1.1h-6.44l0.44-1.2H41.88z"/>
	<path class="st2" d="M29.95,16.05H19.62l-2.09,5.76h3.95l1.67-4.65h2.95c0.32,0,0.44,0.23,0.37,0.46
		c-0.07,0.24-0.17,0.52-0.25,0.69c-0.1,0.24-0.34,0.42-0.68,0.42c-0.34,0-2.76,0-2.76,0l2.4,3.07h4.55l-2.05-2.3c0,0,0.82,0,1.23,0
		c0.58,0,0.9-0.31,1.05-0.69c0.17-0.43,0.55-1.5,0.67-1.85C30.86,16.39,30.53,16.05,29.95,16.05"/>
	<path class="st2" d="M22.36,28.7c0.15,0,1.48,0,1.48,0l0.58-2.19h-2.7c0,0-1.01-0.03-1.59,0.4l-0.13,0.11
		c-0.4,0.35-0.8,0.93-1.05,1.9c-0.66,2.65-2.1,8.15-2.1,8.15s-0.14,0.72-1.03,0.72h-1.31l-0.58,2.2l2.88,0c0,0,1.34,0.08,2.11-1.12
		c0.26-0.4,0.35-0.91,0.55-1.64c0.79-2.99,0.79-3.03,0.79-3.03l1.17-4.44c0,0,0.08-0.35,0.2-0.62
		C21.63,29.16,21.75,28.71,22.36,28.7"/>
	<path class="st2" d="M36.1,34.19h0.61h0.46l0.11-0.39l0.34-1.22c0,0,0.16-0.57,0.31-1.19c0.15-0.62-0.27-0.77-0.46-0.8
		c-0.23-0.03-0.51,0.04-0.72,0.14c-0.21,0.1-0.23-0.14-0.23-0.14h-1.08l-0.18,0.58l-0.81,2.71l-1.1,4.1h1.24l0.2-0.83l0.76-2.85
		c0,0,0.57-2.18,0.69-2.57c0.01-0.03,0.02-0.06,0.03-0.09c0,0,0.08-0.21,0.29-0.18c0.19,0.03,0.2,0.16,0.18,0.27
		c-0.02,0.11-0.04,0.17-0.04,0.17s-0.48,1.71-0.53,1.95L36.1,34.19z"/>
	<path class="st2" d="M34.94,27.48h1.21l-0.25,0.96c0,0-0.12,0-0.51,0c-0.45,0-0.54,0.49-0.54,0.49s-0.11,0.47-0.35,1.4
		c-0.07,0.26,0.09,0.25,0.09,0.25h0.28l-0.31,0.98h-0.36l-0.9,3.22l-0.86,3.19h-1.21l0.46-1.84l0.67-2.49c0,0,0.29-0.98,0.45-1.56
		l0.16-0.52h-0.36l0-0.02l0.1-0.43l0.14-0.5h0.14c0.24,0,0.28-0.18,0.28-0.18l0.49-1.89C33.75,28.54,34.01,27.48,34.94,27.48"/>
	<path class="st2" d="M43.8,31.38c0.12,0,0.2,0.08,0.17,0.22l-1.31,5.11c-0.03,0.14-0.12,0.27-0.29,0.27c-0.13,0-0.2-0.08-0.17-0.22
		l1.31-5.11C43.54,31.51,43.61,31.36,43.8,31.38 M42.03,37.9c0,0,0.05-0.03,0.1-0.07c0.05-0.03,0.11-0.05,0.16-0.03
		c0.09,0.03,0.11,0.19,0.11,0.19h1.12l0.15-0.54l0.33-1.19l0.29-1.13l0.67-2.54l0.64-2.49l0.68-2.63h-1.17c0,0,0,0.01-0.06,0.2
		c-0.08,0.27-0.5,1.87-0.5,1.87l-0.31,1.12c0,0-0.04,0.16-0.17,0.12c-0.12-0.03-0.55-0.2-0.85-0.19c-0.28,0.01-0.59,0.1-0.8,0.56
		c-0.21,0.45-0.47,1.57-0.47,1.57l-0.52,1.99l-0.54,2.06c0,0-0.15,0.64-0.03,0.89c0.09,0.18,0.35,0.54,1,0.32
		C41.86,37.98,41.94,37.96,42.03,37.9"/>
	<path class="st2" d="M47.74,28.82c-0.43,0-0.78-0.33-0.78-0.75c0-0.41,0.35-0.74,0.78-0.74c0.43,0,0.78,0.33,0.78,0.74
		C48.51,28.49,48.17,28.82,47.74,28.82 M47.74,27.43c-0.38,0-0.68,0.29-0.68,0.65c0,0.36,0.31,0.65,0.68,0.65
		c0.38,0,0.68-0.29,0.68-0.65C48.42,27.72,48.11,27.43,47.74,27.43 M47.58,28.05V27.8h0.19c0.11,0,0.17,0.04,0.17,0.12
		c0,0.08-0.06,0.12-0.16,0.12H47.58z M47.58,28.17h0.14c0.15,0,0.19,0.05,0.2,0.23c0,0.07,0.01,0.07,0.03,0.1h0.17
		c-0.02-0.04-0.02-0.06-0.03-0.13l-0.01-0.07c-0.01-0.08-0.02-0.12-0.06-0.15c-0.03-0.03-0.06-0.04-0.14-0.04
		c0.07-0.01,0.1-0.02,0.14-0.05c0.06-0.03,0.09-0.1,0.09-0.16c0-0.07-0.04-0.15-0.1-0.19c-0.05-0.03-0.1-0.04-0.21-0.04h-0.39v0.84
		h0.17V28.17z"/>
	<path class="st2" d="M26.95,31.38c0.14-0.01,0.22,0.08,0.18,0.22l-1.41,5.11c-0.04,0.14-0.14,0.26-0.32,0.27
		c-0.14,0.01-0.22-0.08-0.18-0.22l1.41-5.11C26.67,31.51,26.76,31.39,26.95,31.38 M27.09,30.8C27.09,30.8,27.52,31.02,27.09,30.8
		c-0.44-0.22-0.96-0.05-0.96-0.05c-0.19,0.07-0.54,0.25-0.68,0.83c-0.14,0.58-1.1,4.23-1.1,4.23l-0.27,1.03c0,0-0.39,1.17,0.74,1.16
		c0.54-0.01,0.54,0,0.54,0l-0.16,0.72c0,0-0.03,0.35-0.7,0.32h-0.92l-0.29,1.04h1.81c0,0,0.96,0.08,1.28-1.25l0.38-1.34L27.95,33
		l0.59-2.32h-1.16C27.37,30.68,27.34,30.94,27.09,30.8"/>
	<path class="st2" d="M31.31,30.59c-0.95-0.05-1.27,0-1.27,0s-0.69,0.09-0.85,0.87l-0.29,1.22h1.14l0.1-0.4
		c0.09-0.32,0.11-0.38,0.15-0.53c0.03-0.11,0.14-0.2,0.29-0.18c0.17,0.02,0.28,0.13,0.21,0.47c-0.14,0.62-0.27,1.06-0.27,1.06
		s-0.08,0.38-0.75,0.47c-0.49,0.06-1.2,0.35-1.39,1.06c-0.22,0.79-0.65,2.4-0.65,2.4s-0.23,0.87,0.53,0.94c0,0,0.48,0.1,0.88-0.08
		c0,0,0.11-0.07,0.16,0.09h1.03l1.66-6.11C31.98,31.87,32.26,30.63,31.31,30.59 M30.17,34.64c0,0-0.48,1.59-0.58,1.9
		c-0.1,0.31-0.22,0.43-0.43,0.41c-0.28-0.03-0.2-0.33-0.2-0.33s0.39-1.37,0.57-1.89c0.18-0.52,0.72-0.54,0.72-0.54h0.04L30.17,34.64
		z"/>
	<path class="st2" d="M23.51,31.61l-0.64,2.35c-0.04,0.14-0.12,0.26-0.31,0.26l-0.07,0c-0.13,0-0.21-0.1-0.18-0.24l0.64-2.35
		c0.04-0.13,0.11-0.24,0.31-0.25h0.07C23.45,31.39,23.55,31.48,23.51,31.61 M24,30.59h-1.02c-0.49,0-0.69,0.11-0.85,0.27
		c-0.25,0.25-0.31,0.55-0.31,0.55s-1.16,4.29-1.46,5.45c-0.3,1.16,0.62,1.12,0.62,1.12h1.3c0.67,0,0.87-0.68,0.87-0.68l0.01-0.03
		l0.38-1.55l-1.06,0c0,0-0.12,0.49-0.23,0.82c-0.1,0.32-0.15,0.45-0.4,0.44c-0.37-0.02-0.25-0.36-0.25-0.36l0.47-1.53h1.65
		c0,0,0.67-2.42,0.91-3.44C24.86,30.61,24,30.59,24,30.59"/>
	<path class="st2" d="M40.33,31.61l-0.64,2.35c-0.04,0.14-0.12,0.26-0.31,0.26l-0.07,0c-0.13,0-0.21-0.1-0.18-0.24l0.64-2.35
		c0.04-0.13,0.11-0.24,0.31-0.25h0.07C40.28,31.39,40.37,31.48,40.33,31.61 M40.82,30.59H39.8c-0.49,0-0.69,0.11-0.85,0.27
		c-0.25,0.25-0.32,0.55-0.32,0.55s-1.16,4.29-1.46,5.45c-0.3,1.16,0.62,1.12,0.62,1.12h1.31c0.67,0,0.87-0.68,0.87-0.68l0.01-0.03
		l0.38-1.55l-1.06,0c0,0-0.12,0.49-0.23,0.82c-0.1,0.32-0.15,0.45-0.4,0.44c-0.37-0.02-0.25-0.36-0.25-0.36l0.47-1.53h1.65
		c0,0,0.67-2.42,0.91-3.44C41.69,30.61,40.82,30.59,40.82,30.59"/>
	<path class="st2" d="M26.24,42.4l0.68-1.32v-0.01h-0.56c-0.02,0-0.05-0.02-0.05-0.05v-0.28c0-0.03,0.02-0.05,0.05-0.05h1.09
		c0.03,0,0.05,0.02,0.05,0.05v0.03l-0.66,1.34v0.01h0.56c0.03,0,0.05,0.02,0.05,0.05v0.28c0,0.03-0.02,0.05-0.05,0.05h-1.12
		c-0.03,0-0.05-0.02-0.05-0.05V42.4z M27.98,42.42l0.81-1.73c0.01-0.01,0.02-0.03,0.04-0.03h0.03c0.02,0,0.04,0.01,0.04,0.03
		l0.81,1.73c0.01,0.03-0.01,0.07-0.04,0.07h-0.29c-0.05,0-0.07-0.01-0.09-0.06l-0.09-0.2h-0.7l-0.09,0.21
		c-0.01,0.03-0.04,0.06-0.09,0.06h-0.28C27.98,42.49,27.96,42.46,27.98,42.42 M29.04,41.87l-0.19-0.42h0l-0.19,0.42H29.04z
		 M30.32,40.71c0-0.03,0.02-0.05,0.05-0.05h0.07l1.03,0.99h0v-0.91c0-0.03,0.02-0.05,0.05-0.05h0.31c0.03,0,0.05,0.02,0.05,0.05
		v1.73c0,0.03-0.02,0.05-0.05,0.05h-0.04c-0.01,0-0.03-0.01-0.03-0.01l-1.02-1.02h0v0.96c0,0.03-0.02,0.05-0.05,0.05h-0.31
		c-0.03,0-0.05-0.02-0.05-0.05L30.32,40.71z M32.73,40.74c0-0.03,0.02-0.05,0.05-0.05h1.07c0.03,0,0.05,0.02,0.05,0.05v0.28
		c0,0.03-0.02,0.05-0.05,0.05h-0.71v0.32h0.59c0.03,0,0.05,0.02,0.05,0.05v0.28c0,0.03-0.02,0.05-0.05,0.05h-0.59v0.35h0.71
		c0.03,0,0.05,0.02,0.05,0.05v0.28c0,0.03-0.02,0.05-0.05,0.05h-1.07c-0.03,0-0.05-0.02-0.05-0.05V40.74z M34.88,41.07h-0.37
		c-0.03,0-0.05-0.02-0.05-0.05v-0.28c0-0.03,0.02-0.05,0.05-0.05h1.14c0.03,0,0.05,0.02,0.05,0.05v0.28c0,0.03-0.02,0.05-0.05,0.05
		h-0.37v1.37c0,0.03-0.02,0.05-0.05,0.05h-0.31c-0.03,0-0.05-0.02-0.05-0.05V41.07z M36.63,41.07h-0.37c-0.03,0-0.05-0.02-0.05-0.05
		v-0.28c0-0.03,0.02-0.05,0.05-0.05h1.14c0.03,0,0.05,0.02,0.05,0.05v0.28c0,0.03-0.02,0.05-0.05,0.05h-0.37v1.37
		c0,0.03-0.02,0.05-0.05,0.05h-0.31c-0.03,0-0.05-0.02-0.05-0.05V41.07z M38.13,40.74c0-0.03,0.02-0.05,0.05-0.05h0.31
		c0.03,0,0.05,0.02,0.05,0.05v1.7c0,0.03-0.02,0.05-0.05,0.05h-0.31c-0.03,0-0.05-0.02-0.05-0.05V40.74z M24.29,41.58h-4.94v0.21
		h4.94V41.58z M45.07,41.58h-4.94v0.21h4.94V41.58z"/>
	<path class="st2" d="M47.63,31.59l-1.31,5.11c-0.06,0.23-0.16,0.28-0.29,0.27c-0.13-0.01-0.2-0.08-0.17-0.22l1.31-5.11
		c0.03-0.14,0.11-0.26,0.29-0.27C47.58,31.37,47.66,31.46,47.63,31.59 M48.28,30.56l-1.26,0.01c-0.51,0.01-0.79,0.33-0.89,0.73
		l-1.5,5.95c-0.1,0.4,0.14,0.72,0.54,0.72l1.26-0.01c0.4,0,0.81-0.33,0.91-0.73l1.49-5.95C48.93,30.87,48.68,30.55,48.28,30.56"/>
</g>
</svg>