<svg version="1.1" id="Livello_1" xmlns="http://www.w3.org/2000/svg" xmlns:xlink="http://www.w3.org/1999/xlink" x="0px" y="0px"
	 viewBox="0 0 63.37 51.13" style="enable-background:new 0 0 63.37 51.13;" xml:space="preserve">
<style type="text/css">
	.st0{clip-path:url(#SVGID_2_);fill:#575756;}
</style>
<g>
	<defs>
		<rect id="SVGID_1_" x="16.64" y="22.72" width="30.09" height="5.68"/>
	</defs>
	<clipPath id="SVGID_2_">
		<use xlink:href="#SVGID_1_"  style="overflow:visible;"/>
	</clipPath>
	<path class="st0" d="M46.73,25.68h-1.26v-1.12h-0.61v1.12h-1.25v0.54h1.25v1.18h0.61v-1.18h1.26V25.68z M39.81,27.12
		c-0.65,0-1.23-0.41-1.23-1.57c0-1.16,0.59-1.55,1.23-1.55s1.23,0.4,1.23,1.55C41.04,26.71,40.45,27.12,39.81,27.12 M39.81,28.41
		c1.81,0,3.16-1.02,3.16-2.85c0-1.84-1.36-2.84-3.16-2.84c-1.81,0-3.17,1-3.17,2.84C36.64,27.39,38,28.41,39.81,28.41 M33.08,28.41
		c1.78,0,3.01-0.62,3.01-1.65c0-0.72-0.47-1.14-1.42-1.26c0.7-0.07,1.32-0.37,1.32-1.13c0-1.08-1.12-1.64-2.92-1.64
		c-1.86,0-2.93,0.79-2.93,1.93l1.9,0.16c0-0.65,0.44-0.85,1.05-0.85c0.61,0,0.95,0.22,0.95,0.58c0,0.33-0.26,0.51-0.89,0.51h-0.58v1
		h0.59c0.72,0,0.94,0.19,0.94,0.53c0,0.41-0.4,0.59-1,0.59c-0.62,0-1.07-0.23-1.07-0.86l-1.92,0.14
		C30.13,27.7,31.26,28.41,33.08,28.41 M29.64,24.6v-0.64H26.3v4.26h0.82V26.4h2.42v-0.63h-2.42V24.6H29.64z M23.79,26.04h-1.17
		v-1.46h1.18c0.27,0,0.48,0.06,0.64,0.19s0.23,0.31,0.23,0.53s-0.08,0.41-0.23,0.54C24.27,25.98,24.06,26.04,23.79,26.04
		 M23.96,23.97H21.8v4.26h0.82v-1.57h1.3c0.32,0,0.61-0.06,0.85-0.16c0.24-0.11,0.43-0.27,0.56-0.47c0.13-0.21,0.19-0.45,0.19-0.72
		c0-0.27-0.06-0.5-0.19-0.7c-0.13-0.2-0.31-0.35-0.54-0.46C24.55,24.02,24.27,23.97,23.96,23.97 M16.64,23.97v2.58
		c0,0.36,0.08,0.67,0.24,0.94c0.16,0.27,0.39,0.48,0.69,0.63c0.3,0.15,0.67,0.22,1.09,0.22c0.42,0,0.79-0.07,1.09-0.22
		c0.3-0.15,0.53-0.36,0.69-0.63c0.16-0.27,0.24-0.58,0.24-0.94v-2.59h-0.82v2.53c0,0.35-0.11,0.63-0.32,0.85
		c-0.21,0.22-0.51,0.32-0.88,0.32c-0.38,0-0.67-0.11-0.88-0.32s-0.32-0.5-0.32-0.85v-2.53H16.64z"/>
</g>
</svg>