<svg version="1.1" id="Livello_1" xmlns="http://www.w3.org/2000/svg" xmlns:xlink="http://www.w3.org/1999/xlink" x="0px" y="0px"
	 viewBox="0 0 63.37 51.13" style="enable-background:new 0 0 63.37 51.13;" xml:space="preserve">
<style type="text/css">
	.st0{clip-path:url(#SVGID_2_);fill:#575756;}
</style>
<g>
	<defs>
		<rect id="SVGID_1_" x="16.69" y="22.72" width="29.98" height="5.68"/>
	</defs>
	<clipPath id="SVGID_2_">
		<use xlink:href="#SVGID_1_"  style="overflow:visible;"/>
	</clipPath>
	<path class="st0" d="M46.68,25.68h-1.26v-1.12h-0.61v1.12h-1.25v0.54h1.25v1.18h0.61v-1.18h1.26V25.68z M39.76,27.12
		c-0.65,0-1.23-0.41-1.23-1.57c0-1.16,0.59-1.55,1.23-1.55c0.64,0,1.23,0.4,1.23,1.55C40.99,26.71,40.4,27.12,39.76,27.12
		 M39.76,28.41c1.81,0,3.16-1.02,3.16-2.85c0-1.84-1.36-2.84-3.16-2.84c-1.81,0-3.17,1-3.17,2.84
		C36.59,27.39,37.95,28.41,39.76,28.41 M33.07,28.41c1.82,0,2.96-0.77,2.96-2.01c0-1.14-0.87-1.83-2.29-1.83
		c-0.73,0-1.32,0.2-1.6,0.56l0.11-0.96h3.33V22.9h-4.79l-0.34,3.18l1.65,0.14c0.16-0.32,0.5-0.52,1-0.52c0.64,0,0.99,0.25,0.99,0.7
		c0,0.49-0.36,0.76-0.99,0.76c-0.56,0-0.96-0.25-1.03-0.64l-1.83,0.19C30.37,27.75,31.48,28.41,33.07,28.41 M29.7,24.6v-0.64h-3.35
		v4.26h0.82V26.4h2.42v-0.63h-2.42V24.6H29.7z M23.84,26.04h-1.17v-1.46h1.18c0.27,0,0.48,0.06,0.64,0.19s0.23,0.31,0.23,0.53
		s-0.08,0.41-0.23,0.54C24.33,25.98,24.11,26.04,23.84,26.04 M24.01,23.97h-2.16v4.26h0.82v-1.57h1.3c0.32,0,0.61-0.06,0.85-0.16
		c0.24-0.11,0.43-0.27,0.56-0.47c0.13-0.21,0.19-0.45,0.19-0.72c0-0.27-0.06-0.5-0.19-0.7c-0.13-0.2-0.31-0.35-0.54-0.46
		C24.6,24.02,24.32,23.97,24.01,23.97 M16.69,23.97v2.58c0,0.36,0.08,0.67,0.24,0.94c0.16,0.27,0.39,0.48,0.69,0.63
		c0.3,0.15,0.67,0.22,1.09,0.22c0.42,0,0.79-0.07,1.09-0.22c0.3-0.15,0.53-0.36,0.69-0.63c0.16-0.27,0.24-0.58,0.24-0.94v-2.59
		h-0.82v2.53c0,0.35-0.11,0.63-0.32,0.85c-0.21,0.22-0.51,0.32-0.88,0.32c-0.38,0-0.67-0.11-0.88-0.32s-0.32-0.5-0.32-0.85v-2.53
		H16.69z"/>
</g>
</svg>