<svg version="1.1" id="Livello_1" xmlns="http://www.w3.org/2000/svg" xmlns:xlink="http://www.w3.org/1999/xlink" x="0px" y="0px"
	 viewBox="0 0 63.37 51.13" style="enable-background:new 0 0 63.37 51.13;" xml:space="preserve">
<style type="text/css">
	.st0{clip-path:url(#SVGID_2_);fill:#575756;}
</style>
<g>
	<defs>
		<rect id="SVGID_1_" x="10.5" y="14.9" width="42.36" height="21.33"/>
	</defs>
	<clipPath id="SVGID_2_">
		<use xlink:href="#SVGID_1_"  style="overflow:visible;"/>
	</clipPath>
	<path class="st0" d="M29,20.17v-4.1h1.51c0.65,0,1.16,0.18,1.54,0.53s0.56,0.84,0.56,1.47c0,0.42-0.08,0.78-0.25,1.1
		c-0.17,0.31-0.4,0.56-0.71,0.73c-0.31,0.18-0.67,0.26-1.1,0.26H29z M28.26,20.79h2.29c0.56,0,1.05-0.11,1.47-0.34
		c0.43-0.22,0.76-0.54,1-0.95c0.24-0.41,0.36-0.88,0.36-1.42s-0.12-1-0.35-1.4c-0.24-0.39-0.57-0.7-0.99-0.91
		c-0.43-0.21-0.92-0.32-1.48-0.32h-2.29V20.79z M21.7,20.79h0.67v-3.91c0-0.18-0.01-0.4-0.02-0.65h0.02
		c0.05,0.14,0.17,0.34,0.34,0.58l2.99,3.98h0.85v-5.32h-0.66v3.86c0,0.32,0,0.54,0.01,0.67h-0.02c-0.06-0.17-0.18-0.38-0.34-0.61
		l-2.95-3.93H21.7V20.79z M19.98,15.46h-0.74v5.32h0.74V15.46z M12.06,20.79h0.9l1.29-4.15c0.05-0.15,0.07-0.25,0.07-0.31h0.04
		c0,0.07,0.02,0.17,0.07,0.31l1.28,4.15h0.91l1.52-5.32h-0.76l-1.15,4.28c-0.01,0.05-0.02,0.1-0.04,0.16
		c-0.01,0.06-0.03,0.11-0.04,0.17h-0.02c-0.01-0.08-0.05-0.19-0.09-0.33l-1.35-4.28h-0.74l-1.35,4.28c-0.01,0.05-0.03,0.1-0.05,0.17
		c-0.02,0.07-0.04,0.12-0.04,0.16h-0.02c-0.01-0.06-0.02-0.12-0.04-0.17s-0.03-0.11-0.04-0.16l-1.14-4.28h-0.76L12.06,20.79z"/>
	<path class="st0" d="M47.54,33.63v-4.1h1.51c0.65,0,1.16,0.18,1.54,0.53s0.56,0.84,0.56,1.47c0,0.42-0.08,0.78-0.25,1.09
		c-0.17,0.32-0.4,0.56-0.71,0.74c-0.31,0.17-0.67,0.26-1.1,0.26H47.54z M46.8,34.24h2.29c0.56,0,1.05-0.11,1.47-0.34
		c0.43-0.23,0.76-0.54,1-0.95c0.24-0.41,0.36-0.88,0.36-1.42c0-0.53-0.12-1-0.35-1.4c-0.24-0.39-0.57-0.7-0.99-0.91
		c-0.43-0.21-0.92-0.32-1.48-0.32H46.8V34.24z M42,33.63v-1.81h3.17v-0.61H42v-1.67h3.29v-0.61h-4.03v5.32h4.08v-0.61H42z
		 M40.28,28.92h-4.8v0.61h2.03v4.71h0.73v-4.71h2.03V28.92z M32.93,34.39c0.74,0,1.29-0.15,1.68-0.44c0.38-0.29,0.58-0.68,0.58-1.17
		c0-0.46-0.14-0.8-0.42-1.03c-0.28-0.23-0.69-0.39-1.25-0.47l-1.14-0.17c-0.38-0.06-0.65-0.15-0.81-0.29
		c-0.16-0.14-0.24-0.34-0.24-0.6c0-0.27,0.12-0.49,0.38-0.64c0.25-0.16,0.59-0.23,1.03-0.23c0.49,0,0.87,0.09,1.14,0.28
		c0.27,0.19,0.46,0.48,0.55,0.86l0.73-0.18c-0.11-0.52-0.38-0.91-0.79-1.17c-0.41-0.26-0.95-0.39-1.62-0.39
		c-0.68,0-1.21,0.14-1.6,0.41c-0.39,0.28-0.58,0.65-0.58,1.12c0,0.43,0.13,0.77,0.39,1c0.26,0.23,0.64,0.39,1.13,0.46l1.17,0.16
		c0.41,0.06,0.7,0.16,0.89,0.3c0.19,0.14,0.28,0.35,0.28,0.64c0,0.32-0.13,0.56-0.39,0.7c-0.26,0.15-0.63,0.23-1.09,0.23
		c-0.54,0-0.97-0.11-1.27-0.34c-0.31-0.23-0.51-0.54-0.61-0.94l-0.75,0.13c0.11,0.56,0.38,0.99,0.82,1.3
		C31.57,34.24,32.17,34.39,32.93,34.39 M26.21,33.63v-1.81h3.17v-0.61h-3.17v-1.67h3.29v-0.61h-4.03v5.32h4.08v-0.61H26.21z
		 M24.49,28.92h-4.8v0.61h2.03v4.71h0.74v-4.71h2.03V28.92z"/>
	<path class="st0" d="M46.77,27.42h5.28v-1.47h-3.36v-3.85h-1.92V27.42z M41.97,26.13v-0.8h3.52v-1.18h-3.52v-0.76h3.64v-1.29h-5.56
		v5.32h5.62v-1.29H41.97z M32.37,27.42h1.74v-2.34v-0.82h0.04c0.08,0.19,0.31,0.51,0.46,0.67l2.28,2.48h1.87v-5.32h-1.73v2.32v0.83
		h-0.04c-0.12-0.23-0.31-0.5-0.45-0.66l-2.18-2.48h-1.99V27.42z M24.69,27.42h1.74v-2.34v-0.82h0.04c0.08,0.19,0.31,0.51,0.46,0.67
		l2.28,2.48h1.87v-5.32h-1.73v2.32v0.83h-0.04c-0.12-0.23-0.31-0.5-0.45-0.66l-2.18-2.48h-1.99V27.42z M17.21,22.09v2.95
		c0,1.55,1.14,2.55,3.21,2.55s3.2-0.99,3.2-2.53v-2.98H21.7v2.74c0,0.78-0.47,1.28-1.28,1.28c-0.86,0-1.29-0.5-1.29-1.28v-2.74
		H17.21z M16.52,22.09H10.5v1.46h2.05v3.86h1.91v-3.86h2.06V22.09z"/>
</g>
</svg>