<svg version="1.1" id="Livello_1" xmlns="http://www.w3.org/2000/svg" xmlns:xlink="http://www.w3.org/1999/xlink" x="0px" y="0px"
	 viewBox="0 0 63.37 51.13" style="enable-background:new 0 0 63.37 51.13;" xml:space="preserve">
<style type="text/css">
	.st0{clip-path:url(#SVGID_2_);fill:#575756;}
</style>
<g>
	<defs>
		<rect id="SVGID_1_" x="17.2" y="15.75" width="28.96" height="19.62"/>
	</defs>
	<clipPath id="SVGID_2_">
		<use xlink:href="#SVGID_1_"  style="overflow:visible;"/>
	</clipPath>
	<path class="st0" d="M46.17,30.52V29.9h-4.03v5.33h0.74v-2.42h3.17V32.2h-3.17v-1.68H46.17z M38.05,34.76
		c-0.42,0-0.8-0.09-1.11-0.27c-0.32-0.18-0.56-0.44-0.73-0.77c-0.17-0.33-0.26-0.72-0.26-1.15c0-0.45,0.09-0.83,0.26-1.16
		c0.17-0.33,0.42-0.58,0.73-0.76c0.32-0.18,0.69-0.27,1.11-0.27c0.43,0,0.8,0.09,1.12,0.27c0.32,0.18,0.56,0.43,0.74,0.76
		c0.17,0.33,0.26,0.72,0.26,1.16c0,0.44-0.09,0.83-0.26,1.16c-0.17,0.33-0.42,0.59-0.74,0.77C38.86,34.67,38.48,34.76,38.05,34.76
		 M38.05,35.38c0.58,0,1.08-0.11,1.51-0.34s0.77-0.56,1.01-0.98c0.24-0.42,0.36-0.92,0.36-1.48c0-0.57-0.12-1.06-0.36-1.49
		c-0.24-0.42-0.58-0.75-1.01-0.98c-0.44-0.23-0.94-0.34-1.51-0.34c-0.57,0-1.07,0.11-1.51,0.34c-0.44,0.23-0.77,0.56-1.01,0.98
		c-0.24,0.43-0.36,0.92-0.36,1.49c0,0.56,0.12,1.05,0.36,1.48s0.58,0.75,1.01,0.99C36.98,35.26,37.48,35.38,38.05,35.38
		 M31.48,34.76c-0.43,0-0.8-0.09-1.11-0.27c-0.32-0.18-0.56-0.44-0.73-0.77c-0.17-0.33-0.26-0.72-0.26-1.15
		c0-0.45,0.09-0.83,0.26-1.16c0.17-0.33,0.42-0.58,0.73-0.76c0.32-0.18,0.69-0.27,1.11-0.27c0.43,0,0.8,0.09,1.12,0.27
		c0.32,0.18,0.56,0.43,0.74,0.76c0.17,0.33,0.26,0.72,0.26,1.16c0,0.44-0.09,0.83-0.26,1.16c-0.17,0.33-0.42,0.59-0.74,0.77
		C32.28,34.67,31.91,34.76,31.48,34.76 M31.48,35.38c0.58,0,1.08-0.11,1.51-0.34c0.43-0.23,0.77-0.56,1.01-0.98
		c0.24-0.42,0.36-0.92,0.36-1.48c0-0.57-0.12-1.06-0.36-1.49c-0.24-0.42-0.58-0.75-1.01-0.98c-0.44-0.23-0.94-0.34-1.51-0.34
		c-0.57,0-1.07,0.11-1.51,0.34c-0.44,0.23-0.77,0.56-1.01,0.98C28.72,31.5,28.6,32,28.6,32.56c0,0.56,0.12,1.05,0.36,1.48
		s0.58,0.75,1.01,0.99C30.4,35.26,30.91,35.38,31.48,35.38 M24.13,30.52h1.76c0.4,0,0.7,0.09,0.88,0.26s0.27,0.4,0.27,0.68
		c0,0.28-0.09,0.51-0.27,0.69c-0.18,0.18-0.48,0.27-0.89,0.27h-1.75V30.52z M27.14,35.23H28l-1.45-2.29
		c0.44-0.09,0.76-0.27,0.96-0.55c0.2-0.28,0.31-0.59,0.31-0.93c0-0.44-0.14-0.81-0.42-1.11c-0.28-0.3-0.75-0.45-1.4-0.45h-2.6v5.33
		h0.74v-2.19h1.61L27.14,35.23z M20.32,32.53h-1.69v-2.02h1.7c0.37,0,0.66,0.09,0.88,0.27c0.22,0.18,0.32,0.42,0.32,0.73
		c0,0.31-0.11,0.56-0.33,0.75C20.99,32.44,20.69,32.53,20.32,32.53 M20.43,29.9h-2.53v5.33h0.74v-2.08h1.73
		c0.39,0,0.73-0.07,1.03-0.2c0.3-0.14,0.52-0.33,0.68-0.57c0.16-0.24,0.24-0.53,0.24-0.86c0-0.33-0.08-0.61-0.23-0.85
		c-0.15-0.24-0.37-0.43-0.65-0.56C21.14,29.97,20.81,29.9,20.43,29.9"/>
	<path class="st0" d="M41.07,26.98v-2.84h1.34c0.89,0,1.49,0.5,1.49,1.37c0,0.9-0.58,1.47-1.53,1.47H41.07z M39.16,28.22h3.53
		c1.94,0,3.24-1.12,3.24-2.75c0-1.64-1.2-2.57-3.19-2.57h-3.58V28.22z M31.48,28.22h1.74v-2.34v-0.82h0.04
		c0.08,0.19,0.31,0.51,0.46,0.68l2.28,2.48h1.88V22.9h-1.73v2.32v0.82H36.1c-0.12-0.23-0.31-0.49-0.45-0.66l-2.18-2.48h-1.99V28.22z
		 M30.19,22.9h-1.92v5.32h1.92V22.9z M19.02,28.22h2.15l1.03-3c0.05-0.15,0.1-0.32,0.11-0.5h0.04c0.01,0.18,0.06,0.35,0.11,0.5
		l1.03,3h2.15l1.81-5.32h-1.93l-0.85,2.99c-0.05,0.19-0.1,0.38-0.1,0.57h-0.04c-0.01-0.19-0.09-0.39-0.16-0.57l-1.03-2.99h-2.03
		l-1.03,2.99c-0.07,0.18-0.14,0.38-0.16,0.57h-0.04c0-0.19-0.05-0.38-0.1-0.57l-0.85-2.99H17.2L19.02,28.22z"/>
	<path class="st0" d="M36.79,20.87c-0.27,0-0.48-0.08-0.64-0.23c-0.16-0.15-0.24-0.37-0.24-0.64c0-0.26,0.08-0.47,0.24-0.63
		c0.16-0.16,0.37-0.24,0.63-0.24c0.26,0,0.47,0.08,0.62,0.24c0.15,0.16,0.23,0.37,0.23,0.64c0,0.26-0.08,0.47-0.23,0.63
		C37.25,20.79,37.04,20.87,36.79,20.87 M36.79,21.35c0.42,0,0.76-0.12,1.02-0.37c0.26-0.25,0.39-0.57,0.39-0.97
		c0-0.41-0.13-0.74-0.4-0.99c-0.26-0.25-0.61-0.38-1.03-0.38c-0.43,0-0.78,0.12-1.04,0.37c-0.26,0.25-0.39,0.57-0.39,0.98
		c0,0.41,0.13,0.75,0.39,0.99C36,21.23,36.35,21.35,36.79,21.35 M33.33,18.07c-0.27,0-0.48-0.08-0.64-0.24
		c-0.16-0.16-0.24-0.37-0.24-0.65c0-0.26,0.08-0.47,0.24-0.62c0.16-0.16,0.37-0.23,0.63-0.23c0.26,0,0.47,0.08,0.62,0.24
		c0.15,0.16,0.23,0.37,0.23,0.64c0,0.26-0.08,0.47-0.23,0.63S33.58,18.07,33.33,18.07 M32.8,21.36h0.66l3.82-5.48h-0.66L32.8,21.36z
		 M33.33,18.56c0.27,0,0.52-0.06,0.73-0.17c0.22-0.11,0.38-0.27,0.5-0.47c0.12-0.2,0.18-0.44,0.18-0.71c0-0.27-0.06-0.51-0.18-0.71
		c-0.12-0.2-0.29-0.37-0.5-0.48s-0.46-0.17-0.74-0.17c-0.43,0-0.78,0.12-1.04,0.37c-0.26,0.25-0.39,0.57-0.39,0.97
		c-0.01,0.42,0.12,0.75,0.39,1C32.54,18.43,32.89,18.56,33.33,18.56 M28.84,20.78c-0.53,0-0.94-0.2-1.23-0.6
		c-0.29-0.4-0.43-0.94-0.43-1.63c0-0.69,0.14-1.23,0.43-1.63c0.29-0.4,0.7-0.6,1.23-0.6c0.53,0,0.94,0.2,1.23,0.6
		c0.29,0.4,0.43,0.94,0.43,1.63c0,0.69-0.15,1.23-0.43,1.63C29.78,20.58,29.37,20.78,28.84,20.78 M28.84,21.37
		c0.49,0,0.91-0.12,1.27-0.35c0.36-0.23,0.63-0.56,0.82-0.98c0.19-0.42,0.28-0.92,0.28-1.48c0-0.56-0.09-1.06-0.28-1.48
		c-0.19-0.42-0.46-0.75-0.81-0.98c-0.35-0.23-0.78-0.35-1.27-0.35c-0.49,0-0.91,0.12-1.27,0.35c-0.36,0.23-0.63,0.56-0.81,0.98
		c-0.19,0.42-0.28,0.91-0.28,1.48c0,0.57,0.09,1.06,0.28,1.48c0.19,0.42,0.46,0.75,0.81,0.98C27.92,21.25,28.35,21.37,28.84,21.37
		 M23.2,20.78c-0.53,0-0.94-0.2-1.23-0.6c-0.29-0.4-0.43-0.94-0.43-1.63c0-0.69,0.14-1.23,0.43-1.63c0.29-0.4,0.7-0.6,1.23-0.6
		c0.53,0,0.94,0.2,1.23,0.6c0.29,0.4,0.44,0.94,0.44,1.63c0,0.69-0.15,1.23-0.44,1.63C24.14,20.58,23.73,20.78,23.2,20.78
		 M23.2,21.37c0.49,0,0.91-0.12,1.27-0.35c0.36-0.23,0.63-0.56,0.82-0.98c0.19-0.42,0.28-0.92,0.28-1.48c0-0.56-0.09-1.06-0.28-1.48
		c-0.19-0.42-0.46-0.75-0.81-0.98c-0.36-0.23-0.78-0.35-1.28-0.35c-0.49,0-0.91,0.12-1.27,0.35c-0.36,0.23-0.63,0.56-0.81,0.98
		c-0.19,0.42-0.28,0.91-0.28,1.48c0,0.57,0.09,1.06,0.28,1.48c0.19,0.42,0.46,0.75,0.81,0.98C22.28,21.25,22.71,21.37,23.2,21.37
		 M18.69,21.23h0.68V15.9h-0.58c-0.09,0.29-0.24,0.52-0.47,0.68c-0.23,0.17-0.51,0.25-0.83,0.25h-0.16v0.63h0.26
		c0.24,0,0.46-0.04,0.67-0.12s0.35-0.18,0.44-0.3V21.23z"/>
</g>
</svg>