<svg version="1.1" id="Livello_1" xmlns="http://www.w3.org/2000/svg" xmlns:xlink="http://www.w3.org/1999/xlink" x="0px" y="0px"
	 viewBox="0 0 63.37 51.13" style="enable-background:new 0 0 63.37 51.13;" xml:space="preserve">
<style type="text/css">
	.st0{clip-path:url(#SVGID_2_);fill:#706F6F;}
</style>
<g>
	<defs>
		<rect id="SVGID_1_" x="13.15" y="13.47" width="37.07" height="24.19"/>
	</defs>
	<clipPath id="SVGID_2_">
		<use xlink:href="#SVGID_1_"  style="overflow:visible;"/>
	</clipPath>
	<path class="st0" d="M21.66,27.65V13.72h6.56v1.63h-5.36v4.28h5.01v1.63h-5.01v4.73h5.56v1.65H21.66z M33.71,13.72v1.53h-2.4v4.61
		h2.4v1.85c-0.12-0.08-0.22-0.15-0.35-0.2c-0.12-0.02-0.35-0.05-0.68-0.05h-1.38v6.19h-1.2V13.72H33.71z M13.19,27.65v-1.73
		L17.83,17c0.33-0.63,0.65-1.18,0.95-1.65h-5.06v-1.63h6.49v1.63l-5.09,9.67l-0.55,0.98h5.79v1.65H13.19z M33.71,21.71v-1.85h0.17
		c0.55,0,0.98-0.08,1.28-0.25c0.3-0.17,0.55-0.45,0.7-0.85c0.18-0.38,0.25-0.8,0.25-1.25c0-0.65-0.15-1.18-0.48-1.6
		c-0.3-0.43-0.8-0.65-1.48-0.65h-0.45v-1.53h0.4c0.83,0,1.43,0.12,1.85,0.38c0.42,0.25,0.75,0.68,1,1.33
		c0.25,0.63,0.38,1.33,0.38,2.08c0,1-0.2,1.83-0.63,2.51c-0.4,0.68-1.05,1.1-1.93,1.3c0.33,0.23,0.58,0.45,0.73,0.68
		c0.35,0.5,0.68,1.13,1,1.85l1.58,3.81h-1.5l-1.2-2.91c-0.35-0.83-0.65-1.48-0.88-1.93c-0.23-0.43-0.43-0.75-0.6-0.93
		C33.84,21.84,33.79,21.76,33.71,21.71 M43.18,13.47v1.58c-0.83,0-1.55,0.45-2.15,1.35c-0.63,0.9-0.93,2.38-0.93,4.48
		c0,1.68,0.3,3.01,0.88,3.96c0.58,0.98,1.33,1.45,2.2,1.45v1.58c-0.85,0-1.6-0.3-2.28-0.95c-0.68-0.63-1.18-1.5-1.53-2.58
		c-0.35-1.1-0.5-2.26-0.5-3.48c0-2.31,0.4-4.13,1.2-5.44C40.87,14.12,41.93,13.47,43.18,13.47 M43.18,27.87v-1.58
		c0.9,0,1.65-0.48,2.23-1.45c0.58-0.98,0.88-2.35,0.88-4.16c0-1.13-0.12-2.13-0.38-2.96c-0.25-0.85-0.6-1.5-1.1-1.98
		c-0.48-0.45-1-0.7-1.6-0.7h-0.02v-1.58h0.02c0.83,0,1.58,0.3,2.25,0.93c0.68,0.6,1.18,1.45,1.53,2.56c0.35,1.1,0.53,2.35,0.53,3.73
		c0,1.43-0.18,2.68-0.55,3.81c-0.38,1.1-0.9,1.95-1.58,2.53C44.71,27.6,43.98,27.87,43.18,27.87"/>
	<path class="st0" d="M28.51,30.42l-0.02-0.4h0.5L29.15,30h0.47h0.4h0.12h0.37c0.22,0,0.32-0.02,0.35-0.02c0.05,0,0.1,0,0.2,0.02
		c0.59,0.52,1.06,0.99,1.44,1.39c0.37,0.4,1.73,1.76,4.09,4.09v-0.15l-0.03-0.67c0-0.4-0.02-0.72-0.05-0.94
		c0-0.22-0.02-0.5-0.02-0.82c0-0.32-0.03-0.59-0.05-0.87c-0.03-0.49-0.05-0.79-0.05-0.87c0-0.25-0.05-0.4-0.1-0.44
		c-0.07-0.1-0.25-0.15-0.54-0.2c-0.22-0.05-0.37-0.07-0.47-0.15v-0.32l0.15-0.02L36.56,30l1.26-0.05h0.25v0.37
		c-0.07,0.05-0.17,0.07-0.27,0.1c-0.22,0.08-0.37,0.1-0.42,0.12c-0.2,0.12-0.3,0.17-0.32,0.2C37.03,30.8,37,30.87,37,30.97
		c0,0.02,0,0.1,0.02,0.25v0.47c0,0.57,0.03,1.02,0.05,1.34c0,0.1,0,0.22,0.02,0.35l0.05,2.03v0.3v0.72l0.03,0.3l-0.03,0.32
		c0.03,0.15,0.03,0.25,0.03,0.27v0.3l-0.67,0.03l-0.67-0.69l-1.41-1.41l-0.99-0.97l-0.72-0.74c-0.47-0.47-0.89-0.87-1.26-1.21
		l-0.97-0.87l0.07,2.16v0.4v0.42l0.02,0.77c0,0.3,0.03,0.64,0.07,1.02c0,0.1,0,0.17,0.02,0.22c0,0.02,0.02,0.1,0.05,0.17
		c0.17,0.05,0.5,0.07,0.99,0.12c0.05,0,0.1,0,0.15,0.03l0.02,0.47h-0.22c-0.12,0-0.52-0.02-1.16-0.07c-0.62,0-1.02,0.03-1.24,0.03
		c-0.2,0.02-0.3,0.02-0.32,0.02c-0.05,0-0.1,0-0.2-0.02v-0.22v-0.2c0.1-0.03,0.2-0.05,0.27-0.05c0.02,0,0.1,0,0.22,0.02
		c0.32,0,0.52-0.02,0.57-0.07c0.05-0.05,0.1-0.17,0.1-0.4c0.02-0.62,0.05-0.99,0.05-1.11v-0.32v-1.88v-1.16
		c-0.02-0.45-0.05-0.77-0.1-0.94c-0.03-0.07-0.08-0.15-0.12-0.22c-0.15-0.15-0.3-0.25-0.47-0.32C29.18,30.55,28.93,30.5,28.51,30.42
		 M24.22,37.43v-0.4c0.08-0.03,0.22-0.08,0.4-0.1c0.25-0.08,0.42-0.12,0.55-0.2c0.07-0.12,0.12-0.27,0.12-0.49l-0.02-0.69l0.02-1.31
		v-0.3c0.02-0.77,0.02-1.17,0.02-1.19v-0.77v-0.3l-0.02-0.67v-0.25c0-0.05-0.02-0.1-0.05-0.2c-0.15-0.07-0.4-0.1-0.77-0.12
		c-0.07,0-0.15-0.02-0.2-0.02v-0.49l1.63,0.05C26.1,30,26.25,30,26.3,30c0.22,0,0.59-0.02,1.09-0.05c0.27-0.02,0.45-0.02,0.52-0.02
		v0.17v0.25c-0.15,0.07-0.32,0.12-0.52,0.15c-0.2,0.05-0.37,0.1-0.5,0.15c-0.02,0.12-0.02,0.25-0.02,0.45v0.4V33v1.51l-0.03,0.79
		l0.03,1.14l-0.03,0.22c0,0.03,0.03,0.07,0.03,0.15c0.25,0.05,0.44,0.07,0.64,0.1c0.05,0,0.15,0.03,0.35,0.05
		c0.02,0.1,0.02,0.2,0.02,0.27v0.2h-0.12c-0.12,0.03-0.17,0.03-0.2,0.03s-0.07,0-0.15-0.03c-0.08,0-0.32-0.03-0.77-0.07h-1.04
		c-0.2,0-0.5,0-0.89,0.05C24.47,37.43,24.3,37.43,24.22,37.43 M43.47,29.88v0.62c-0.3-0.08-0.59-0.12-0.92-0.12
		c-0.4,0-0.74,0.05-1.01,0.17c-0.02,0.1-0.02,0.2-0.02,0.25l0.02,0.97l-0.02,0.87c0.02,0.27,0.02,0.52,0.02,0.72v0.57v0.92v0.54
		c0,0.55,0.1,0.89,0.27,1.09c0.3,0.27,0.69,0.4,1.19,0.4c0.17,0,0.32,0,0.47-0.02v0.59h-0.12l-1.19-0.05l-0.35-0.02l-0.44,0.02
		l-0.15-0.02l-0.49,0.02H40.1c-0.02,0-0.22,0-0.59,0.02c-0.12,0.03-0.3,0.03-0.49,0.03h-0.27c0-0.07-0.02-0.22-0.02-0.47
		c0.07,0,0.2-0.02,0.37-0.05c0.35-0.07,0.59-0.15,0.69-0.25c0.08-0.07,0.12-0.2,0.15-0.4c0-0.02,0-0.62,0.03-1.76v-0.62v-0.77
		l-0.03-1.98l0.03-0.22c0-0.1-0.03-0.17-0.1-0.25c-0.03-0.03-0.1-0.03-0.22-0.03c-0.1,0-0.2,0-0.35,0.03
		c-0.15,0-0.32,0.02-0.45,0.05c-0.03,0-0.07,0-0.12,0.02v-0.52c0.22-0.07,0.57-0.15,0.99-0.2c0.69-0.12,1.56-0.17,2.58-0.17
		C42.75,29.86,43.15,29.86,43.47,29.88 M13.17,30.38l-0.03-0.35c0.05-0.02,0.08-0.05,0.1-0.05c0.32,0.02,0.64,0.05,0.97,0.07h0.25
		c0.15,0,0.3,0,0.5-0.02L15.7,30c0.02,0,0.05,0.02,0.05,0.05l-0.05,0.27c-0.07,0.05-0.12,0.07-0.2,0.12
		c-0.15,0.07-0.25,0.15-0.25,0.2c0,0.05,0.02,0.12,0.07,0.2c0.02,0.05,0.05,0.12,0.1,0.22c0.05,0.2,0.25,0.67,0.55,1.39l1.49,3.49
		c0.2-0.37,0.52-0.99,0.92-1.86l-0.84-2.03c-0.15-0.37-0.3-0.69-0.4-0.94c-0.05-0.07-0.07-0.15-0.1-0.22
		c-0.02-0.05-0.07-0.1-0.1-0.17c-0.05-0.08-0.1-0.15-0.17-0.2c-0.1-0.02-0.27-0.1-0.59-0.17L16.2,30c0.12,0,0.3,0,0.52,0.02
		c0.3,0.02,0.5,0.02,0.59,0.02h0.82l0.99-0.07C19.14,30,19.17,30,19.19,30v0.2v0.05v0.1c-0.07,0.02-0.17,0.05-0.32,0.05
		c-0.1,0.02-0.17,0.02-0.22,0.07c-0.02,0.02-0.05,0.07-0.05,0.12c0,0.1,0.05,0.25,0.12,0.42c0.02,0.07,0.07,0.17,0.15,0.32
		c0.17,0.5,0.32,0.87,0.42,1.09l0.42-0.84c0.17-0.4,0.3-0.67,0.35-0.84c0.02-0.05,0.02-0.07,0.02-0.1V30.6
		c-0.05-0.05-0.07-0.07-0.12-0.1c-0.1-0.05-0.25-0.1-0.49-0.15v-0.17V30c0.15,0,0.49,0,1.09,0.02c0.35,0,0.57,0.02,0.67,0.02
		c0.08,0,0.15-0.02,0.22-0.02h0.2v0.05l-0.02,0.27v0.02c-0.42,0.12-0.67,0.2-0.74,0.25c-0.07,0.05-0.15,0.15-0.22,0.27
		c-0.2,0.35-0.57,1.04-1.09,2.13l0.02,0.05l0.37,0.84l0.64,1.49c0.05,0.15,0.1,0.27,0.12,0.32l0.74-1.91l1.02-2.58l0.15-0.5
		c0.02-0.02,0.02-0.05,0.02-0.1l-0.02-0.1c-0.12-0.02-0.25-0.05-0.32-0.07c-0.07-0.03-0.15-0.05-0.22-0.1v-0.25
		c0-0.02,0-0.05,0.02-0.1l0.1-0.02l0.87,0.05L23.65,30l0.12,0.02c0,0.07,0.02,0.12,0.02,0.17c0,0.08-0.02,0.12-0.05,0.17
		c-0.02,0.02-0.05,0.05-0.12,0.07c-0.15,0.07-0.25,0.15-0.32,0.22c-0.02,0.05-0.1,0.17-0.17,0.37c-0.32,0.92-0.67,1.78-1.04,2.62
		c-0.35,0.82-0.89,2.15-1.59,3.99h-0.59c-0.02-0.15-0.07-0.25-0.12-0.35c-0.1-0.25-0.17-0.42-0.2-0.47l-0.64-1.49
		c-0.1-0.25-0.17-0.44-0.25-0.54c0-0.02-0.03-0.05-0.05-0.1c0,0.02-0.2,0.42-0.59,1.16c-0.4,0.77-0.69,1.34-0.89,1.76l-0.57,0.02
		c-0.15-0.42-0.42-1.09-0.82-1.96l-1.88-4.36c-0.2-0.45-0.32-0.72-0.42-0.79c-0.02-0.05-0.07-0.07-0.17-0.1
		C13.27,30.42,13.22,30.4,13.17,30.38 M43.47,37.43v-0.59c0.15-0.03,0.27-0.05,0.37-0.08c0.37-0.15,0.67-0.35,0.89-0.59
		c0.22-0.25,0.4-0.57,0.52-1.02c0.1-0.45,0.17-0.92,0.17-1.39c0-0.77-0.12-1.41-0.37-1.91c-0.25-0.49-0.59-0.87-1.01-1.11
		c-0.2-0.1-0.37-0.17-0.57-0.25v-0.62c0.27,0.02,0.52,0.08,0.69,0.1c0.59,0.15,1.09,0.4,1.46,0.67c0.52,0.4,0.89,0.87,1.14,1.39
		c0.25,0.52,0.37,1.09,0.37,1.71c0,0.77-0.17,1.44-0.5,2.01c-0.35,0.54-0.84,0.99-1.46,1.34C44.76,37.31,44.19,37.43,43.47,37.43"/>
	<path class="st0" d="M48.97,30.72c0.18,0,0.34,0.01,0.34,0.19c0,0.19-0.28,0.16-0.48,0.16H48.6v-0.36H48.97z M49.13,31.28
		c0.2-0.01,0.4-0.11,0.4-0.39c0-0.3-0.24-0.38-0.51-0.38h-0.62v1.43h0.22v-0.66h0.28l0.38,0.66h0.24L49.13,31.28z M48.9,30.15
		c0.6,0,1.11,0.46,1.11,1.07c0,0.6-0.5,1.07-1.11,1.07c-0.6,0-1.11-0.47-1.11-1.07C47.79,30.61,48.3,30.15,48.9,30.15 M48.9,32.49
		c0.74,0,1.32-0.56,1.32-1.27c0-0.71-0.58-1.27-1.32-1.27c-0.74,0-1.32,0.56-1.32,1.27C47.58,31.93,48.16,32.49,48.9,32.49"/>
</g>
</svg>